<?xml version="1.0" standalone="no"?>
<!DOCTYPE svg PUBLIC "-//W3C//DTD SVG 1.1//EN" "http://www.w3.org/Graphics/SVG/1.1/DTD/svg11.dtd" >
<svg xmlns="http://www.w3.org/2000/svg" xmlns:xlink="http://www.w3.org/1999/xlink" version="1.1">
<metadata></metadata>
<defs>
<font id="frauncesblack" horiz-adv-x="1647" >
<font-face units-per-em="2048" ascent="1638" descent="-410" />
<missing-glyph horiz-adv-x="419" />
<glyph unicode="&#xfb01;" horiz-adv-x="1656" d="M58 879q0 25 18 40.5t56 15.5h173l-88 -33v31q0 20 -18.5 41.5t-43 49.5t-43 67t-18.5 96q0 139 111.5 224.5t315.5 85.5q130 0 219 -39.5t135 -104.5t46 -141q0 -84 -48.5 -128t-123.5 -44q-86 0 -137.5 50t-51.5 134v84q0 42 -25 62t-63 20q-44 0 -66 -26.5t-22 -74.5 q0 -51 23 -92t57.5 -74.5t68.5 -64.5t57 -61.5t23 -65.5v-57l-45 61h241q32 0 51 -14t19 -39q0 -39 -38 -65.5t-125 -26.5h-67v-574q0 -37 11 -56.5t38 -22.5l106 -13q31 -3 43.5 -20.5t12.5 -41.5q0 -62 -75 -62h-637q-34 0 -53.5 16t-19.5 43q0 26 13 42t43 25l27 8 q33 10 45 28.5t12 51.5v512q0 19 -10 33.5t-40 27.5l-38 18q-39 18 -54 35t-15 39zM991 823q0 25 13.5 39.5t50.5 28.5l227 88q55 22 87 30.5t56 8.5q49 0 74 -26t25 -66v-711q0 -41 6 -58t21 -24l23 -10q24 -10 34 -25.5t10 -36.5q0 -29 -18.5 -45t-59.5 -16h-467 q-41 0 -59.5 16.5t-18.5 44.5q0 20 10.5 36t33.5 26l23 10q15 7 21.5 24t6.5 58v481q0 33 -9 47t-26 19l-23 7q-22 7 -31.5 20.5t-9.5 33.5zM1036 1307q0 91 66.5 143t181.5 52t181.5 -52t66.5 -143q0 -92 -66.5 -145.5t-181.5 -53.5t-181.5 53t-66.5 146z" />
<glyph unicode="&#xfb02;" horiz-adv-x="1656" d="M58 879q0 25 18 40.5t56 15.5h173l-88 -33v31q0 20 -18.5 41.5t-43 49.5t-43 67t-18.5 96q0 139 111.5 224.5t315.5 85.5q130 0 219 -39.5t135 -104.5t46 -141q0 -84 -48.5 -128t-123.5 -44q-86 0 -137.5 50t-51.5 134v84q0 42 -25 62t-63 20q-44 0 -66 -26.5t-22 -74.5 q0 -51 23 -92t57.5 -74.5t68.5 -64.5t57 -61.5t23 -65.5v-57l-45 61h241q32 0 51 -14t19 -39q0 -39 -38 -65.5t-125 -26.5h-67v-574q0 -37 11 -56.5t38 -22.5l106 -13q31 -3 43.5 -20.5t12.5 -41.5q0 -62 -75 -62h-637q-34 0 -53.5 16t-19.5 43q0 26 13 42t43 25l27 8 q33 10 45 28.5t12 51.5v512q0 19 -10 33.5t-40 27.5l-38 18q-39 18 -54 35t-15 39zM991 1352q0 25 13.5 39t50.5 28l227 88q55 22 87 30.5t56 8.5q49 0 74 -26t25 -66v-1239q0 -41 6 -58t21 -24l23 -10q24 -10 34 -25.5t10 -36.5q0 -29 -18.5 -45t-59.5 -16h-467 q-41 0 -59.5 16.5t-18.5 44.5q0 20 10.5 36t33.5 26l23 10q15 7 21.5 24t6.5 58v1010q0 33 -9 46.5t-26 18.5l-23 7q-22 7 -31.5 20.5t-9.5 34.5z" />
<glyph unicode="&#xfb03;" horiz-adv-x="2592" d="M58 879q0 25 18 40.5t56 15.5h173l-88 -33v31q0 20 -18.5 41.5t-43 49.5t-43 67t-18.5 96q0 139 111.5 224.5t315.5 85.5q130 0 219 -39.5t135 -104.5t46 -141q0 -84 -48.5 -128t-123.5 -44q-86 0 -137.5 50t-51.5 134v84q0 42 -25 62t-63 20q-44 0 -66 -26.5t-22 -74.5 q0 -51 23 -92t57.5 -74.5t68.5 -64.5t57 -61.5t23 -65.5v-57l-45 61h241q32 0 51 -14t19 -39q0 -39 -38 -65.5t-125 -26.5h-67v-574q0 -37 11 -56.5t38 -22.5l106 -13q31 -3 43.5 -20.5t12.5 -41.5q0 -62 -75 -62h-637q-34 0 -53.5 16t-19.5 43q0 26 13 42t43 25l27 8 q33 10 45 28.5t12 51.5v512q0 19 -10 33.5t-40 27.5l-38 18q-39 18 -54 35t-15 39zM994 879q0 25 18 40.5t56 15.5h173l-88 -33v31q0 20 -18.5 41.5t-43 49.5t-43 67t-18.5 96q0 139 111.5 224.5t315.5 85.5q130 0 219 -39.5t135 -104.5t46 -141q0 -84 -48.5 -128 t-123.5 -44q-86 0 -137.5 50t-51.5 134v84q0 42 -25 62t-63 20q-44 0 -66 -26.5t-22 -74.5q0 -51 23 -92t57.5 -74.5t68.5 -64.5t57 -61.5t23 -65.5v-57l-45 61h241q32 0 51 -14t19 -39q0 -39 -38 -65.5t-125 -26.5h-67v-574q0 -37 11 -56.5t38 -22.5l106 -13 q31 -3 43.5 -20.5t12.5 -41.5q0 -62 -75 -62h-637q-34 0 -53.5 16t-19.5 43q0 26 13 42t43 25l27 8q33 10 45 28.5t12 51.5v512q0 19 -10 33.5t-40 27.5l-38 18q-39 18 -54 35t-15 39zM1927 823q0 25 13.5 39.5t50.5 28.5l227 88q55 22 87 30.5t56 8.5q49 0 74 -26t25 -66 v-711q0 -41 6 -58t21 -24l23 -10q24 -10 34 -25.5t10 -36.5q0 -29 -18.5 -45t-59.5 -16h-467q-41 0 -59.5 16.5t-18.5 44.5q0 20 10.5 36t33.5 26l23 10q15 7 21.5 24t6.5 58v481q0 33 -9 47t-26 19l-23 7q-22 7 -31.5 20.5t-9.5 33.5zM1972 1307q0 91 66.5 143t181.5 52 t181.5 -52t66.5 -143q0 -92 -66.5 -145.5t-181.5 -53.5t-181.5 53t-66.5 146z" />
<glyph unicode="&#xfb04;" horiz-adv-x="2592" d="M58 879q0 25 18 40.5t56 15.5h173l-88 -33v31q0 20 -18.5 41.5t-43 49.5t-43 67t-18.5 96q0 139 111.5 224.5t315.5 85.5q130 0 219 -39.5t135 -104.5t46 -141q0 -84 -48.5 -128t-123.5 -44q-86 0 -137.5 50t-51.5 134v84q0 42 -25 62t-63 20q-44 0 -66 -26.5t-22 -74.5 q0 -51 23 -92t57.5 -74.5t68.5 -64.5t57 -61.5t23 -65.5v-57l-45 61h241q32 0 51 -14t19 -39q0 -39 -38 -65.5t-125 -26.5h-67v-574q0 -37 11 -56.5t38 -22.5l106 -13q31 -3 43.5 -20.5t12.5 -41.5q0 -62 -75 -62h-637q-34 0 -53.5 16t-19.5 43q0 26 13 42t43 25l27 8 q33 10 45 28.5t12 51.5v512q0 19 -10 33.5t-40 27.5l-38 18q-39 18 -54 35t-15 39zM994 879q0 25 18 40.5t56 15.5h173l-88 -33v31q0 20 -18.5 41.5t-43 49.5t-43 67t-18.5 96q0 139 111.5 224.5t315.5 85.5q130 0 219 -39.5t135 -104.5t46 -141q0 -84 -48.5 -128 t-123.5 -44q-86 0 -137.5 50t-51.5 134v84q0 42 -25 62t-63 20q-44 0 -66 -26.5t-22 -74.5q0 -51 23 -92t57.5 -74.5t68.5 -64.5t57 -61.5t23 -65.5v-57l-45 61h241q32 0 51 -14t19 -39q0 -39 -38 -65.5t-125 -26.5h-67v-574q0 -37 11 -56.5t38 -22.5l106 -13 q31 -3 43.5 -20.5t12.5 -41.5q0 -62 -75 -62h-637q-34 0 -53.5 16t-19.5 43q0 26 13 42t43 25l27 8q33 10 45 28.5t12 51.5v512q0 19 -10 33.5t-40 27.5l-38 18q-39 18 -54 35t-15 39zM1927 1352q0 25 13.5 39t50.5 28l227 88q55 22 87 30.5t56 8.5q49 0 74 -26t25 -66 v-1239q0 -41 6 -58t21 -24l23 -10q24 -10 34 -25.5t10 -36.5q0 -29 -18.5 -45t-59.5 -16h-467q-41 0 -59.5 16.5t-18.5 44.5q0 20 10.5 36t33.5 26l23 10q15 7 21.5 24t6.5 58v1010q0 33 -9 46.5t-26 18.5l-23 7q-22 7 -31.5 20.5t-9.5 34.5z" />
<glyph horiz-adv-x="0" />
<glyph horiz-adv-x="682" />
<glyph unicode=" "  horiz-adv-x="419" />
<glyph unicode="&#x09;" horiz-adv-x="419" />
<glyph unicode="&#xa0;" horiz-adv-x="419" />
<glyph unicode="!" horiz-adv-x="706" d="M92 1320q0 101 64 161.5t197 60.5q134 0 197.5 -60.5t63.5 -161.5q0 -30 -5.5 -65.5t-16.5 -78.5l-150 -551q-13 -50 -33 -74.5t-56 -24.5t-55 24t-34 75l-149 551q-11 43 -17 78.5t-6 65.5zM110 219q0 69 32 124.5t87.5 89.5t122.5 34q70 0 125 -34t87.5 -89.5 t32.5 -124.5q0 -67 -32.5 -124t-87.5 -91.5t-125 -34.5q-68 0 -123 34.5t-87 92t-32 123.5z" />
<glyph unicode="&#x22;" horiz-adv-x="920" d="M41 1323q-27 139 20.5 213.5t166.5 74.5q121 0 165 -77t16 -210l-94 -436q-10 -46 -35.5 -67.5t-64.5 -21.5q-32 0 -57 23.5t-33 67.5zM511 1323q-27 139 20.5 213.5t166.5 74.5q121 0 165 -77t16 -210l-94 -436q-10 -46 -35.5 -67.5t-64.5 -21.5q-32 0 -57 23.5 t-33 67.5z" />
<glyph unicode="#" horiz-adv-x="1405" d="M29 511q0 36 22 53t61 17t93 -3t117.5 -7.5t127.5 -8.5t123 -6.5t103 -2.5q43 0 100 2t119.5 5t124 6.5t115 5.5t91.5 3q38 0 60 -17t23 -51q-1 -35 -23 -52.5t-61 -19.5q-40 1 -94.5 2.5t-116 4t-123.5 5.5t-118 4.5t-98 1.5q-43 0 -100.5 -1.5t-121.5 -3.5t-127 -3.5 t-118.5 -2.5t-95.5 -1q-39 0 -60.5 18t-22.5 52zM97 970q0 36 22 52.5t61 17.5q39 0 94 -2.5t118 -7t127.5 -8.5t122.5 -7t102 -2q43 0 100 2t120 5t124.5 6.5t114.5 5.5t91 3q38 0 60 -17.5t23 -50.5q-1 -35 -23 -53t-61 -19q-39 0 -93 2t-115.5 4.5t-124 5t-118.5 4 t-99 1.5q-43 -1 -100 -2t-121 -3t-127 -3.5t-119 -2t-96 -0.5q-39 -1 -60.5 17t-22.5 52zM238 83q10 37 26 87t35 109t40 120.5t40.5 121.5t36 113.5t27.5 94.5t24 95.5t26.5 115.5t27 124.5t26 124t24.5 112t21 87.5q23 71 94 54q37 -9 50 -33t2 -58q-10 -39 -25 -90.5 t-32.5 -110.5t-36 -120.5t-36 -121.5t-32.5 -112.5t-26 -92.5q-10 -40 -24 -93t-29 -113.5t-30.5 -123t-30.5 -122.5t-28.5 -112.5t-23.5 -91.5q-23 -72 -94 -55q-36 10 -49 33t-3 58zM650 83q10 37 26 87t35.5 109t40.5 120.5t40.5 121.5t36.5 113.5t28 94.5t24 95.5 t26.5 116t26.5 124.5t26 123t24.5 111.5t21.5 86.5q20 73 93 56q37 -9 49.5 -33.5t1.5 -58.5q-10 -38 -25 -90t-32.5 -110.5t-36 -120.5t-35.5 -121.5l-32 -112t-26 -92.5q-10 -40 -24 -93t-29 -113.5t-31 -123t-30.5 -122.5t-28 -112.5t-23.5 -91.5q-23 -72 -95 -55 q-36 10 -48.5 33t-3.5 58z" />
<glyph unicode="$" horiz-adv-x="1293" d="M69 333q0 81 49 132.5t134 51.5q76 0 130.5 -51.5t54.5 -137.5v-86q0 -72 54.5 -117t144.5 -45q97 0 155.5 47.5t58.5 126.5q0 89 -67.5 154.5t-247.5 127.5q-163 57 -261 123t-141.5 148t-43.5 185q0 122 71.5 221t205 156.5t316.5 57.5q173 0 292 -43.5t181 -120 t62 -178.5q0 -78 -46.5 -134t-120.5 -56q-87 0 -145.5 49.5t-58.5 129.5v100q0 82 -47 132t-132 50q-55 0 -99.5 -22t-70 -65t-25.5 -106q0 -59 28.5 -107.5t95.5 -89.5t180 -80q180 -61 280 -130.5t140.5 -148t40.5 -169.5q0 -133 -71.5 -230t-207.5 -150.5t-326 -53.5 q-185 0 -310.5 44.5t-189 119.5t-63.5 165zM560 -89q0 65 6.5 139.5t15.5 166.5t16 206.5t7 256.5h73q0 -143 6.5 -259.5t15.5 -209.5t15.5 -167.5t6.5 -134.5q0 -43 -22 -66t-59 -23q-35 0 -58 23t-23 68zM591 1558q0 43 22 66t59 23q34 0 57.5 -23t23.5 -69 q0 -59 -7 -132.5t-15.5 -166.5t-15 -209.5t-6.5 -260.5h-74q0 142 -6.5 256.5t-15.5 206.5t-15.5 168t-6.5 141z" />
<glyph unicode="%" horiz-adv-x="1789" d="M50 1066q0 182 114.5 291.5t309.5 109.5q178 0 289 -102.5t111 -281.5q0 -137 -53.5 -230.5t-147 -142t-209.5 -48.5q-197 0 -305.5 104t-108.5 300zM370 1082q0 -187 25 -257.5t72 -70.5q26 0 45 25.5t31 92t12 189.5q0 177 -24 246.5t-67 69.5q-48 0 -71 -70.5 t-23 -224.5zM384 60.5q-9 40.5 23 89.5q12 19 38 55.5t61.5 83.5t74.5 97.5t77.5 100t71.5 90.5t56 68q23 26 40 33t42 -5q22 -12 23 -30t-13 -47q-14 -32 -36 -79.5t-48 -104t-52.5 -114t-52 -110t-46 -92t-33.5 -58.5q-31 -47 -74 -60t-94 15q-49 27 -58 67.5zM904 797.5 q-3 17.5 11 46.5q14 32 36 79.5t48 103t52.5 113t52.5 109t46.5 91.5t32.5 60q31 48 74 61.5t95 -15.5q50 -28 58 -69t-22 -89q-12 -19 -39 -55t-61.5 -82.5t-73.5 -97.5t-77.5 -100t-72 -89.5t-57.5 -68.5q-22 -26 -38 -32.5t-42 6.5q-20 11 -23 28.5zM916 367 q0 182 114.5 291.5t309.5 109.5q178 0 289 -102.5t111 -281.5q0 -137 -53.5 -230.5t-147 -142t-209.5 -48.5q-197 0 -305.5 104t-108.5 300zM1236 383q0 -187 25 -257.5t72 -70.5q26 0 45 25.5t31 92t12 189.5q0 177 -24 246.5t-67 69.5q-48 0 -71 -70.5t-23 -224.5z" />
<glyph unicode="&#x26;" horiz-adv-x="2074" d="M66 326q0 -173 113 -264t322 -91q106 0 186 19t136 53.5t90 80.5l-56 86q-32 -35 -65 -50.5t-78 -15.5q-84 0 -135 70.5t-51 179.5q0 71 16 124t45 83t68 30v83q-185 0 -317.5 -49t-203 -136.5t-70.5 -202.5zM88 1008q0 -113 53.5 -185t149.5 -72q83 0 135.5 50t52.5 130 q0 48 -10 83.5t-24 66t-24 63t-10 73.5q0 79 49.5 142.5t159 101t289.5 37.5q202 0 380.5 -70.5t302.5 -192.5q139 -136 209 -309t70 -344q0 -152 -44 -250.5t-118.5 -146t-164.5 -47.5q-66 0 -121.5 31.5t-118.5 106.5t-150 206q-75 110 -121 200.5t-68 173t-22 167.5 q0 83 24 134.5t60 51.5q29 0 44 -50t15 -129q0 -90 -19 -157t-52 -104t-74 -37l16 -64q144 0 250 40.5t163.5 114t57.5 172.5q0 92 -48 163.5t-134 112t-199 40.5q-145 0 -248 -61t-157.5 -164.5t-54.5 -231.5q0 -109 25 -210.5t74.5 -203.5t123.5 -212q62 -95 139.5 -157 t176.5 -92t225 -30q206 0 351.5 75t223 216.5t77.5 339.5q0 212 -82 403.5t-237 339.5q-142 136 -342.5 212t-423.5 76q-271 0 -456.5 -75.5t-279.5 -210.5t-94 -317zM1264 260l32 -67q220 72 320 189.5t100 251.5q0 97 -41 152.5t-117 55.5q-75 0 -122 -54.5t-47 -129.5 q0 -34 8 -59.5t16 -55t8 -72.5q0 -36 -17.5 -73.5t-52 -72.5t-87.5 -65z" />
<glyph unicode="'" horiz-adv-x="450" d="M41 1323q-27 139 20.5 213.5t166.5 74.5q121 0 165 -77t16 -210l-94 -436q-10 -46 -35.5 -67.5t-64.5 -21.5q-32 0 -57 23.5t-33 67.5z" />
<glyph unicode="(" horiz-adv-x="822" d="M154 624q0 221 70 401t187.5 303.5t261.5 172.5q92 32 117 0q13 -16 4.5 -39t-40.5 -65q-69 -88 -125 -208t-88.5 -263t-32.5 -302t32.5 -302.5t88.5 -263t125 -208.5q33 -42 41 -64.5t-5 -39.5q-25 -32 -117 0q-143 49 -261 172.5t-188 304t-70 401.5z" />
<glyph unicode=")" horiz-adv-x="822" d="M27 1461.5q-8 22.5 5 39.5q25 32 117 0q143 -49 261 -172.5t188 -304t70 -401.5t-70 -401t-187.5 -303.5t-261.5 -172.5q-92 -32 -117 0q-13 16 -4.5 39t40.5 65q69 88 125 208t88.5 263t32.5 302t-32.5 302.5t-88.5 263t-125 208.5q-33 42 -41 64.5z" />
<glyph unicode="*" horiz-adv-x="1280" d="M75 1197q30 88 82 125t122 14q51 -16 89 -56t75.5 -88.5t86 -92t120.5 -67.5l-13 -36q-72 24 -137 17.5t-124.5 -25t-114.5 -29.5t-106 6q-141 47 -80 232zM196 651q-20 61 21 120q33 43 83.5 66t109.5 43t116 52t102 93l31 -23q-44 -61 -57 -124t-14 -124t-8.5 -115 t-38.5 -97q-86 -121 -249 -6q-76 54 -96 115zM444 1456q0 150 199 150q94 0 147 -38.5t53 -111.5q0 -53 -27.5 -100.5t-62.5 -98t-62 -108.5t-27 -134h-40q0 76 -27.5 134t-62.5 108.5t-62.5 98t-27.5 100.5zM628 1002l31 23q45 -61 102.5 -93t116.5 -52t109.5 -43t82.5 -66 q86 -121 -75 -235q-75 -54 -141 -54t-108 60q-32 43 -38.5 97t-8 115t-14 124t-57.5 124zM637 1032q73 24 121 67.5t86 92t75.5 88.5t89.5 56q142 45 203 -140q29 -87 9.5 -147.5t-88.5 -83.5q-51 -16 -106.5 -5.5t-115 29t-124.5 25t-137 -17.5z" />
<glyph unicode="+" horiz-adv-x="1174" d="M108 698q0 38 22.5 60t51.5 22h812q30 0 51.5 -22t21.5 -60t-21.5 -59t-51.5 -21h-813q-29 0 -51 21t-22 59zM500 310v812q0 30 22 51.5t60 21.5t59 -21.5t21 -51.5v-813q0 -29 -21 -51t-59 -22t-60 22.5t-22 51.5z" />
<glyph unicode="," horiz-adv-x="697" d="M87 -379q-6 27 11.5 49t69.5 37q94 28 151 63t82.5 78t25.5 94q0 17 -9 26t-33 9h-61q-110 0 -162.5 59t-52.5 150q0 100 69 168t172 68q113 0 189 -79.5t76 -241.5q0 -104 -26.5 -188.5t-78 -148.5t-128 -107.5t-175.5 -66.5q-54 -12 -84 -2.5t-36 33.5z" />
<glyph unicode="-" horiz-adv-x="823" d="M61 529l32 88q17 50 41.5 68t63.5 18h502q100 0 62 -106l-32 -88q-17 -50 -41 -68t-63 -18h-503q-100 0 -62 106z" />
<glyph unicode="." horiz-adv-x="671" d="M92 219q0 69 32.5 124.5t87.5 89.5t123 34q70 0 125 -34t87.5 -89.5t32.5 -124.5q0 -67 -32.5 -124t-87.5 -91.5t-125 -34.5q-68 0 -123 34.5t-87.5 92t-32.5 123.5z" />
<glyph unicode="/" horiz-adv-x="1048" d="M17 -148q23 48 55.5 111t73 135t83 148t83.5 150.5t76.5 141.5t61.5 121t54 125t59 150.5t61.5 161t60.5 158.5t57 143t49 113q22 45 66.5 56t101.5 -16t78.5 -68t-0.5 -86q-22 -47 -55 -110.5t-73.5 -136t-83 -148t-83.5 -150.5t-76 -142t-61 -121q-25 -54 -54 -125 t-59.5 -150.5t-61.5 -160.5t-60.5 -158.5t-56 -143.5t-49.5 -113q-22 -45 -66.5 -56t-102.5 16q-57 27 -78 68t0 87z" />
<glyph unicode="0" horiz-adv-x="1496" d="M62 720q0 230 85.5 399.5t241.5 262.5t366 93q217 0 368.5 -88.5t231 -258.5t79.5 -414q0 -230 -85.5 -400t-241 -262.5t-366.5 -92.5q-216 0 -368 88t-231.5 258t-79.5 415zM546 768q0 -252 23 -402.5t69.5 -217t118.5 -66.5q66 0 108.5 58t63.5 186.5t21 339.5 q0 252 -23 402.5t-69.5 217t-118.5 66.5q-66 0 -108.5 -58t-63.5 -186.5t-21 -339.5z" />
<glyph unicode="1" horiz-adv-x="1048" d="M75 71q0 -33 22 -52t68 -19h744q40 0 59.5 19t19.5 52q0 58 -57 72l-91 24q-28 7 -43 28t-15 62v1126q0 81 -83 81q-26 0 -48.5 -5.5t-50.5 -19.5q-85 -41 -154.5 -62.5t-170.5 -21.5h-92q-44 0 -69.5 -23t-25.5 -58t21.5 -57.5t67.5 -22.5h63q36 0 51.5 -18.5 t15.5 -69.5v-849q0 -41 -16 -62t-45 -28l-103 -23q-69 -16 -68 -73z" />
<glyph unicode="2" horiz-adv-x="1366" d="M61 184q0 121 94.5 193.5t273.5 72.5q81 0 152.5 -10t140.5 -22t140.5 -22t151.5 -10q69 0 111 26t77 83q16 27 35 37t42 8q27 -2 40.5 -25t9.5 -74q-13 -174 -61 -280t-127.5 -154t-187.5 -48q-86 0 -150 24t-109.5 79.5t-78.5 149.5q-16 50 -30 65.5t-36 15.5 q-25 0 -41 -23t-22 -75q-7 -87 -36.5 -139t-79 -74.5t-118.5 -22.5q-83 0 -137 61t-54 164zM93 1075q0 104 61 195.5t188 148t325 56.5q196 0 320.5 -54.5t184.5 -150t60 -218.5q0 -109 -61.5 -201t-191 -176.5t-332.5 -169.5l-379 -159l-69 53l188 97q112 57 189.5 131.5 t118 175t40.5 233.5q0 123 -13.5 196.5t-40 106t-63.5 32.5q-51 0 -72 -47t-21 -130v-142q0 -94 -57.5 -150.5t-161.5 -56.5q-97 0 -155 60.5t-58 169.5z" />
<glyph unicode="3" horiz-adv-x="1266" d="M79 294q0 98 64.5 161t159.5 63q103 0 155 -53.5t52 -142.5v-110q0 -59 26 -101t74 -42t82 29t52.5 93t18.5 168q0 156 -48.5 222.5t-133.5 66.5h-74q-42 0 -62.5 19t-20.5 54q0 27 11.5 47t42.5 47l456 396l12 -127h-543q-43 0 -66.5 -14.5t-31.5 -48.5l-20 -81 q-7 -30 -27 -48t-58 -18q-37 0 -60.5 20t-19.5 61l37 383q4 44 35.5 70t85.5 26h832q62 0 89 -15.5t27 -49.5q0 -23 -17 -51.5t-71 -78.5l-535 -496l-35 34q20 6 44 10.5t50.5 7t56.5 2.5q146 0 256.5 -45t172.5 -128.5t62 -199.5q0 -141 -72 -245.5t-205.5 -162 t-319.5 -57.5q-179 0 -297.5 43t-177.5 119t-59 173z" />
<glyph unicode="4" horiz-adv-x="1430" d="M31 440q0 20 13.5 43.5t48.5 55.5l318 288q54 48 80.5 91t26.5 83q0 36 -12 67.5t-29 63t-29.5 69t-12.5 85.5q0 65 32.5 115.5t97.5 79t163 28.5q116 0 186.5 -55.5t70.5 -159.5q0 -41 -14.5 -86.5t-59.5 -105t-137 -140.5l-592 -532l-26 64h1102q38 0 61 -15t23 -48 q0 -72 -86 -72h-1136q-42 0 -65.5 22.5t-23.5 58.5zM467 70q0 54 65 72l91 25q25 7 36.5 22.5t11.5 47.5v384q0 29 9.5 49.5t28.5 37.5l282 253q28 26 46 32.5t35 6.5q24 0 37.5 -13.5t13.5 -44.5l2 -703q0 -32 13.5 -48t37.5 -24l69 -25q33 -11 50 -28t17 -43 q0 -33 -21 -52t-66 -19h-670q-88 0 -88 70z" />
<glyph unicode="5" horiz-adv-x="1297" d="M81 288q0 100 65.5 165t161.5 65q101 0 152.5 -55t51.5 -142v-143q0 -47 27 -82.5t79 -35.5q63 0 104.5 75t41.5 239q0 183 -62 264t-165 81q-31 0 -60.5 -8.5t-59 -25t-64.5 -44.5q-32 -25 -54.5 -34.5t-48.5 -9.5q-30 0 -53 17t-23 54v681q0 50 28.5 78.5t91.5 28.5 q24 0 51.5 -4.5t70.5 -16.5q53 -14 117.5 -25.5t134.5 -18t139 -6.5q119 0 184.5 17t102.5 44q38 27 60.5 31.5t37.5 -1.5q14 -5 23.5 -22t4.5 -53q-18 -145 -79 -233t-167 -126t-260 -38q-86 0 -176.5 10.5t-171 30t-139.5 45.5l104 125v-513l-62 20q59 53 118 85.5 t128.5 46.5t161.5 14q161 0 281 -53t187 -151t67 -231q0 -153 -76 -258.5t-214.5 -160.5t-322.5 -55q-173 0 -288 43t-172.5 117.5t-57.5 168.5z" />
<glyph unicode="6" horiz-adv-x="1380" d="M61 670q0 251 86.5 431t249.5 277t389 97q159 0 269 -45t167 -117t57 -156q0 -102 -62 -159t-166 -57q-105 0 -163.5 53.5t-58.5 150.5v100q0 54 -23.5 81t-71.5 27q-44 0 -81.5 -37t-64.5 -119.5t-42 -219t-15 -335.5q0 -223 24 -345.5t62.5 -170t84.5 -47.5 q77 0 121 76.5t44 243.5q0 152 -53.5 229.5t-137.5 77.5q-44 0 -84.5 -19.5t-69 -55.5t-40.5 -84l-73 37q7 75 67.5 141.5t159 107.5t220.5 41q142 0 246 -48.5t160.5 -142t56.5 -230.5q0 -146 -74.5 -257.5t-211 -174t-323.5 -62.5q-208 0 -353 88t-220.5 248.5 t-75.5 374.5z" />
<glyph unicode="7" horiz-adv-x="1172" d="M73 885l28 454q2 42 29.5 68.5t74.5 26.5h877q60 0 91.5 -27t31.5 -69q0 -26 -17 -55.5t-62 -81.5l-198 -229q-82 -94 -129.5 -155t-70.5 -100t-30 -66t-7 -54q0 -56 24.5 -96.5t57 -78.5t57 -87t24.5 -123q0 -100 -73 -176.5t-220 -76.5q-139 0 -224.5 76t-85.5 215 q0 73 28 145.5t99.5 166.5t201.5 232l268 282l79 -36h-570q-44 0 -63 -14t-28 -50l-26 -107q-7 -31 -29 -48.5t-57 -17.5q-41 0 -62 21t-19 61z" />
<glyph unicode="8" horiz-adv-x="1418" d="M91 321q0 82 52.5 147.5t165 106t292.5 50.5l-1 -24q-30 -38 -39.5 -109t-9.5 -139q0 -136 39.5 -215t124.5 -79q76 0 110.5 54t34.5 145q0 71 -26.5 130t-93 105.5t-186.5 76.5q-242 63 -349 175.5t-107 249.5q0 123 70.5 232.5t218 178.5t377.5 69q176 0 303.5 -51.5 t197 -141.5t69.5 -207q0 -87 -52 -164t-169 -128t-311 -57l-31 27q33 35 59 84t41 109.5t15 128.5q0 96 -20 161.5t-60.5 99t-103.5 33.5q-51 0 -84.5 -26t-50 -71t-16.5 -105q0 -94 32.5 -164.5t109.5 -122.5t209 -90q223 -66 331 -168t108 -234q0 -123 -78.5 -219.5 t-231 -152.5t-372.5 -56q-203 0 -328 47t-182.5 129t-57.5 185z" />
<glyph unicode="9" horiz-adv-x="1380" d="M61 987q0 144 74.5 254t211 172t324.5 62q209 0 353 -88.5t219.5 -248t75.5 -374.5q0 -250 -86.5 -430.5t-249 -277.5t-389.5 -97q-159 0 -269 44.5t-167 117.5t-57 155q0 103 62.5 160t166.5 57q105 0 163 -53.5t58 -150.5v-101q0 -53 24 -80t71 -27q59 0 105 67 t72 222.5t26 421.5q0 224 -23.5 346t-62.5 169.5t-85 47.5q-77 0 -121 -75.5t-44 -239.5q0 -145 54 -220.5t138 -75.5q45 0 85 17.5t69.5 50t38.5 75.5l74 -21q-7 -75 -67.5 -141.5t-159.5 -108t-221 -41.5q-142 0 -246 47.5t-160.5 139.5t-56.5 225z" />
<glyph unicode=":" horiz-adv-x="671" d="M92 219q0 69 32.5 124.5t87.5 89.5t123 34q70 0 125 -34t87.5 -89.5t32.5 -124.5q0 -67 -32.5 -124t-87.5 -91.5t-125 -34.5q-68 0 -123 34.5t-87.5 92t-32.5 123.5zM92 801q0 69 32.5 124.5t87.5 89.5t123 34q70 0 125 -34t87.5 -89.5t32.5 -124.5q0 -67 -32.5 -124 t-87.5 -91.5t-125 -34.5q-68 0 -123 34.5t-87.5 92t-32.5 123.5z" />
<glyph unicode=";" horiz-adv-x="697" d="M87 -379q-6 27 11.5 49t69.5 37q94 28 151 63t82.5 78t25.5 94q0 17 -9 26t-33 9h-61q-110 0 -162.5 59t-52.5 150q0 100 69 168t172 68q113 0 189 -79.5t76 -241.5q0 -104 -26.5 -188.5t-78 -148.5t-128 -107.5t-175.5 -66.5q-54 -12 -84 -2.5t-36 33.5zM105 800 q0 69 32.5 124.5t87.5 89.5t123 34q70 0 125 -34t87.5 -89.5t32.5 -124.5q0 -67 -32.5 -124t-87.5 -91.5t-125 -34.5q-68 0 -123 34.5t-87.5 92t-32.5 123.5z" />
<glyph unicode="&#x3c;" horiz-adv-x="1087" d="M87 700q0 -41 22.5 -72.5t66.5 -54.5l559 -324q51 -26 86.5 -41t70.5 -15q42 0 61.5 22t18.5 56q0 24 -18 51.5t-59 48.5l-589 346v-33l585 345q42 22 60 49t18 50q1 34 -18.5 56t-62.5 22q-35 0 -70 -14.5t-87 -41.5l-555 -324q-44 -23 -66.5 -54.5t-22.5 -71.5z" />
<glyph unicode="=" horiz-adv-x="1174" d="M115 515q0 38 22.5 60t51.5 22h812q30 0 51.5 -22t21.5 -60t-21.5 -59t-51.5 -21h-813q-29 0 -51 21t-22 59zM115 887q0 38 22.5 60t51.5 22h812q30 0 51.5 -22t21.5 -60t-21.5 -59t-51.5 -21h-813q-29 0 -51 21t-22 59z" />
<glyph unicode="&#x3e;" horiz-adv-x="1087" d="M108 1130q0 -24 18 -51.5t59 -48.5l589 -346v33l-585 -345q-42 -22 -60 -49t-18 -50q-1 -34 18.5 -56t62.5 -22q35 0 70 14.5t87 41.5l555 324q44 23 66.5 54.5t22.5 71.5q0 41 -22.5 72.5t-66.5 54.5l-559 324q-51 26 -86.5 41t-70.5 15q-42 0 -61.5 -22t-18.5 -56z" />
<glyph unicode="?" horiz-adv-x="1243" d="M46 1127q0 -102 58.5 -158t154.5 -56q113 0 173 66.5t60 187.5v97q0 59 29 89.5t74 30.5q57 0 82.5 -52.5t25.5 -150.5q0 -138 -20 -214t-84 -103l-74 -30q-61 -26 -81 -61.5t-6 -87.5l24 -85q11 -39 32.5 -56.5t60.5 -17.5q35 0 54.5 16.5t34.5 61.5l23 68 q11 34 26.5 49t49.5 21l74 14q196 36 282.5 125.5t86.5 238.5q0 190 -139.5 290.5t-436.5 100.5q-165 0 -292.5 -52t-199.5 -139t-72 -193zM303 219q0 69 32.5 124.5t87.5 89.5t123 34q70 0 125 -34t87.5 -89.5t32.5 -124.5q0 -67 -32.5 -124t-87.5 -91.5t-125 -34.5 q-68 0 -123 34.5t-87.5 92t-32.5 123.5z" />
<glyph unicode="@" horiz-adv-x="2033" d="M95 568q0 188 69.5 351.5t196 287t300.5 192.5t380 69q187 0 350 -54.5t286 -160t191.5 -257.5t68.5 -347q0 -164 -56.5 -289.5t-164.5 -196.5t-262 -70q-94 1 -165 20.5t-112.5 55.5t-47.5 85l-33 7v616q0 38 -17 64.5t-52 26.5q-29 0 -47.5 -17.5t-18.5 -48.5v-68 q0 -83 -62 -130t-148 -47q-70 0 -124 35t-54 113q0 80 56.5 141t168 95t276.5 34q122 0 216.5 -29.5t149 -93t54.5 -164.5v-457q0 -35 14.5 -54.5t49.5 -19.5q44 0 85 26t74.5 76t53 122.5t19.5 165.5q0 218 -101 375.5t-272.5 242t-385.5 84.5q-174 0 -318.5 -57 t-249.5 -161.5t-161.5 -247.5t-56.5 -315q0 -240 100.5 -420t279 -279.5t410.5 -99.5q188 0 359 58.5t335 207.5q35 32 61.5 38.5t45.5 -11.5q17 -15 11.5 -42.5t-42.5 -67.5q-72 -78 -182.5 -147t-258 -112.5t-330.5 -43.5q-202 0 -373.5 63.5t-298 182.5t-197 289.5 t-70.5 383.5zM538 327q0 126 119 202.5t350 76.5q57 0 87 -6.5t65 -24.5l-32 -71q-22 9 -37.5 14t-41.5 5q-40 0 -70.5 -32t-30.5 -93q0 -62 28.5 -95.5t72.5 -33.5q30 0 53.5 10.5t31.5 29.5l26 -69q-41 -71 -128.5 -109t-184.5 -38q-139 0 -223.5 65t-84.5 169z" />
<glyph unicode="A" horiz-adv-x="1613" d="M29 70q0 23 10.5 38.5t35.5 30.5l21 14q34 20 53 50t41 105l263 847q14 47 14 74q0 7 -1 13q-5 28 -42 45q-29 14 -40.5 32.5t-11.5 44.5q0 33 21.5 51.5t66.5 18.5h658q45 0 66.5 -18.5t21.5 -51.5q0 -28 -12.5 -46t-36.5 -29q-27 -12 -31 -33q-1 -5 -1 -11 q0 -20 12 -55l281 -892q22 -69 39.5 -101t45.5 -46q36 -18 48.5 -36t12.5 -45q0 -32 -21.5 -51t-66.5 -19h-541q-46 0 -67 19t-21 51q0 26 13 41.5t40 27.5l33 16q27 12 22.5 33t-18.5 68l-301 998l43 30l-294 -949q-16 -52 -16.5 -84.5t19 -54.5t62.5 -44l28 -15 q24 -12 38 -26.5t14 -40.5q0 -32 -21 -51t-66 -19h-327q-44 0 -65.5 19t-21.5 51zM364 458l2 152h598l1 -152h-601z" />
<glyph unicode="B" horiz-adv-x="1585" d="M91 70q0 55 53 75l39 15q27 10 40 26t13 41v979q0 26 -13 42t-40 26l-39 14q-53 20 -53 76q0 33 21.5 51.5t66.5 18.5h648q200 0 343.5 -53.5t220 -148.5t76.5 -223q0 -103 -62 -183t-179.5 -125t-285.5 -45l46 42q168 0 294.5 -44.5t197.5 -125t71 -185.5 q0 -154 -132.5 -248.5t-409.5 -94.5h-828q-45 0 -66.5 19t-21.5 51zM581 598v114h214q76 0 126.5 28.5t75.5 88.5t25 152q0 99 -34 170.5t-97 110t-151 38.5h-29v-1045q0 -62 34.5 -92t99.5 -30h52q57 0 98.5 26t64 77t22.5 122q0 113 -62.5 176.5t-174.5 63.5h-264z" />
<glyph unicode="C" horiz-adv-x="1478" d="M61 710q0 165 54.5 304t152.5 242.5t228.5 161t281.5 57.5q95 0 154 -16.5t95 -33.5t62 -17q30 0 48.5 16t38.5 31t51 15q26 0 42.5 -16t27.5 -55l106 -363q9 -32 -8 -57t-48 -33q-13 -3 -26 -3q-20 0 -38 8q-29 13 -44 48q-52 123 -114.5 191t-130.5 95.5t-139 27.5 q-75 0 -133.5 -36t-99.5 -103.5t-62.5 -163.5t-21.5 -215q0 -196 52 -326.5t144.5 -195.5t214.5 -65q106 0 195.5 54.5t147.5 161.5q17 33 38 43t45 5q24 -4 34 -19.5t10 -41.5q0 -81 -42.5 -161t-122 -146t-192.5 -105.5t-254 -39.5q-229 0 -396.5 96t-259 265t-91.5 390z " />
<glyph unicode="D" horiz-adv-x="1713" d="M91 70q0 55 53 75l39 15q27 10 40 26t13 41v979q0 26 -13 42t-40 26l-39 14q-53 20 -53 76q0 33 21.5 51.5t66.5 18.5h636q188 0 342.5 -56.5t265.5 -159.5t171 -243.5t60 -310.5q0 -191 -91.5 -341.5t-257 -236.5t-391.5 -86h-735q-45 0 -66.5 19t-21.5 51zM711 260 q0 -59 30 -86.5t86 -27.5h27q87 0 157.5 53.5t112 168.5t41.5 301q0 146 -27 260.5t-79.5 194.5t-127.5 121.5t-170 41.5h-50v-1027z" />
<glyph unicode="E" horiz-adv-x="1417" d="M91 70q0 55 53 75l39 15q27 10 40 26t13 41v979q0 26 -13 42t-40 26l-39 14q-53 21 -53 76q0 33 21.5 51.5t66.5 18.5h772q47 0 78 9t58 18t63 9q46 0 69.5 -26t41.5 -84l87 -288q11 -37 -0.5 -61.5t-42.5 -35.5q-18 -6 -35 -7q-18 0 -32 7q-30 13 -47 48 q-44 81 -83 132.5t-78.5 80.5t-83 40t-97.5 11h-138v-1016q0 -62 31 -93.5t89 -31.5h49q77 0 135.5 24.5t112 90.5t112.5 191q15 33 41.5 44.5t58.5 5.5q36 -8 52 -34q10 -16 10 -36q0 -14 -4 -29l-95 -329q-16 -56 -40.5 -83.5t-74.5 -27.5q-32 0 -58 9.5t-57.5 18.5 t-78.5 9h-815q-45 0 -66.5 19t-21.5 51zM530 656v144h270q63 0 90.5 25t48.5 97q10 35 29.5 50t45.5 15q54 0 68 -60l80 -323q9 -38 -0.5 -60t-39.5 -32q-29 -10 -54 -3t-42 33q-33 47 -60 71.5t-60.5 33.5t-86.5 9h-289z" />
<glyph unicode="F" horiz-adv-x="1335" d="M91 70q0 55 53 75l39 15q27 10 40 26t13 41v979q0 26 -13 42t-40 26l-39 14q-53 20 -53 76q0 33 21.5 51.5t66.5 18.5h742q47 0 79.5 8t59.5 15.5t54 7.5q49 0 73.5 -24t41.5 -81l90 -311q9 -32 -10 -54t-53 -27q-27 -4 -53 5.5t-44 44.5q-55 111 -107.5 168.5t-107.5 79 t-123 21.5h-110v-1060q0 -26 11.5 -43.5t40.5 -23.5l61 -14q33 -7 47.5 -25t14.5 -51q0 -32 -21.5 -51t-66.5 -19h-619q-45 0 -66.5 19t-21.5 51zM540 613v144h276q65 0 92.5 25.5t53.5 102.5q10 31 28.5 43t42.5 12q59 0 73 -56l80 -326q9 -37 -2.5 -57.5t-37.5 -30.5 q-29 -10 -54 -1.5t-48 38.5q-30 42 -55.5 65t-59.5 32t-88 9h-301z" />
<glyph unicode="G" horiz-adv-x="1607" d="M61 717q0 163 57 301t159 240.5t238 159.5t295 57q103 0 167 -16.5t103.5 -33.5t67.5 -17q30 0 48.5 16t38.5 31t51 15q26 0 43 -16t28 -55l105 -363q9 -32 -7.5 -57t-48.5 -33q-13 -3 -26 -3q-20 0 -38 8q-28 13 -44 48q-52 124 -119 192.5t-141.5 95t-150.5 26.5 q-110 0 -188 -63t-119.5 -179.5t-41.5 -275.5q0 -206 49 -344t135.5 -206.5t198.5 -68.5q26 0 44 7.5t30 21t17.5 32.5t5.5 42v228q0 22 -10.5 33t-41.5 20l-45 13q-32 9 -50 26.5t-18 44.5q0 31 21.5 49t66.5 18h529q46 0 68 -18t22 -48q0 -26 -13.5 -41.5t-40.5 -26.5 l-23 -10q-20 -8 -32.5 -21.5t-12.5 -38.5v-467q0 -41 -20 -61t-61 -20q-34 0 -62 18t-54 41.5t-49 41.5t-45 18q-25 0 -54.5 -18t-71 -41t-101 -41t-144.5 -18q-169 0 -301.5 53.5t-224.5 152.5t-140.5 238.5t-48.5 312.5z" />
<glyph unicode="H" horiz-adv-x="1848" d="M91 70q0 55 53 75l39 15q27 10 40 26t13 41v979q0 26 -13 42t-40 26l-39 14q-53 20 -53 76q0 33 21.5 51.5t66.5 18.5h588q45 0 66.5 -18.5t21.5 -51.5q0 -55 -53 -76l-39 -14q-26 -10 -39 -26t-13 -42v-979q0 -26 13 -41.5t39 -25.5l39 -15q53 -20 53 -75 q0 -32 -21.5 -51t-66.5 -19h-588q-45 0 -66.5 19t-21.5 51zM434 602v153h868v-153h-868zM993 70q0 55 54 75l38 15q27 10 40 26t13 41v979q0 26 -13 42t-40 26l-38 14q-53 20 -54 76q0 33 21.5 51.5t66.5 18.5h588q45 0 66.5 -18.5t21.5 -51.5q0 -55 -53 -76l-39 -14 q-26 -10 -39 -26t-13 -42v-979q0 -26 13 -41.5t39 -25.5l39 -15q53 -20 53 -75q0 -32 -21.5 -51t-66.5 -19h-588q-45 0 -66.5 19t-21.5 51z" />
<glyph unicode="I" horiz-adv-x="946" d="M91 70q0 55 53 75l39 15q27 10 40 26t13 41v979q0 26 -13 42t-40 26l-39 14q-53 20 -53 76q0 33 21.5 51.5t66.5 18.5h588q45 0 66.5 -18.5t21.5 -51.5q0 -55 -53 -76l-39 -14q-26 -10 -39 -26t-13 -42v-979q0 -26 13 -41.5t39 -25.5l39 -15q53 -20 53 -75 q0 -32 -21.5 -51t-66.5 -19h-588q-45 0 -66.5 19t-21.5 51z" />
<glyph unicode="J" horiz-adv-x="1232" d="M52 288q0 104 58.5 168.5t156.5 64.5q86 0 142.5 -60t56.5 -169v-92q0 -53 26 -82.5t79 -29.5q52 0 82 28.5t30 81.5q0 51 -24 97.5t-56.5 101t-56.5 126.5t-24 173v510q0 27 -11.5 44.5t-40.5 23.5l-61 13q-32 7 -47 25t-15 52q0 33 21.5 51.5t66.5 18.5h619 q45 0 66.5 -18.5t21.5 -51.5q0 -55 -53 -76l-39 -14q-26 -10 -39.5 -26t-13.5 -42v-479q0 -82 13.5 -139.5t30.5 -103t30 -91.5t13 -104q0 -146 -140 -236t-387 -90q-238 0 -371.5 86.5t-133.5 238.5z" />
<glyph unicode="K" horiz-adv-x="1772" d="M91 70q0 55 53 75l39 15q27 10 40 26t13 41v979q0 26 -13 42t-40 26l-39 14q-53 20 -53 76q0 33 21.5 51.5t66.5 18.5h588q45 0 66.5 -18.5t21.5 -51.5q0 -55 -53 -76l-39 -14q-26 -10 -39 -26t-13 -42v-979q0 -26 9.5 -41t32.5 -26l28 -15q32 -15 43 -32t11 -43 q0 -32 -21.5 -51t-67.5 -19h-567q-45 0 -66.5 19t-21.5 51zM574 588l518 485q56 51 74 91q11 24 11 44q0 12 -5 24q-12 28 -49 45l-29 13q-27 12 -40 29.5t-13 44.5q0 33 21.5 51.5t66.5 18.5h452q45 0 66.5 -18.5t21.5 -51.5q0 -28 -16 -43t-61 -35q-14 -6 -30 -15.5 t-43.5 -31.5t-75.5 -64.5t-128 -114.5l-677 -609zM776 715l366 303l471 -787q25 -41 43.5 -56.5t38.5 -22.5q28 -14 39.5 -35.5t11.5 -46.5q0 -32 -21.5 -51t-66.5 -19h-579q-45 0 -66.5 19t-21.5 52q0 27 12.5 45t31.5 25l27 11q18 7 17.5 26.5t-24.5 61.5z" />
<glyph unicode="L" horiz-adv-x="1366" d="M91 70q0 55 53 75l39 15q27 10 40 26t13 41v979q0 26 -13 42t-40 26l-39 14q-53 20 -53 76q0 33 21.5 51.5t66.5 18.5h588q45 0 66.5 -18.5t21.5 -51.5q0 -56 -53 -76l-39 -14q-26 -10 -39 -26t-13 -42v-983q0 -43 20.5 -60t58.5 -17h78q54 0 95 15.5t76.5 57t73.5 121.5 l69 143q17 36 43.5 48t60.5 1q36 -10 50 -34q8 -13 7 -30q0 -15 -5 -33l-102 -361q-16 -56 -41 -83.5t-74 -27.5q-27 0 -53.5 9.5t-59.5 18.5t-80 9h-749q-45 0 -66.5 19t-21.5 51z" />
<glyph unicode="M" horiz-adv-x="2020" d="M36 70q0 32 16.5 48.5t42.5 29.5l22 11q32 15 55 41.5t27 74.5l69 871q2 19 2 34q0 34 -8 54q-11 28 -44 40l-39 14q-27 10 -40 28.5t-13 47.5q0 70 88 70h393q63 0 102 -27t70 -109l316 -809l-150 -21l306 827q30 79 68.5 109t106.5 30h398q45 0 66.5 -18.5t21.5 -51.5 q0 -29 -14 -48t-38 -28l-39 -14q-32 -11 -43 -28.5t-9 -53.5l65 -954q2 -38 13 -53.5t36 -24.5l39 -15q24 -8 36 -26.5t12 -44.5q0 -32 -21.5 -53t-66.5 -21h-571q-46 0 -67.5 19t-21.5 51q0 27 11.5 46t41.5 29l40 15q31 11 41.5 28t8.5 51l-76 1012l134 12l-411 -1112 q-29 -78 -59 -99.5t-72 -21.5q-31 0 -56 7t-47 34t-46 87l-421 1065l129 22l-78 -971q-1 -7 -1 -13q1 -39 23 -61q26 -26 62 -47l29 -17q17 -9 27 -24.5t10 -38.5q0 -33 -21 -53t-66 -20h-302q-45 0 -66 19t-21 51z" />
<glyph unicode="N" horiz-adv-x="1582" d="M70 70q0 53 59 78l23 11q46 22 65 49.5t19 86.5v764q0 39 -7.5 60t-33.5 56l-79 105q-23 32 -31.5 50t-8.5 37q0 32 21.5 49.5t56.5 17.5h345q41 0 67 -14t52 -52l663 -931l-61 -181v883q0 57 -16.5 84.5t-67.5 51.5l-22 10q-59 29 -59 79q0 33 21.5 51.5t65.5 18.5h318 q45 0 66.5 -18.5t21.5 -51.5q0 -52 -59 -79l-23 -10q-46 -20 -65 -48t-19 -88v-762q0 -41 7 -73t25 -57l64 -87q27 -35 31.5 -53t4.5 -37q0 -32 -21.5 -51t-56.5 -19h-400q-67 0 -67 52q0 20 -8 38.5t-42 66.5l-666 933l145 91v-887q0 -55 17 -83t67 -52l22 -11 q59 -26 59 -78q0 -32 -21 -50.5t-66 -19.5h-318q-45 1 -66.5 19.5t-21.5 50.5z" />
<glyph unicode="O" d="M62 726q0 157 52.5 293t151 238.5t238 160t314.5 57.5q179 0 321 -55t241.5 -156.5t152 -242t52.5 -313.5q0 -157 -52 -293t-150.5 -238.5t-238 -160t-315.5 -57.5q-178 0 -319.5 55t-241.5 156t-153 242t-53 314zM555 1007q0 -137 22 -269t60 -246.5t86 -201.5t101 -137 t105 -50q56 0 93 37t56 109t19 178q0 137 -22 268.5t-60 246.5t-86 202t-101 136.5t-105 49.5q-55 0 -92.5 -37t-56.5 -108.5t-19 -177.5z" />
<glyph unicode="P" horiz-adv-x="1570" d="M91 70q0 55 53 75l39 15q27 10 40 26t13 41v979q0 26 -13 42t-40 26l-39 14q-53 20 -53 76q0 33 21.5 51.5t66.5 18.5h571q246 0 416.5 -69.5t260 -190.5t89.5 -278q0 -135 -72 -234t-206.5 -153t-322.5 -54q-122 0 -216.5 26.5t-170.5 73.5l16 127q39 -28 74.5 -45 t75 -25.5t87.5 -8.5q76 0 138.5 33.5t100 101.5t37.5 170q0 118 -42 203t-114.5 131t-165.5 46h-24v-1061q0 -26 11.5 -43.5t40.5 -23.5l61 -14q33 -7 47.5 -25t14.5 -51q0 -32 -21.5 -51t-66.5 -19h-619q-45 0 -66.5 19t-21.5 51z" />
<glyph unicode="Q" d="M60 726q0 157 52.5 293t150.5 238.5t238 160t315 57.5q178 0 320 -55t242 -156.5t152.5 -242t52.5 -313.5q0 -157 -52 -293t-150.5 -238.5t-238.5 -160t-315 -57.5q-178 0 -319.5 55t-241.5 156t-153 242t-53 314zM555 1007q0 -136 22 -268t60 -247t86 -202t101 -137 t105 -50q56 0 93 37t56 109.5t19 177.5q0 137 -22 268.5t-60 246.5t-86 202t-101 136.5t-105 49.5q-55 0 -92.5 -37t-56.5 -108.5t-19 -177.5zM834 414q7 30 43 41q14 4 25 4q22 0 37 -13q23 -21 34 -58q39 -123 83 -203t95.5 -125.5t114.5 -64.5t140 -19q58 0 87.5 13 t49 26t45.5 13q20 0 30 -11.5t10 -32.5q0 -15 -5 -33.5t-15 -41.5l-50 -123q-16 -40 -52 -58.5t-105 -18.5q-90 0 -171.5 35.5t-153.5 111.5t-132.5 197t-107.5 292q-6 22 -6 42q0 14 4 27z" />
<glyph unicode="R" horiz-adv-x="1702" d="M91 70q0 55 53 75l39 15q27 10 40 26t13 41v979q0 26 -13 42t-40 26l-39 14q-53 20 -53 76q0 33 21.5 51.5t66.5 18.5h591q253 0 427.5 -63.5t264.5 -176.5t90 -263q0 -93 -44 -171.5t-125 -132.5t-196 -74q-55 -10 -100 -22.5t-90 -21.5t-103 -9q-62 0 -115 8.5t-96 25 t-79 36.5l1 130q28 -19 57.5 -32t65.5 -19t82 -6q122 0 189.5 67t67.5 211q0 111 -41 196t-112.5 134t-162.5 49h-40v-1073q0 -26 9.5 -41t32.5 -26l28 -15q32 -15 43 -32t11 -43q0 -70 -89 -70h-567q-45 0 -66.5 19t-21.5 51zM848 556l460 51l227 -389q18 -32 33 -47.5 t39 -27.5q26 -12 37.5 -29.5t11.5 -43.5q0 -32 -21.5 -51t-66.5 -19h-508q-84 0 -84 70q0 16 6.5 29t23.5 24l12 9q18 14 20.5 27.5t-10.5 39.5z" />
<glyph unicode="S" horiz-adv-x="1328" d="M76 1006q0 132 64.5 234.5t183.5 161t281 58.5q84 0 143 -14t101 -29t73 -15q26 0 45.5 16t42.5 32t58 16q33 0 55.5 -21t38.5 -79l91 -336q4 -17 4 -31q0 -19 -7 -36q-13 -29 -47 -40q-35 -11 -61 2t-43 46q-66 129 -140 203t-149.5 105.5t-145.5 31.5 q-81 0 -125.5 -44.5t-44.5 -115.5q0 -45 22.5 -82.5t93.5 -76.5t214 -89q157 -54 251 -120t136.5 -153.5t42.5 -206.5q0 -126 -66.5 -229t-190 -164t-296.5 -61q-71 0 -122 14.5t-85.5 29t-58.5 14.5q-25 0 -44.5 -10t-38.5 -22t-38.5 -22t-42.5 -10q-32 0 -52 18.5 t-28 61.5l-58 349q-4 30 10 51.5t45 32.5q35 12 61 -0.5t46 -50.5q65 -121 125 -187.5t121 -92.5t126 -26q85 0 136 39.5t51 111.5q0 49 -24.5 86t-97.5 72t-218 77q-160 47 -256 112.5t-139 160.5t-43 228z" />
<glyph unicode="T" horiz-adv-x="1527" d="M47 1019l66 341q15 57 39.5 81t74.5 24q27 0 53.5 -7.5t60 -15.5t80.5 -8h686q47 0 80.5 8t60 15.5t52.5 7.5q50 0 75 -24t40 -81l66 -341q3 -14 3 -27q0 -24 -10 -40q-15 -26 -51 -31q-33 -7 -58 4t-42 46q-60 121 -103 187.5t-81 93.5t-85 27h-53v-1052 q0 -26 13.5 -41.5t39.5 -25.5l39 -15q53 -20 53 -75q0 -70 -88 -70h-588q-45 0 -66.5 19t-21.5 51q0 55 53 75l39 15q27 10 39.5 26t12.5 41v1052h-52q-46 0 -84.5 -27t-81.5 -93.5t-103 -187.5q-17 -35 -42.5 -46.5t-58.5 -3.5q-36 5 -50 31q-10 17 -9 42q0 12 2 25z" />
<glyph unicode="U" horiz-adv-x="1572" d="M86.5 1414.5q21.5 19.5 60.5 19.5h652q40 0 61.5 -19.5t21.5 -51.5t-18 -51t-57 -28l-42 -10q-26 -6 -37.5 -22t-13.5 -46l-35 -552q-4 -62 -5 -115t-1 -88q0 -173 68 -249t188 -76q96 0 165.5 37t107.5 105t38 162q0 73 -2.5 118.5t-5.5 86.5l-38 509q-4 57 -24 88.5 t-62 42.5l-30 8q-40 11 -56.5 29.5t-16.5 50.5t21.5 51.5t59.5 19.5h380q40 0 61.5 -19.5t21.5 -51.5t-18.5 -49.5t-55.5 -29.5l-29 -9q-58 -18 -76 -52q-15 -28 -15 -70q0 -9 1 -20l41 -493q5 -54 7.5 -106.5t2.5 -108.5q0 -132 -64 -237.5t-196 -167t-339 -61.5t-344 57 t-206 161.5t-69 246.5q0 17 1 43.5t4 72.5t8 120l36 545q2 30 -10 45.5t-49 23.5l-40 9q-74 17 -74 78q0 34 21.5 53.5z" />
<glyph unicode="V" horiz-adv-x="1554" d="M34 1364q0 33 21.5 51.5t66.5 18.5h589q46 0 67 -18.5t21 -51.5q0 -26 -13 -41t-41 -28l-33 -15q-27 -12 -34 -38q-2 -8 -2 -17q0 -23 11 -58l297 -902l-130 -119l326 991q10 31 10 55q0 16 -4 30q-12 34 -64 60l-28 14q-26 12 -39.5 26.5t-13.5 41.5q0 33 21 51.5 t66 18.5h324q45 0 66.5 -18.5t21.5 -51.5q0 -24 -13 -39t-39 -29l-30 -14q-38 -18 -63 -52.5t-48 -109.5l-279 -861q-16 -51 -23 -79.5t-7 -58.5v-56q0 -31 -20 -48t-49 -17h-375q-29 0 -48 17t-19 51v55q0 17 -6.5 41.5t-15.5 53.5l-329 972q-13 39 -27.5 57t-40.5 31 l-30 14q-44 23 -44 72z" />
<glyph unicode="W" horiz-adv-x="2295" d="M10 1365q0 32 21 50.5t65 18.5h572q45 0 66 -18.5t21 -50.5q0 -48 -45 -65l-34 -11q-26 -7 -32 -35q-2 -8 -1 -18q0 -23 9 -56l277 -949l-154 -105l312 989l161 -22l-268 -865q-10 -29 -15.5 -56t-5.5 -64v-41q0 -33 -18.5 -50t-46.5 -17h-355q-29 0 -48 17t-19 50v41 q0 20 -3 36t-13 51l-300 1003q-10 37 -25 54t-42 28l-37 15q-23 9 -32.5 28t-9.5 42zM910 1364q0 33 21.5 51.5t65.5 18.5h551q45 0 66 -18.5t21 -51.5q0 -25 -12 -41t-39 -27l-29 -10q-25 -8 -31 -30q-2 -6 -1 -16q0 -23 10 -61l264 -951l-140 -102l281 1021q8 29 8 52 q0 18 -5 34q-11 35 -59 56l-24 11q-22 10 -32 25.5t-10 38.5q0 33 21.5 51.5t65.5 18.5h302q45 0 66 -18.5t21 -51.5q0 -24 -11.5 -38.5t-41.5 -29.5l-28 -14q-39 -19 -64.5 -53t-44.5 -103l-241 -898q-12 -45 -16.5 -68t-4.5 -52v-41q0 -33 -19 -50t-46 -17h-365 q-28 0 -46.5 17t-18.5 50v41q0 17 -3.5 33.5t-14.5 53.5l-286 1003q-14 50 -23.5 65.5t-27.5 22.5l-36 16q-24 10 -34 24.5t-10 37.5z" />
<glyph unicode="X" horiz-adv-x="1544" d="M28 70q0 24 13 40.5t47 34.5q44 24 76.5 50.5t60 59.5t58.5 72l333 425l168 -56l-340 -431q-33 -43 -33 -70q1 -3 1 -7q6 -28 33 -44l15 -7q24 -11 35 -26.5t11 -40.5q0 -32 -20.5 -51t-62.5 -19h-308q-44 0 -65.5 19t-21.5 51zM31 1364q0 33 21.5 51.5t66.5 18.5h608 q46 0 65 -19t19 -51q0 -28 -8.5 -45t-32.5 -26l-28 -9q-25 -8 -26 -26.5t23 -57.5l622 -958q22 -32 37 -49.5t32.5 -27t42.5 -20.5q28 -12 43 -30.5t15 -44.5q0 -32 -21.5 -51t-66.5 -19h-640q-45 0 -66.5 19t-21.5 51q0 30 14 47.5t45 30.5q22 9 30.5 27t3 43t-26.5 56 l-609 934q-13 22 -25 36t-26.5 24.5t-35.5 19.5q-31 15 -42.5 32t-11.5 44zM749 743l314 416q31 41 31 70v5q-3 30 -36 46l-22 10q-20 10 -33.5 28.5t-13.5 45.5q0 33 20 51.5t63 18.5h307q88 0 88 -68q0 -27 -19.5 -46.5t-54.5 -38.5q-37 -19 -68.5 -56.5t-90.5 -114.5 l-316 -412z" />
<glyph unicode="Y" horiz-adv-x="1456" d="M18 1364q0 33 21.5 51.5t66.5 18.5h581q45 0 66.5 -18.5t21.5 -51.5q0 -57 -53 -75l-27 -9q-32 -11 -37 -32q-1 -4 -1 -9q0 -20 16 -56l269 -624l-157 -74l306 654q15 32 15 60q0 13 -4 25q-10 38 -60 58l-23 11q-18 8 -30.5 26t-12.5 45q0 33 21.5 51.5t66.5 18.5h294 q45 0 66 -18.5t21 -51.5q0 -25 -10.5 -40.5t-31.5 -28.5l-17 -9q-19 -10 -36.5 -27t-37.5 -48.5t-47 -90.5l-317 -679l-381 -52l-403 808q-20 42 -34.5 58t-38.5 26l-28 12q-23 10 -34 29t-11 42zM367 70q0 55 53 75l39 15q27 10 39.5 26t12.5 41v304h475v-304 q0 -26 13.5 -41.5t38.5 -25.5l39 -15q53 -20 53 -75q0 -32 -21.5 -51t-66.5 -19h-587q-45 0 -66.5 19t-21.5 51z" />
<glyph unicode="Z" horiz-adv-x="1355" d="M15 69q0 18 9 41.5t27 53.5l749 1228l48 -105h-329q-62 0 -107 -17.5t-81 -60.5t-72 -122l-27 -53q-18 -35 -44.5 -44.5t-54.5 -5.5q-35 5 -51 28q-12 16 -12 41q0 11 2 23l49 284q11 55 37.5 80t77.5 25q27 0 53 -7.5t60 -15.5t80 -8h788q38 0 57.5 -17t19.5 -50 q0 -17 -10 -41t-28 -55l-743 -1220l-242 95h546q47 0 88.5 10.5t79 36.5t70 73.5t63.5 121.5l30 73q14 36 41.5 47t59.5 4q36 -6 50 -32q9 -16 9 -38q0 -12 -3 -26l-76 -342q-12 -54 -38.5 -80t-76.5 -26q-27 0 -53.5 8t-59.5 16t-80 8h-830q-38 0 -57 18.5t-19 50.5z" />
<glyph unicode="[" horiz-adv-x="794" d="M154 -159v1570q0 54 22.5 78.5t76.5 24.5h453q43 0 62 -18.5t19 -47.5q0 -68 -81 -68h-123q-50 0 -73.5 -17.5t-23.5 -62.5v-1348q0 -44 23 -62.5t74 -18.5h123q82 0 81 -68q0 -29 -19 -47t-62 -18h-453q-54 0 -76.5 25t-22.5 78z" />
<glyph unicode="\" horiz-adv-x="1048" d="M11.5 1482q-21.5 -41 0.5 -86q22 -47 55 -110.5t73.5 -136t83 -148t83.5 -150.5t76 -142t61 -121q25 -54 54 -125t59.5 -150.5t61.5 -160.5t60.5 -158.5t56 -143.5t49.5 -113q22 -45 66.5 -56t102.5 16q57 27 78 68t0 87q-23 48 -55.5 111t-73 135t-83 148t-83.5 150.5 t-76.5 141.5t-61.5 121t-54 125t-59 150.5t-61.5 161t-60.5 158.5t-57 143t-49 113q-22 45 -66.5 56t-101.5 -16t-78.5 -68z" />
<glyph unicode="]" horiz-adv-x="815" d="M28 -196q0 68 81 68h123q50 0 73.5 17.5t23.5 62.5v1348q0 44 -23 62.5t-74 18.5h-123q-82 0 -81 68q0 29 19 47t62 18h453q54 0 76.5 -25t22.5 -78v-1570q0 -54 -22.5 -78.5t-76.5 -24.5h-453q-43 0 -62 18.5t-19 47.5z" />
<glyph unicode="^" horiz-adv-x="978" d="M72 803.5q4 -35.5 32 -50.5q34 -17 73.5 -6.5t81.5 64.5l293 479h-118l285 -481q42 -53 82 -64t73 7q28 15 32 50t-20 76l-230 471q-44 74 -79.5 96t-83.5 22q-47 0 -83.5 -22.5t-80.5 -95.5l-236 -468q-25 -42 -21 -77.5z" />
<glyph unicode="_" horiz-adv-x="1072" d="M2 -286q0 42 18 66t57 24h918q39 0 56.5 -24t17.5 -66t-17.5 -66.5t-56.5 -24.5h-918q-39 0 -57 24.5t-18 66.5z" />
<glyph unicode="`" horiz-adv-x="599" d="M62 1376q-8 56 28.5 108t110.5 60q80 11 131.5 -38t86.5 -137l74 -204q11 -20 14 -39t-13 -35q-14 -13 -39 -14.5t-46 7.5l-183 106q-76 39 -115.5 81.5t-48.5 104.5z" />
<glyph unicode="a" horiz-adv-x="1231" d="M56 218q0 140 127 221.5t357 81.5q60 0 105 -8t74 -24l-35 -89q-22 12 -40.5 17.5t-41.5 5.5q-50 0 -79 -33.5t-29 -95.5q0 -66 28.5 -100t75.5 -34q30 0 56 13.5t39 32.5l25 -82q-49 -73 -143 -113t-200 -40q-143 0 -231 71t-88 176zM93 723q0 68 61.5 135.5t185 112.5 t310.5 45q217 0 322.5 -79.5t105.5 -216.5v-490q0 -19 10 -32t30 -13q17 0 28 9.5t20 18.5q7 7 15 12t18 5q17 0 25 -12.5t8 -32.5q0 -45 -33 -94.5t-98 -84.5t-161 -35q-114 0 -186 48t-72 121v24l-33 1v661q0 39 -21 62.5t-57 23.5q-27 0 -46.5 -12.5t-19.5 -34.5v-111 q0 -86 -59 -133.5t-168 -47.5q-93 0 -139 39.5t-46 110.5z" />
<glyph unicode="b" horiz-adv-x="1331" d="M25 1352q0 25 13 39t50 28l227 88q55 22 87 30.5t57 8.5q49 0 73.5 -26t24.5 -66v-1378l-170 -58q-87 -29 -122 -37t-64 -8q-35 0 -56.5 19.5t-21.5 56.5v1176q0 33 -9 46.5t-26 18.5l-22 7q-22 7 -31.5 20.5t-9.5 34.5zM381 184l112 76q47 -68 89 -96t91 -28 q48 0 84.5 35t56.5 111.5t20 201.5q0 115 -21 185t-57 102.5t-83 32.5q-56 0 -103.5 -38.5t-89.5 -124.5l-72 70q88 143 197.5 225t250.5 82q122 0 218 -62.5t152 -172.5t56 -255q0 -167 -68.5 -292t-187.5 -195t-268 -70q-124 0 -216.5 53t-160.5 160z" />
<glyph unicode="c" horiz-adv-x="1141" d="M51 466q0 159 70 283.5t199 196.5t304 72q140 0 242 -42.5t157 -114.5t55 -160q0 -78 -58.5 -132t-157.5 -54q-95 0 -142.5 50.5t-47.5 129.5v33q0 67 -28 105t-73 38q-36 0 -67 -26.5t-50.5 -81t-19.5 -138.5q0 -119 40.5 -199t111 -120.5t160.5 -40.5q66 0 119 16 t105 62q30 27 45 36t29 9q20 0 30 -20.5t10 -50.5q0 -91 -60.5 -170t-169.5 -127.5t-252 -48.5q-157 0 -281 62t-197 173t-73 260z" />
<glyph unicode="d" horiz-adv-x="1352" d="M50 461q0 167 68.5 292.5t187.5 195t268 69.5q125 0 217.5 -53t159.5 -160l-111 -76q-47 68 -89 96t-92 28q-48 0 -84 -35t-56 -111t-20 -202q0 -115 21 -185t57 -102.5t82 -32.5q57 0 104 38.5t89 124.5l73 -69q-87 -142 -197.5 -225t-251.5 -83q-122 0 -218 62.5 t-152 173t-56 254.5zM677 1352q0 25 13 39t50 28l228 88q52 20 84 29.5t63 9.5q46 0 70 -26t24 -66v-1239q0 -41 6.5 -58t21.5 -24l23 -10q24 -10 34 -25.5t10 -36.5q0 -29 -18.5 -45t-59.5 -16h-261q-69 0 -121.5 50t-52.5 119v12l-16 1v1043q0 33 -8.5 46.5t-26.5 18.5 l-22 7q-22 7 -31.5 20.5t-9.5 34.5z" />
<glyph unicode="e" horiz-adv-x="1146" d="M50 466q0 167 66.5 291t194 192.5t307.5 68.5q159 0 265.5 -51.5t160 -140t53.5 -203.5q0 -72 -39 -111.5t-112 -39.5h-607v107h273q56 0 57 53q0 129 -30 184t-79 55q-36 0 -64.5 -26.5t-45.5 -81t-17 -138.5q0 -186 84 -273t229 -87q68 0 123.5 15.5t108.5 62.5 q30 27 45 36t30 9q20 0 30 -20.5t10 -50.5q0 -91 -62 -170t-172 -127.5t-257 -48.5q-157 0 -281.5 62t-197.5 173t-73 260z" />
<glyph unicode="f" horiz-adv-x="935" d="M58 879q0 25 18 40.5t56 15.5h173l-88 -33v31q0 20 -18.5 41.5t-43 49.5t-43 67t-18.5 96q0 139 111.5 224.5t315.5 85.5q130 0 219 -39.5t135 -104.5t46 -141q0 -84 -48.5 -128t-123.5 -44q-86 0 -137.5 50t-51.5 134v84q0 42 -25 62t-63 20q-44 0 -66 -26.5t-22 -74.5 q0 -51 23 -92t57.5 -74.5t68.5 -64.5t57 -61.5t23 -65.5v-57l-45 61h241q32 0 51 -14t19 -39q0 -39 -38 -65.5t-125 -26.5h-67v-574q0 -37 11 -56.5t38 -22.5l106 -13q31 -3 43.5 -20.5t12.5 -41.5q0 -62 -75 -62h-637q-34 0 -53.5 16t-19.5 43q0 26 13 42t43 25l27 8 q33 10 45 28.5t12 51.5v512q0 19 -10 33.5t-40 27.5l-38 18q-39 18 -54 35t-15 39z" />
<glyph unicode="g" horiz-adv-x="1265" d="M44 -291q0 -63 46 -111t162 -74t322 -26q338 0 514.5 101.5t176.5 259.5q0 90 -47 149t-149 93.5t-271 51.5q-140 14 -201.5 24t-76.5 19.5t-15 18.5t8 17t26 14l-11 20q-140 -3 -219.5 -33t-112.5 -77.5t-33 -105.5q0 -57 31.5 -96.5t115.5 -66t242 -45.5 q127 -15 199.5 -29t103 -33t30.5 -49q0 -32 -20 -53.5t-70.5 -32.5t-143.5 -11q-161 0 -222 47t-61 128q0 20 5.5 39t13.5 28l-7 32q-194 -22 -265 -74.5t-71 -124.5zM73 603q0 -103 61 -186.5t179 -131.5t288 -48q180 0 308.5 51t197.5 143t69 214q0 104 -61 187 t-179 131.5t-289 48.5q-179 0 -308 -51.5t-197.5 -143.5t-68.5 -214zM508 760v10q0 53 14 83q16 33 49 39q7 1 14 1q41 0 72 -51q36 -59 63 -195q19 -98 19 -161q0 -24 -3 -44q-10 -68 -60 -78q-7 -1 -13 -1q-26 0 -47 18q-27 23 -48.5 80t-40.5 147q-17 91 -19 152z M774 910l93 -6q33 82 56.5 112t62.5 30q38 0 58.5 -17.5t36.5 -41t39 -41t67 -17.5q63 0 102 47.5t39 125.5q0 85 -50 130t-129 45q-101 0 -191 -67.5t-147 -209.5z" />
<glyph unicode="h" horiz-adv-x="1406" d="M55 1352q0 25 13.5 39t50.5 28l227 88q52 20 84.5 29.5t63.5 9.5q46 0 70 -26t24 -66v-1239q0 -41 6 -57.5t21 -24.5l21 -11q34 -19 34 -56q0 -66 -79 -66h-454q-41 0 -59.5 16.5t-18.5 44.5q0 20 10.5 36t33.5 26l23 10q15 7 21.5 24t6.5 58v1010q0 33 -9 46.5t-26 18.5 l-23 7q-22 7 -31.5 20.5t-9.5 34.5zM489 741l31 29q144 134 246.5 191t189.5 57q133 0 208.5 -91t88.5 -237l46 -475q4 -41 8.5 -58t19.5 -24l23 -10q24 -10 34 -25.5t10 -36.5q0 -29 -18.5 -45t-59.5 -16h-459q-79 0 -79 66q0 37 34 56l21 11q15 8 23 24.5t4 57.5l-39 414 q-6 66 -31 98.5t-77 32.5q-32 0 -65.5 -14t-60.5 -38l-36 -32z" />
<glyph unicode="i" horiz-adv-x="720" d="M55 823q0 25 13.5 39.5t50.5 28.5l227 88q55 22 87 30.5t56 8.5q49 0 74 -26t25 -66v-711q0 -41 6 -58t21 -24l23 -10q24 -10 34 -25.5t10 -36.5q0 -29 -18.5 -45t-59.5 -16h-467q-41 0 -59.5 16.5t-18.5 44.5q0 20 10.5 36t33.5 26l23 10q15 7 21.5 24t6.5 58v481 q0 33 -9 47t-26 19l-23 7q-22 7 -31.5 20.5t-9.5 33.5zM100 1307q0 91 66.5 143t181.5 52t181.5 -52t66.5 -143q0 -92 -66.5 -145.5t-181.5 -53.5t-181.5 53t-66.5 146z" />
<glyph unicode="j" horiz-adv-x="720" d="M-99 -208q0 94 51.5 141t138.5 47q84 0 133.5 -54.5t49.5 -142.5v-77q0 -39 21 -57.5t57 -18.5q40 0 61.5 22.5t21.5 68.5q0 50 -28.5 97.5t-70.5 94.5t-83.5 93.5t-70 95.5t-28.5 100v494q0 33 -9 47t-26 19l-23 7q-22 7 -31.5 20.5t-9.5 33.5q0 25 13.5 39.5t50.5 28.5 l227 88q56 22 88 30.5t58 8.5q48 0 72 -26t24 -66v-645q0 -59 19 -114t43 -108.5t43 -107t19 -111.5q0 -145 -108.5 -231t-296.5 -86q-136 0 -226 37.5t-135 98.5t-45 133zM100 1307q0 91 66.5 143t181.5 52t181.5 -52t66.5 -143q0 -92 -66.5 -145.5t-181.5 -53.5t-181.5 53 t-66.5 146z" />
<glyph unicode="k" horiz-adv-x="1355" d="M55 1352q0 25 13.5 39t50.5 28l227 88q52 20 84.5 29.5t63.5 9.5q46 0 70 -26t24 -66v-1239q0 -41 6 -57.5t21 -24.5l21 -11q34 -19 34 -56q0 -66 -79 -66h-454q-41 0 -59.5 16.5t-18.5 44.5q0 20 10.5 36t33.5 26l23 10q15 7 21.5 24t6.5 58v1010q0 33 -9 46.5t-26 18.5 l-23 7q-22 7 -31.5 20.5t-9.5 34.5zM462 446l385 310q32 26 32 53q0 33 -41 50l-26 11q-20 9 -28 22t-8 34q0 29 20 45t54 16h399q35 0 55 -16t20 -42q0 -27 -16 -45t-69 -32q-54 -15 -102 -42t-117 -81l-505 -393zM608 490l281 256l371 -553q16 -24 30 -37.5t32 -26.5 q24 -16 37.5 -34t13.5 -39q0 -26 -20 -41t-54 -15h-481q-30 0 -47.5 16.5t-17.5 43.5q0 17 7 29t23 23l20 11q16 9 17.5 26t-21.5 52z" />
<glyph unicode="l" horiz-adv-x="720" d="M55 1352q0 25 13.5 39t50.5 28l227 88q55 22 87 30.5t56 8.5q49 0 74 -26t25 -66v-1239q0 -41 6 -58t21 -24l23 -10q24 -10 34 -25.5t10 -36.5q0 -29 -18.5 -45t-59.5 -16h-467q-41 0 -59.5 16.5t-18.5 44.5q0 20 10.5 36t33.5 26l23 10q15 7 21.5 24t6.5 58v1010 q0 33 -9 46.5t-26 18.5l-23 7q-22 7 -31.5 20.5t-9.5 34.5z" />
<glyph unicode="m" horiz-adv-x="2069" d="M55 823q0 25 13.5 39.5t50.5 28.5l227 88q52 20 84.5 29.5t63.5 9.5q46 0 70 -26t24 -66v-711q0 -41 6 -57.5t21 -24.5l21 -11q34 -19 34 -56q0 -66 -79 -66h-454q-41 0 -59.5 16.5t-18.5 44.5q0 20 10.5 36t33.5 26l23 10q15 7 21.5 24t6.5 58v481q0 33 -9 47t-26 19 l-23 7q-22 7 -31.5 20.5t-9.5 33.5zM489 741l31 29q144 138 248 193t194 55q137 0 218.5 -90.5t81.5 -237.5v-475q0 -41 6 -57.5t21 -24.5l21 -11q33 -18 33 -54q0 -68 -78 -68h-441q-79 0 -79 66q0 37 34 56l21 11q15 8 21 24.5t6 57.5v414q0 66 -27.5 98.5t-81.5 32.5 q-34 0 -68.5 -13.5t-62.5 -38.5l-36 -32zM1163 741l31 29q142 133 242 190.5t184 57.5q133 0 208.5 -91t88.5 -237l46 -475q4 -41 8 -58t20 -24l22 -10q24 -10 34 -25.5t10 -36.5q0 -29 -18.5 -45t-59.5 -16h-458q-79 0 -79 66q0 37 34 56l20 11q15 8 23.5 24.5t4.5 57.5 l-39 414q-6 66 -31.5 98.5t-77.5 32.5q-29 0 -59 -14.5t-56 -37.5l-36 -32z" />
<glyph unicode="n" horiz-adv-x="1405" d="M55 823q0 25 13.5 39.5t50.5 28.5l227 88q52 20 84.5 29.5t63.5 9.5q46 0 70 -26t24 -66v-711q0 -41 6 -57.5t21 -24.5l21 -11q34 -19 34 -56q0 -66 -79 -66h-454q-41 0 -59.5 16.5t-18.5 44.5q0 20 10.5 36t33.5 26l23 10q15 7 21.5 24t6.5 58v481q0 33 -9 47t-26 19 l-23 7q-22 7 -31.5 20.5t-9.5 33.5zM489 741l31 29q144 134 246.5 191t189.5 57q133 0 208.5 -91t88.5 -237l46 -475q4 -41 8.5 -58t19.5 -24l23 -10q24 -10 34 -25.5t10 -36.5q0 -29 -18.5 -45t-59.5 -16h-459q-79 0 -79 66q0 37 34 56l21 11q15 8 23 24.5t4 57.5l-39 414 q-6 66 -31 98.5t-77 32.5q-32 0 -65.5 -14t-60.5 -38l-36 -32z" />
<glyph unicode="o" horiz-adv-x="1276" d="M51 499q0 148 76 265.5t209.5 185.5t309.5 68q174 0 304 -66t202.5 -185t72.5 -277q0 -145 -76 -262.5t-209.5 -187t-309.5 -69.5q-174 0 -304 67t-202.5 186t-72.5 275zM478 684q2 -86 30 -218q27 -126 60.5 -206.5t71.5 -114.5q30 -27 64 -27q9 0 17 2q39 9 59 54 q19 41 19 116v15q-2 86 -31 218q-27 127 -60 207t-72 115q-30 27 -61 27q-10 0 -20 -3q-39 -9 -59 -54q-18 -40 -19 -112q1 -10 1 -19z" />
<glyph unicode="p" horiz-adv-x="1361" d="M55 823q0 25 13.5 37.5t50.5 29.5l207 89q50 22 82.5 30.5t59.5 8.5q50 0 74.5 -26t24.5 -66v-92l21 -39v-1057q0 -41 6 -58t21 -24l23 -10q24 -10 34 -25.5t10 -36.5q0 -29 -18.5 -45t-59.5 -16h-467q-41 0 -59.5 16.5t-18.5 44.5q0 20 10.5 35.5t33.5 26.5l23 10 q15 7 21.5 24t6.5 58v958q0 33 -9 47t-26 19l-23 7q-22 7 -31.5 20.5t-9.5 33.5zM412 184l111 76q47 -68 89 -96t91 -28q48 0 84.5 35t56.5 111.5t20 201.5q0 115 -21 185t-56.5 102.5t-83.5 32.5q-56 0 -103 -38.5t-89 -124.5l-73 70q88 143 197.5 225t251.5 82 q122 0 218 -62.5t152 -172.5t56 -255q0 -167 -68.5 -292t-187.5 -195t-269 -70q-124 0 -216.5 53t-159.5 160z" />
<glyph unicode="q" horiz-adv-x="1333" d="M51 461q0 167 68.5 292.5t187.5 195t268 69.5q125 0 217.5 -53t159.5 -160l-111 -76q-47 68 -89 96t-92 28q-48 0 -84 -35t-56 -111t-20 -202q0 -115 21 -185t57 -102.5t82 -32.5q57 0 104 38.5t89 124.5l73 -69q-87 -142 -197.5 -225t-251.5 -83q-122 0 -218 62.5 t-152 172.5t-56 255zM682 -416q0 20 10 35.5t34 26.5l23 10q15 7 21 24t6 58v1175l170 58q79 27 117.5 36t62.5 9q40 0 62 -19.5t22 -56.5v-1202q0 -41 6.5 -58t21.5 -24l23 -10q24 -10 34 -25.5t10 -36.5q0 -29 -18.5 -45t-59.5 -16h-467q-41 0 -59.5 16.5t-18.5 44.5z" />
<glyph unicode="r" horiz-adv-x="1095" d="M55 819q0 25 14 39.5t50 28.5l220 86q73 29 104.5 37t49.5 8q29 0 44 -21t22 -71l29 -214v-497q0 -36 10 -50.5t47 -22.5l78 -15q31 -6 45 -21.5t14 -43.5q0 -30 -20 -46t-59 -16h-566q-41 0 -59.5 16.5t-18.5 44.5q0 20 10.5 36t33.5 26l23 10q15 7 21.5 24t6.5 58v477 q0 33 -9 47t-26 19l-23 7q-22 7 -31.5 20.5t-9.5 33.5zM548 559q0 157 41 259t109 151t149 49q109 0 166.5 -65t57.5 -196q0 -134 -53.5 -197.5t-139.5 -63.5q-87 0 -131 44.5t-44 123.5v43q-1 27 -11.5 40.5t-33.5 13.5q-20 0 -36 -18t-25 -58.5t-9 -109.5z" />
<glyph unicode="s" horiz-adv-x="1095" d="M61 662q0 167 116.5 261.5t343.5 94.5q78 0 124.5 -12.5t75 -24.5t50.5 -12q26 0 39.5 12t28.5 24.5t43 12.5q22 0 39 -14.5t28 -53.5l53 -181q12 -39 12 -66q0 -10 -2 -19q-6 -32 -39 -44t-57 -1t-48 45q-46 69 -97 114t-106.5 67.5t-115.5 22.5q-69 0 -103 -25.5 t-34 -68.5q0 -27 13.5 -46.5t56.5 -35.5t128 -31q150 -27 237 -76.5t125 -122t38 -171.5q0 -102 -55.5 -179t-151 -119t-218.5 -42q-76 0 -119.5 13t-71 26t-54.5 13t-46.5 -13t-37.5 -26t-43 -13q-23 0 -38 16.5t-22 56.5l-32 175q-5 28 -5 48q0 19 4 31q8 26 37 38 q32 13 56.5 -0.5t49.5 -49.5q71 -101 143.5 -143t142.5 -42q58 0 86.5 26t28.5 61q0 22 -8.5 41t-38 35t-94.5 26q-190 32 -290 84.5t-136 124.5t-36 163z" />
<glyph unicode="t" horiz-adv-x="905" d="M20 926q0 30 20 45.5t52 14.5h56q19 0 36.5 11t43.5 37l167 169q34 34 63 50.5t56 16.5q30 0 47 -19.5t17 -56.5v-821q0 -75 25.5 -114t73.5 -39q39 0 60 19.5t33.5 44.5t27 44.5t39.5 19.5q20 0 32.5 -14.5t12.5 -48.5q0 -87 -50.5 -158.5t-138.5 -113.5t-200 -42 q-167 0 -258.5 80.5t-91.5 243.5v492q0 30 -10.5 43.5t-34.5 23.5l-32 13q-23 9 -34.5 23.5t-11.5 35.5zM428 842v144h374q32 0 50.5 -13.5t18.5 -38.5q0 -39 -37.5 -65.5t-124.5 -26.5h-281z" />
<glyph unicode="u" horiz-adv-x="1382" d="M35 823q0 25 13 39.5t50 28.5l228 88q55 22 86.5 30.5t56.5 8.5q49 0 73.5 -26t24.5 -66v-566q0 -66 30.5 -98.5t84.5 -32.5q34 0 71 13.5t65 39.5l36 31l61 -65l-30 -29q-144 -138 -251 -193t-196 -55q-136 0 -220.5 91.5t-84.5 236.5v397q0 33 -8.5 47t-26.5 19l-22 7 q-22 7 -31.5 20.5t-9.5 33.5zM696 823q0 25 13.5 39.5t50.5 28.5l227 88q52 20 84.5 29.5t63.5 9.5q46 0 70 -26t24 -66v-711q0 -41 6 -58t21 -24l23 -10q24 -10 34 -25.5t10 -36.5q0 -29 -18.5 -45t-59.5 -16h-251q-73 0 -128.5 62.5t-55.5 147.5v13h-15v473q0 33 -9 47 t-26 19l-23 7q-22 7 -31.5 20.5t-9.5 33.5z" />
<glyph unicode="v" horiz-adv-x="1196" d="M-1 926q0 29 20 45t55 16h551q73 0 73 -59q0 -25 -11.5 -38.5t-38.5 -22.5l-27 -8q-41 -11 -51 -39q-3 -7 -2 -18q0 -28 19 -77l200 -524l-98 -59l210 583q18 49 18 77q-1 10 -3 18q-10 28 -49 39l-27 8q-26 8 -38.5 22t-12.5 37q0 29 20 45t54 16h265q35 0 55 -16.5 t20 -44.5q0 -19 -9 -34t-36 -25l-19 -7q-18 -7 -35.5 -38t-44.5 -102l-247 -638q-19 -49 -54 -65.5t-74 -16.5h-166q-43 0 -74.5 22t-51.5 69l-286 696q-15 37 -24 50t-21 18l-21 10q-20 10 -29.5 24t-9.5 37z" />
<glyph unicode="w" horiz-adv-x="1822" d="M-1 926q0 29 20 45t55 16h518q34 0 54 -16.5t20 -44.5q0 -23 -12 -36.5t-39 -22.5l-27 -8q-23 -7 -27 -31q-1 -3 -1 -7q0 -26 21 -86l175 -514l-106 -81l240 640l124 -79l-243 -619q-19 -49 -53.5 -65.5t-73.5 -16.5h-156q-44 0 -76 20.5t-51 70.5l-257 696 q-13 38 -23 50.5t-22 17.5l-21 10q-20 10 -29.5 24t-9.5 37zM717 926q0 61 75 61h505q74 0 74 -61q0 -23 -11 -38t-32 -19l-45 -8q-23 -4 -25 -31q0 -3 -1 -6q0 -28 20 -88l166 -515l-95 -81l177 568q24 74 24 106v7q-3 31 -29 38l-28 8q-26 8 -38 22t-12 37q0 29 20 45 t54 16h237q35 0 55 -16.5t20 -44.5q0 -19 -9.5 -34t-35.5 -25l-20 -7q-18 -7 -34 -38t-40 -102l-220 -638q-16 -48 -52 -65t-75 -17h-149q-43 0 -76.5 21t-50.5 70l-244 696q-13 38 -23.5 50.5t-21.5 17.5l-21 10q-20 10 -29.5 24t-9.5 37z" />
<glyph unicode="x" horiz-adv-x="1229" d="M23 63q0 20 11 35.5t40 31.5q35 16 63 39.5t59.5 59.5t75.5 92l174 226l114 -55l-172 -229q-30 -40 -30 -72q0 -5 1 -11q6 -36 37 -50l20 -9q20 -10 30.5 -23.5t10.5 -34.5q0 -29 -20.5 -45.5t-55.5 -16.5h-284q-35 0 -54.5 17t-19.5 45zM31 924q0 30 20.5 46.5 t56.5 16.5h524q35 0 55.5 -16.5t20.5 -45.5q0 -19 -7.5 -32.5t-21.5 -24.5l-20 -13q-16 -11 -15 -25.5t19 -41.5l161 -228l18 -20l241 -323q32 -41 51 -61t37 -31q22 -13 32 -27.5t10 -35.5q0 -29 -20.5 -45.5t-55.5 -16.5h-538q-37 0 -57.5 17t-20.5 46q0 20 9 33.5 t26 20.5l21 8q22 8 21.5 25t-21.5 47l-162 231l-19 23l-226 327q-24 35 -47 52t-46 27q-27 11 -36.5 26.5t-9.5 40.5zM664 497l172 228q31 40 31 72q0 5 -1 11q-6 36 -39 50l-19 9q-20 10 -30.5 24t-10.5 34q0 30 20.5 46t55.5 16h283q36 0 55.5 -16.5t19.5 -45.5 q0 -20 -11 -35.5t-40 -31.5q-51 -24 -91.5 -65.5t-107.5 -124.5l-174 -227z" />
<glyph unicode="y" horiz-adv-x="1243" d="M-1 926q0 29 20 45t55 16h551q34 0 53.5 -16.5t19.5 -44.5q0 -23 -11.5 -36.5t-38.5 -22.5l-27 -8q-41 -12 -49 -39q-1 -6 -1 -13q0 -29 23 -82l231 -524l-237 -384l-470 968q-17 37 -34.5 52t-45.5 28q-20 10 -29.5 24t-9.5 37zM18 -198q0 86 44 136t118 50 q73 0 111 -41t67 -110l22 -49q14 -34 33 -53.5t40 -19.5q19 0 36 12t41.5 54t63.5 131l29 65l55 104l250 624q21 52 21 84q0 9 -1 16q-8 34 -50 47l-34 11q-26 8 -38.5 24t-12.5 39q0 29 20 45t54 16h288q35 0 54.5 -16.5t19.5 -44.5q0 -18 -10.5 -33t-35.5 -29 q-38 -19 -64.5 -49t-53.5 -96l-312 -757q-73 -176 -131.5 -271t-127.5 -131.5t-171 -36.5q-148 0 -236.5 79.5t-88.5 199.5z" />
<glyph unicode="z" horiz-adv-x="1085" d="M46 66q0 22 10.5 47.5t35.5 62.5l518 765l72 -80h-176q-60 0 -103 -12t-78 -46t-73 -98l-47 -80q-14 -25 -36.5 -34t-51.5 -1q-27 8 -39.5 30.5t-5.5 56.5l54 278q6 31 23.5 47t46.5 16q31 0 61.5 -15.5t92.5 -15.5h588q60 0 85.5 -16.5t25.5 -48.5q0 -22 -10.5 -48 t-36.5 -63l-518 -766l-51 81h136q75 0 125 16.5t92 60.5t93 127l34 57q17 30 41.5 38.5t51.5 3.5q30 -6 41.5 -26t5.5 -54l-61 -317q-6 -32 -23.5 -46.5t-45.5 -14.5q-31 0 -62 14.5t-94 14.5h-610q-60 0 -85.5 16.5t-25.5 49.5z" />
<glyph unicode="{" horiz-adv-x="878" d="M92 627q0 54 30.5 93.5t80.5 39.5q41 0 61.5 -16.5t40 -33t55.5 -16.5q43 0 66.5 21.5t23.5 59.5q0 42 -36 86t-83 97t-83 120t-36 155q0 81 47.5 144.5t145.5 101t249 37.5h102q54 0 75.5 -19.5t21.5 -46.5q0 -68 -82 -68h-44q-79 0 -121 -46.5t-42 -132.5q0 -47 26 -94 t60.5 -94.5t60.5 -96t26 -97.5q0 -75 -67.5 -118t-183.5 -43q-39 1 -39 -33t39 -34q116 0 183.5 -42.5t67.5 -118.5q0 -49 -26 -97t-60.5 -96t-60.5 -95t-26 -94q0 -86 42 -132.5t121 -46.5h44q82 0 82 -68q0 -27 -21.5 -46t-75.5 -19h-102q-152 0 -249.5 37.5t-145 101.5 t-47.5 143q0 88 36 155.5t83 120t83 96.5t36 86q0 39 -23.5 60t-66.5 21q-37 0 -56 -16.5t-39.5 -32.5t-61.5 -16q-50 0 -80.5 39t-30.5 94z" />
<glyph unicode="|" horiz-adv-x="672" d="M205 -181q0 58 5.5 138.5t13.5 171t16.5 182t14 174t5.5 143.5q0 77 -8 184.5t-19.5 223.5t-19.5 221.5t-8 179.5q0 65 32.5 100.5t98.5 35.5t98.5 -36t32.5 -100q0 -58 -5.5 -138.5t-14 -171.5t-16.5 -182.5t-13.5 -173.5t-5.5 -143q0 -77 8 -184.5t19.5 -224t19.5 -222 t8 -178.5q0 -65 -33 -100.5t-98 -35.5q-66 0 -98.5 35.5t-32.5 100.5z" />
<glyph unicode="}" horiz-adv-x="878" d="M26 -197q0 68 82 68h44q79 0 121 46.5t42 132.5q0 47 -26 94t-60.5 94.5t-60.5 96t-26 97.5q0 75 67.5 118t183.5 43q39 -1 39 33t-39 34q-116 0 -183.5 42.5t-67.5 118.5q0 49 26 97t60.5 96t60.5 95t26 94q0 86 -42 132.5t-121 46.5h-44q-82 0 -82 68q0 27 21.5 46 t75.5 19h102q152 0 249.5 -37.5t145 -101.5t47.5 -143q0 -88 -36 -155.5t-83 -120t-83 -96.5t-36 -86q0 -39 23.5 -60t66.5 -21q37 0 56 16.5t39.5 32.5t61.5 16q50 0 80.5 -39t30.5 -94q0 -54 -30.5 -93.5t-80.5 -39.5q-41 0 -61.5 16.5t-40 33t-55.5 16.5 q-43 0 -66.5 -21.5t-23.5 -59.5q0 -42 36 -86t83 -97t83 -120t36 -155q0 -81 -47.5 -144.5t-145.5 -101t-249 -37.5h-102q-54 0 -75.5 19.5t-21.5 46.5z" />
<glyph unicode="~" horiz-adv-x="1319" d="M94 598q0 79 42 147.5t113.5 110.5t158.5 42q86 0 157 -29.5t131 -68t110.5 -68.5t94.5 -30q62 0 106 32.5t54 98.5q13 36 36 52.5t50 16.5q80 0 80 -92q0 -83 -42.5 -150t-114 -107t-158.5 -40q-66 0 -130 29.5t-126 68t-121.5 68.5t-114.5 30q-63 0 -107 -37t-58 -107 q-10 -28 -32 -43t-50 -15q-79 0 -79 91z" />
<glyph unicode="&#xa1;" horiz-adv-x="665" d="M79 -144q0 30 5.5 65.5t16.5 78.5l150 551q13 50 33 74.5t56 24.5t55 -24t34 -75l149 -551q11 -43 17 -78.5t6 -65.5q0 -101 -64 -161.5t-197 -60.5q-134 0 -197.5 60.5t-63.5 161.5zM96 957q0 67 32.5 124t87.5 91.5t125 34.5q68 0 123 -34.5t87 -92t32 -123.5 q0 -69 -32 -124.5t-87.5 -89.5t-122.5 -34q-70 0 -125 34t-87.5 89.5t-32.5 124.5z" />
<glyph unicode="&#xa2;" horiz-adv-x="1128" d="M50 467q0 154 69.5 273t197 187.5t298.5 68.5q144 0 247 -38.5t157 -105.5t54 -149q0 -80 -47.5 -132t-129.5 -52q-85 0 -130 56.5t-45 151.5v58q0 52 -33.5 81t-88.5 29q-47 0 -87.5 -32.5t-65 -96.5t-24.5 -160q0 -120 38.5 -200t104.5 -121t148 -41q80 0 133.5 29.5 t102.5 83.5q24 16 36 23t24 6q17 -1 28 -13t10 -38q-4 -94 -63.5 -169.5t-162.5 -119.5t-238 -44q-152 0 -273 56.5t-190.5 160.5t-69.5 248zM544 -119q0 35 1.5 78.5t4 98.5t4.5 123.5t3.5 152.5t1.5 185q0 92 -2 168t-4 138t-4 111.5t-3.5 89.5t-1.5 72q0 27 15 41.5 t41 14.5q20 0 34.5 -14.5t14.5 -44.5q0 -32 -1.5 -71.5t-4 -88.5t-5 -110.5t-4 -137.5t-1.5 -168q0 -101 2 -184.5t4 -152t4.5 -124t4 -100t1.5 -80.5q0 -28 -14.5 -42.5t-39.5 -14.5q-20 0 -35.5 14t-15.5 46z" />
<glyph unicode="&#xa3;" horiz-adv-x="1370" d="M63 172q0 78 37.5 142t111 102.5t179.5 38.5q82 0 153.5 -11t138 -25.5t131 -25t130.5 -10.5q94 0 148.5 27.5t84.5 87.5q11 17 31 29.5t42 12.5q20 -1 36 -16.5t16 -44.5q-3 -179 -51.5 -292t-133 -167t-196.5 -54q-68 0 -126.5 22.5t-106 78t-86.5 154.5q-16 39 -29 55 t-38 16q-16 0 -29 -18t-16 -65q-2 -84 -28.5 -138t-76 -79.5t-122.5 -25.5q-100 0 -150 58t-50 148zM134 665q0 19 15 31t34 14l230 15l95 -99h-324q-22 0 -36 11t-14 28zM157 1035q0 127 68 224.5t207.5 152t353.5 54.5q175 0 288.5 -53t168 -140.5t54.5 -193.5 q0 -109 -55.5 -169t-156.5 -60q-102 0 -166.5 65.5t-64.5 182.5v138q0 71 -25 105.5t-71 34.5q-63 0 -93 -62t-30 -202q0 -57 3.5 -115t7.5 -115.5t7 -113t2 -108.5q-1 -85 -28 -158.5t-102 -115.5l-106 6q33 26 47.5 51.5t14.5 54.5q0 46 -32.5 91.5t-81 93.5t-97 101.5 t-81 115.5t-32.5 135zM586 710h353q20 0 32 -12.5t12 -29.5q0 -42 -44 -42h-350z" />
<glyph unicode="&#xa4;" horiz-adv-x="1231" d="M110 275.5q-5 -35.5 26 -63.5q29 -27 67.5 -21.5t66.5 30.5l183 186l-127 115l-181 -185q-30 -26 -35 -61.5zM110.5 1093q5.5 -35 34.5 -62l181 -185l127 116l-183 185q-29 27 -67 31.5t-67 -22.5q-31 -28 -25.5 -63zM222 686q0 -113 53.5 -196.5t142 -130t197.5 -46.5 q110 0 200 46.5t143.5 130t53.5 196.5q0 114 -53.5 197t-143 128.5t-199.5 45.5q-109 0 -198 -45.5t-142.5 -128.5t-53.5 -197zM392 686q0 69 27 124t78 88.5t120 33.5q70 0 121.5 -33.5t79.5 -88.5t28 -124q0 -68 -28 -123.5t-79.5 -89t-121.5 -33.5t-120.5 33.5t-77.5 89 t-27 123.5zM778 402l181 -184q30 -27 69.5 -31.5t68.5 23.5q31 27 25 61t-35 61l-182 185zM778 966l127 -115l182 185q29 27 35 61.5t-25 60.5q-29 28 -68.5 23.5t-69.5 -31.5z" />
<glyph unicode="&#xa5;" horiz-adv-x="1453" d="M35 1364q0 33 21.5 51.5t66.5 18.5h549q45 0 66.5 -18.5t21.5 -51.5q0 -53 -53 -76l-26 -8q-44 -18 -43.5 -38t20.5 -59l265 -624l-141 -74l294 654q20 48 10 85.5t-58 57.5l-23 11q-18 8 -30.5 26t-12.5 45q0 33 21 51.5t66 18.5h286q45 0 66.5 -18.5t21.5 -51.5 q0 -25 -10.5 -40t-32.5 -29l-15 -9q-18 -11 -36 -27.5t-38.5 -48t-48.5 -90.5l-315 -679l-360 -52l-387 808q-19 36 -31.5 53.5t-40.5 30.5l-28 12q-23 10 -34 29t-11 42zM174 486q0 20 13 32.5t32 12.5h1029q22 0 34.5 -12t12.5 -33q0 -45 -47 -45h-1031q-43 0 -43 45z M174 737q0 20 13 32.5t32 12.5h472l40 -90h-514q-43 0 -43 45zM367 70q0 50 53 75l40 15q31 13 41 30.5t10 36.5v304l450 5v-309q0 -22 12 -39t40 -28l39 -15q53 -26 53 -75q0 -32 -21.5 -51t-66.5 -19h-562q-45 0 -66.5 19t-21.5 51zM968 692l32 90h248q22 0 34.5 -12 t12.5 -33q0 -45 -47 -45h-280z" />
<glyph unicode="&#xa6;" horiz-adv-x="706" d="M205 -183q0 55 8 135t19.5 167.5t19.5 168.5t8 139q0 56 18.5 80.5t57.5 24.5q35 0 55.5 -25.5t20.5 -79.5q0 -58 8 -139t19.5 -168.5t19.5 -167.5t8 -135q0 -65 -33 -100.5t-98 -35.5q-66 0 -98.5 35.5t-32.5 100.5zM205 1437q0 65 32.5 100.5t98.5 35.5t98.5 -36 t32.5 -100q0 -55 -8 -135t-19.5 -167.5t-19.5 -169t-8 -139.5q0 -56 -18.5 -80.5t-57.5 -24.5q-35 0 -55.5 25.5t-20.5 79.5q0 58 -8 139.5t-19.5 169t-19.5 167t-8 135.5z" />
<glyph unicode="&#xa7;" horiz-adv-x="1268" d="M125 432q0 103 52 185.5t149.5 132t231.5 53.5l11 -89q-72 2 -117.5 -37t-45.5 -100q0 -50 30 -85.5t90.5 -64t150.5 -57.5q168 -48 262.5 -115t133.5 -147t39 -173q0 -109 -57.5 -195.5t-162.5 -136.5t-250 -50q-59 0 -102 9t-72.5 18t-47.5 9q-28 0 -54 -10.5 t-48.5 -21.5t-43.5 -11q-32 0 -48.5 15.5t-24.5 50.5l-61 293q-13 53 43 67q27 8 51 -1.5t45 -38.5q58 -100 112 -155.5t109 -77.5t113 -22q70 0 112.5 37t42.5 98q0 42 -16.5 74t-55.5 57.5t-106 46.5q-180 52 -281.5 117.5t-142.5 147t-41 177.5zM154 1074q0 112 55 199 t157 136.5t240 49.5q69 0 116.5 -11.5t80.5 -23.5t58 -12q22 0 42.5 13.5t42 26.5t44.5 13q30 0 49.5 -19t35.5 -67l81 -295q11 -32 -3.5 -54t-45.5 -30q-54 -11 -84 42q-57 109 -120 172.5t-126.5 90.5t-125.5 27q-66 0 -104 -37.5t-38 -96.5q0 -46 21.5 -81.5t65 -62 t109.5 -47.5q170 -50 264.5 -116t133 -144t38.5 -169q0 -103 -54 -189t-155 -137.5t-242 -55.5l-7 87q85 2 132 39.5t47 98.5q0 46 -22.5 81t-75.5 65t-147 60q-178 50 -279 116.5t-142.5 149.5t-41.5 181z" />
<glyph unicode="&#xa8;" horiz-adv-x="980" d="M58 1253q0 86 54 135.5t145 49.5q92 0 145.5 -49.5t53.5 -135.5q0 -83 -53.5 -132t-145.5 -49q-91 0 -145 48.5t-54 132.5zM538 1253q0 85 54 135t145 50q94 0 147.5 -49.5t53.5 -135.5q0 -83 -53.5 -132t-147.5 -49q-91 0 -145 48.5t-54 132.5z" />
<glyph unicode="&#xa9;" horiz-adv-x="1934" d="M56 721q0 -191 67 -352t189 -279t289 -183t367 -65t366.5 65t288.5 183t189 278.5t67 352.5q0 191 -67 352t-189 278.5t-289 182.5t-366 65q-200 0 -367 -65t-289 -182.5t-189 -278.5t-67 -352zM204 721q0 221 96.5 392t268.5 269t399 98q170 0 309.5 -56t241.5 -158 t157.5 -240.5t55.5 -304.5t-55.5 -304.5t-157.5 -240.5t-241.5 -158t-309.5 -56q-226 0 -398.5 98t-269 269.5t-96.5 391.5zM450 720q0 151 71.5 268.5t193.5 185t271 67.5q60 0 97 -10.5t61.5 -22t49.5 -11.5q28 0 47 9t35 18t34 9q27 0 40 -13.5t20 -47.5l52 -254 q6 -29 -9 -47.5t-42 -24.5q-32 -7 -54.5 4.5t-33.5 46.5q-40 125 -98 169t-114 44t-91 -40.5t-51 -115t-16 -178.5q0 -123 28.5 -203.5t80.5 -120t124 -39.5q69 0 120.5 30.5t80.5 80.5q13 23 26 33t25.5 12.5t22.5 -0.5q32 -7 32 -46q-2 -61 -33.5 -120.5t-91.5 -107.5 t-144 -77.5t-191 -29.5q-164 0 -286 67t-189.5 186.5t-67.5 278.5z" />
<glyph unicode="&#xaa;" horiz-adv-x="1115" d="M83 796q0 119 109 187.5t307 68.5q48 0 83.5 -7t58.5 -20l-31 -70q-18 11 -35.5 16t-38.5 5q-39 0 -62.5 -30.5t-23.5 -85.5q0 -56 25 -85t66 -29q25 0 46 11.5t31 26.5l21 -69q-41 -61 -121 -94.5t-170 -33.5q-119 0 -192 59.5t-73 149.5zM120 1226q0 55 53.5 110.5 t161.5 92.5t271 37q173 0 257.5 -67.5t84.5 -189.5v-404q0 -16 8 -27.5t25 -11.5q13 0 20.5 8t13.5 16t15 8q18 0 28 -12t10 -29q0 -35 -27 -75t-80.5 -67.5t-133.5 -27.5q-95 0 -155.5 40.5t-60.5 101.5l-27 21v556q0 33 -18 52t-47 19q-26 0 -43 -13.5t-17 -37.5v-70 q0 -69 -50.5 -111.5t-140.5 -42.5q-73 0 -110.5 32.5t-37.5 91.5z" />
<glyph unicode="&#xab;" horiz-adv-x="1376" d="M82 506q0 31 20.5 65.5t58.5 65.5q58 47 117.5 94t115.5 90.5t104 80t83 62.5q27 19 45 21t32 -9t12.5 -31t-15.5 -46q-28 -52 -63.5 -115.5t-82 -145.5t-110.5 -192v119q63 -109 110 -191t83 -145t63 -116q13 -26 15.5 -46t-12.5 -31q-14 -11 -32.5 -9t-44.5 21 q-35 26 -83 62t-104 79.5t-115.5 91t-117.5 94.5q-38 31 -58.5 65.5t-20.5 65.5zM698 506q0 31 20.5 65.5t58.5 65.5q58 47 117.5 94t115.5 90.5t104 80t83 62.5q27 19 45 21t32 -9t12.5 -31t-15.5 -46q-28 -52 -63.5 -115.5t-82 -145.5t-110.5 -192v119q63 -109 110 -191 t83 -145t63 -116q13 -26 15.5 -46t-12.5 -31q-14 -11 -32.5 -9t-44.5 21q-35 26 -83 62t-104 79.5t-115.5 91t-117.5 94.5q-38 31 -58.5 65.5t-20.5 65.5z" />
<glyph unicode="&#xac;" horiz-adv-x="1170" d="M109 795q0 41 26.5 64.5t61.5 23.5h742q48 0 78.5 -25t30.5 -75v-340q0 -32 -25.5 -55t-70.5 -23t-71 24t-26 55v288l24 -22h-683q-35 0 -61 22t-26 63z" />
<glyph unicode="&#xad;" horiz-adv-x="823" d="M61 529l32 88q17 50 41.5 68t63.5 18h502q100 0 62 -106l-32 -88q-17 -50 -41 -68t-63 -18h-503q-100 0 -62 106z" />
<glyph unicode="&#xae;" horiz-adv-x="1481" d="M26 921q0 -144 52 -266.5t147.5 -213t225.5 -140.5t287 -50t288.5 50t228 140.5t149 212.5t52.5 267q0 141 -53 259.5t-150 206t-228 135.5t-287 48q-155 0 -285 -48t-226 -135.5t-148.5 -206t-52.5 -259.5zM160 921q0 161 74.5 284t205 193t298.5 70t299.5 -70.5 t208 -194.5t76.5 -282q0 -162 -75 -291t-206.5 -203.5t-302.5 -74.5q-170 0 -300.5 74.5t-204 203.5t-73.5 291zM368 610q0 26 25 39l18 8q11 5 16 12t5 23v460q0 14 -5 22t-14 12l-20 8q-26 11 -25 39q0 36 49 36h322q183 0 280 -69t97 -179q0 -65 -46.5 -114t-125.5 -63 q-44 -7 -75.5 -19.5t-80.5 -12.5q-55 0 -92 13.5t-62 28.5l-3 78q31 -22 53 -28.5t60 -6.5q52 0 79.5 28.5t27.5 91.5q0 73 -31.5 120t-82.5 47h-43v-492q0 -17 3 -24.5t14 -13.5l13 -7q12 -9 15 -16.5t3 -20.5q0 -36 -47 -36h-278q-49 0 -49 36zM759 843l247 27l92 -186 q8 -14 14.5 -21.5t15.5 -12.5q14 -7 19.5 -14.5t5.5 -19.5q0 -19 -13.5 -30.5t-35.5 -11.5h-246q-46 0 -46 36q0 15 10 27l5 4q7 3 8.5 13t-5.5 23z" />
<glyph unicode="&#xaf;" horiz-adv-x="890" d="M58 1236q0 53 23 77t65 24h547q42 0 65 -23.5t23 -76.5t-23 -77t-65 -24h-547q-42 0 -65 24.5t-23 75.5z" />
<glyph unicode="&#xb0;" horiz-adv-x="815" d="M88 1159q0 86 40 156t112.5 111t167.5 41q93 0 164.5 -39.5t113 -110.5t41.5 -164q0 -89 -42 -156.5t-114 -105.5t-163 -38q-92 0 -164.5 39.5t-114 108.5t-41.5 158zM242 1159q0 -80 47 -130t119 -50q70 0 117.5 49.5t47.5 127.5q0 82 -46 133.5t-119 51.5 q-75 0 -120.5 -52.5t-45.5 -129.5z" />
<glyph unicode="&#xb1;" horiz-adv-x="1176" d="M115 163q0 38 22.5 60t51.5 22h812q30 0 51.5 -22t21.5 -60t-21.5 -59t-51.5 -21h-813q-29 0 -51 21t-22 59zM116 858q0 38 22.5 60t51.5 22h812q30 0 51.5 -22t21.5 -60t-21.5 -59t-51.5 -21h-813q-29 0 -51 21t-22 59zM508 470v812q0 30 22 51.5t60 21.5t59 -21.5 t21 -51.5v-813q0 -29 -21 -51t-59 -22t-60 22.5t-22 51.5z" />
<glyph unicode="&#xb2;" horiz-adv-x="820" d="M42 786q0 76 68 114t211 38q51 0 99 -7.5t91.5 -16t80.5 -8.5q30 0 51.5 13.5t33.5 49.5q6 17 20 23.5t28 5.5q55 -2 48 -63q-10 -142 -66.5 -204t-149.5 -62q-77 0 -123 29.5t-80 98.5q-15 25 -21 36.5t-16 11.5q-11 0 -16.5 -14.5t-5.5 -44.5q-2 -60 -33.5 -88.5 t-94.5 -28.5q-57 0 -91 31.5t-34 85.5zM54 1251q0 83 85.5 150t269.5 67q173 0 254.5 -63.5t81.5 -163.5q0 -54 -29.5 -100t-94.5 -86.5t-172 -79.5l-267 -99l-57 30l116 52q72 32 115 70.5t62.5 89.5t19.5 120q0 95 -12 132t-42 37q-32 0 -42.5 -23t-10.5 -63v-71 q0 -55 -38.5 -89t-102.5 -34q-62 0 -99 33t-37 91z" />
<glyph unicode="&#xb3;" horiz-adv-x="757" d="M46 841q0 54 41.5 90t101.5 36q62 0 96 -32.5t34 -83.5v-64q0 -27 13.5 -46.5t38.5 -19.5q31 0 45.5 32.5t14.5 110.5q0 79 -22 113t-53 34h-45q-24 0 -40 10.5t-16 33.5q0 16 8 29.5t26 25.5l246 187l10 -74h-283q-51 0 -61 -37l-11 -38q-4 -17 -17.5 -28t-39.5 -11 t-42 12t-13 36l21 221q2 26 23 41t56 15h493q31 0 48 -14t17 -36q0 -16 -14 -31t-45 -35l-298 -250l-26 18q20 6 44.5 10t56.5 4q120 0 197 -55.5t77 -151.5q0 -109 -96.5 -173t-264.5 -64q-161 0 -241 53t-80 132z" />
<glyph unicode="&#xb4;" horiz-adv-x="575" d="M59.5 1126q2.5 19 14.5 39l72 204q36 88 87.5 137t132.5 38q73 -8 109 -59.5t28 -108.5q-8 -62 -47.5 -104.5t-116.5 -81.5l-181 -106q-23 -9 -47 -8t-38 15q-16 16 -13.5 35z" />
<glyph unicode="&#xb5;" horiz-adv-x="1386" d="M-3 -300q0 47 20.5 107t47 135t47 167t20.5 204h64q0 -127 25.5 -221t58 -165.5t58.5 -129.5t26 -111q0 -77 -53 -125.5t-129 -48.5q-80 0 -132.5 50.5t-52.5 137.5zM131 279v538q0 45 24 74.5t64 43.5l149 52q42 14 68 21t56 7q31 0 48 -19t17 -48v-587q0 -66 26 -98 t73 -32q32 0 63.5 11t61.5 39l37 34l62 -65l-46 -43q-136 -125 -240 -179.5t-188 -54.5q-122 0 -198.5 81t-76.5 225zM788 217v599q0 45 24.5 75t65.5 44l147 52q42 14 68 21t57 7q30 0 47.5 -19t17.5 -48v-716q0 -19 10 -32t29 -13q15 0 24.5 9t17 17.5t17.5 8.5 q20 0 32 -12.5t12 -32.5q0 -43 -31.5 -90t-94 -80.5t-154.5 -33.5q-125 0 -197.5 55.5t-76.5 164.5z" />
<glyph unicode="&#xb6;" horiz-adv-x="1531" d="M27 968q0 140 63.5 244.5t178 163t268.5 58.5h845q30 0 55.5 -17t25.5 -51q0 -28 -13 -45t-34 -28l-53 -23q-31 -13 -47 -33t-16 -50v-940q0 -30 13 -51t42 -31l54 -19q26 -9 40.5 -26t14.5 -46q0 -38 -29.5 -56t-59.5 -18h-883q-29 0 -48 16.5t-19 43.5q0 35 18 56.5 t44 29.5l63 19q36 11 53 27.5t17 40.5v331q-32 -5 -61.5 -10t-59.5 -5q-219 0 -345.5 113.5t-126.5 305.5zM874 259q0 -33 20 -59.5t65 -26.5q47 0 67 24.5t20 61.5v915q0 39 -19.5 63.5t-67.5 24.5q-45 0 -65 -27.5t-20 -60.5v-915z" />
<glyph unicode="&#xb7;" horiz-adv-x="671" d="M92 526q0 69 32.5 124.5t87.5 89.5t123 34q70 0 125 -34t87.5 -89.5t32.5 -124.5q0 -67 -32.5 -124t-87.5 -91.5t-125 -34.5q-68 0 -123 34.5t-87.5 92t-32.5 123.5z" />
<glyph unicode="&#xb8;" horiz-adv-x="663" d="M59 -356q-1 23 13 37t33 14q17 2 31 -4.5t29 -15.5q24 -19 45.5 -28t47.5 -9q69 0 69 84q0 37 -20.5 56.5t-61.5 19.5h-27q-27 0 -34 16t4 39l84 161h104l-81 -157l-72 16q24 6 52.5 9t72.5 3q110 0 167 -44t57 -123q0 -85 -69.5 -135.5t-200.5 -50.5q-109 0 -172 34 t-71 78z" />
<glyph unicode="&#xb9;" horiz-adv-x="667" d="M54 739q0 -43 61 -43h451q59 0 60 43q0 33 -44 44l-50 15q-14 5 -22 16t-8 34v576q0 49 -58 50q-13 0 -26.5 -3.5t-32.5 -10.5q-39 -23 -86 -36t-126 -13h-45q-30 0 -46.5 -14t-16.5 -35q0 -22 14 -35t44 -13h24q23 0 32.5 -11t9.5 -40v-415q0 -23 -8.5 -34.5 t-25.5 -15.5l-55 -15q-46 -9 -46 -44z" />
<glyph unicode="&#xba;" horiz-adv-x="1102" d="M58 1027q0 123 63.5 222.5t176.5 157t261 57.5q145 0 254.5 -56t170 -156.5t60.5 -232.5q0 -125 -63 -224t-176 -155.5t-261 -56.5q-144 0 -254 55.5t-171 156t-61 232.5zM428.5 1181.5q1.5 -72.5 23.5 -181.5q24 -106 51 -173t57.5 -95.5t60.5 -22.5q29 6 43.5 46.5 t13.5 114t-24 178.5q-23 108 -51 174t-58 95.5t-60 21.5q-27 -6 -42.5 -45.5t-14 -112z" />
<glyph unicode="&#xbb;" horiz-adv-x="1376" d="M89.5 67q1.5 20 15.5 46q28 52 63.5 115.5t82 145.5t110.5 192v-119q-63 109 -110 191t-83 145t-63 116q-13 26 -15.5 46t12.5 31q14 11 32.5 9t44.5 -21q35 -26 83 -62t104 -79.5t115.5 -91t117.5 -94.5q38 -31 58.5 -65.5t20.5 -65.5t-20.5 -65.5t-58.5 -65.5 q-58 -47 -117.5 -94t-115.5 -90.5t-104 -80t-83 -62.5q-27 -19 -45 -21t-32 9t-12.5 31zM705.5 67q1.5 20 15.5 46q28 52 63.5 115.5t82 145.5t110.5 192v-119q-63 109 -110 191t-83 145t-63 116q-13 26 -15.5 46t12.5 31q14 11 32.5 9t44.5 -21q35 -26 83 -62t104 -79.5 t115.5 -91t117.5 -94.5q38 -31 58.5 -65.5t20.5 -65.5t-20.5 -65.5t-58.5 -65.5q-58 -47 -117.5 -94t-115.5 -90.5t-104 -80t-83 -62.5q-27 -19 -45 -21t-32 9t-12.5 31z" />
<glyph unicode="&#xbc;" horiz-adv-x="1692" d="M96 739q0 -43 61 -43h451q59 0 60 43q0 33 -44 44l-50 15q-14 5 -22 16t-8 34v576q0 49 -58 50q-13 0 -26.5 -3.5t-32.5 -10.5q-39 -23 -86 -36t-126 -13h-45q-30 0 -46.5 -14t-16.5 -35q0 -22 14 -35t44 -13h24q23 0 32.5 -11t9.5 -40v-415q0 -23 -8.5 -34.5 t-25.5 -15.5l-55 -15q-46 -9 -46 -44zM290 56.5q-9 40.5 23 89.5q12 19 38 55.5t61.5 83.5t74.5 97.5t77.5 100t71.5 90.5t56 68q23 26 40 33t42 -5q22 -12 23 -30t-13 -47q-14 -32 -36 -79.5t-48 -104t-52.5 -114t-52 -110t-46 -92t-33.5 -58.5q-31 -47 -74 -60t-94 15 q-49 27 -58 67.5zM810 793.5q-3 17.5 11 46.5q14 32 36 79.5t48 103t52.5 113t52.5 109t46.5 91.5t32.5 60q31 48 74 61.5t95 -15.5q50 -28 58 -69t-22 -89q-12 -19 -39 -55t-61.5 -82.5t-73.5 -97.5t-77.5 -100t-72 -89.5t-57.5 -68.5q-22 -26 -38 -32.5t-42 6.5 q-20 11 -23 28.5zM818 231q0 12 8 27.5t34 32.5l155 129q36 27 52.5 51t16.5 47q0 27 -16 49t-31.5 47t-15.5 60q0 56 46 94.5t139 38.5q77 0 123.5 -34.5t46.5 -91.5q0 -38 -24 -82t-112 -115l-318 -254l-20 36h645q27 0 42 -9t15 -30q0 -44 -57 -44h-670q-29 0 -44 13.5 t-15 34.5zM1047 44q0 33 46 44l47 13q16 5 25 16.5t9 33.5v144q0 17 6 29.5t19 21.5l184 158q19 14 31.5 19t24.5 5q35 0 35 -36l2 -341q0 -23 8.5 -33.5t22.5 -16.5l39 -13q20 -7 32.5 -17.5t12.5 -26.5q0 -43 -60 -43h-423q-60 0 -61 43z" />
<glyph unicode="&#xbd;" horiz-adv-x="1740" d="M101 739q0 -43 61 -43h451q59 0 60 43q0 33 -44 44l-50 15q-14 5 -22 16t-8 34v576q0 49 -58 50q-13 0 -26.5 -3.5t-32.5 -10.5q-39 -23 -86 -36t-126 -13h-45q-30 0 -46.5 -14t-16.5 -35q0 -22 14 -35t44 -13h24q23 0 32.5 -11t9.5 -40v-415q0 -23 -8.5 -34.5 t-25.5 -15.5l-55 -15q-46 -9 -46 -44zM290 56.5q-9 40.5 23 89.5q12 19 38 55.5t61.5 83.5t74.5 97.5t77.5 100t71.5 90.5t56 68q23 26 40 33t42 -5q22 -12 23 -30t-13 -47q-14 -32 -36 -79.5t-48 -104t-52.5 -114t-52 -110t-46 -92t-33.5 -58.5q-31 -47 -74 -60t-94 15 q-49 27 -58 67.5zM810 793.5q-3 17.5 11 46.5q14 32 36 79.5t48 103t52.5 113t52.5 109t46.5 91.5t32.5 60q31 48 74 61.5t95 -15.5q50 -28 58 -69t-22 -89q-12 -19 -39 -55t-61.5 -82.5t-73.5 -97.5t-77.5 -100t-72 -89.5t-57.5 -68.5q-22 -26 -38 -32.5t-42 6.5 q-20 11 -23 28.5zM921 96q0 76 68 114t211 38q51 0 99 -7.5t91.5 -16t80.5 -8.5q30 0 51.5 13.5t33.5 49.5q6 17 20 23.5t28 5.5q55 -2 48 -63q-10 -142 -66.5 -204t-149.5 -62q-77 0 -123 29.5t-80 98.5q-15 25 -21 36.5t-16 11.5q-11 0 -16.5 -14.5t-5.5 -44.5 q-2 -60 -33.5 -88.5t-94.5 -28.5q-57 0 -91 31.5t-34 85.5zM933 561q0 83 85.5 150t269.5 67q173 0 254.5 -63.5t81.5 -163.5q0 -54 -29.5 -100t-94.5 -86.5t-172 -79.5l-267 -99l-57 30l116 52q72 32 115 70.5t62.5 89.5t19.5 120q0 95 -12 132t-42 37q-32 0 -42.5 -23 t-10.5 -63v-71q0 -55 -38.5 -89t-102.5 -34q-62 0 -99 33t-37 91z" />
<glyph unicode="&#xbe;" horiz-adv-x="1775" d="M106 841q0 54 41.5 90t101.5 36q62 0 96 -32.5t34 -83.5v-64q0 -27 13.5 -46.5t38.5 -19.5q31 0 45.5 32.5t14.5 110.5q0 79 -22 113t-53 34h-45q-24 0 -40 10.5t-16 33.5q0 16 8 29.5t26 25.5l246 187l10 -74h-283q-51 0 -61 -37l-11 -38q-4 -17 -17.5 -28t-39.5 -11 t-42 12t-13 36l21 221q2 26 23 41t56 15h493q31 0 48 -14t17 -36q0 -16 -14 -31t-45 -35l-298 -250l-26 18q20 6 44.5 10t56.5 4q120 0 197 -55.5t77 -151.5q0 -109 -96.5 -173t-264.5 -64q-161 0 -241 53t-80 132zM379 56.5q-9 40.5 23 89.5q12 19 38 55.5t61.5 83.5 t74.5 97.5t77.5 100t71.5 90.5t56 68q23 26 40 33t42 -5q22 -12 23 -30t-13 -47q-14 -32 -36 -79.5t-48 -104t-52.5 -114t-52 -110t-46 -92t-33.5 -58.5q-31 -47 -74 -60t-94 15q-49 27 -58 67.5zM899 793.5q-3 17.5 11 46.5q14 32 36 79.5t48 103t52.5 113t52.5 109 t46.5 91.5t32.5 60q31 48 74 61.5t95 -15.5q50 -28 58 -69t-22 -89q-12 -19 -39 -55t-61.5 -82.5t-73.5 -97.5t-77.5 -100t-72 -89.5t-57.5 -68.5q-22 -26 -38 -32.5t-42 6.5q-20 11 -23 28.5zM901 230q0 12 8 27.5t34 32.5l155 129q36 27 52.5 51t16.5 47q0 27 -16 49 t-31.5 47t-15.5 60q0 56 46 94.5t139 38.5q77 0 123.5 -34.5t46.5 -91.5q0 -38 -24 -82t-112 -115l-318 -254l-20 36h645q27 0 42 -9t15 -30q0 -44 -57 -44h-670q-29 0 -44 13.5t-15 34.5zM1130 43q0 33 46 44l47 13q16 5 25 16.5t9 33.5v144q0 17 6 29.5t19 21.5l184 158 q19 14 31.5 19t24.5 5q35 0 35 -36l2 -341q0 -23 8.5 -33.5t22.5 -16.5l39 -13q20 -7 32.5 -17.5t12.5 -26.5q0 -43 -60 -43h-423q-60 0 -61 43z" />
<glyph unicode="&#xbf;" horiz-adv-x="1181" d="M52 56q0 -190 139.5 -290.5t436.5 -100.5q165 0 292.5 52t199.5 139t72 193q0 102 -58.5 158t-154.5 56q-113 0 -173 -66.5t-60 -187.5v-97q0 -59 -29 -89.5t-74 -30.5q-57 0 -82.5 52.5t-25.5 150.5q0 138 20 214t84 103l74 30q61 26 81 61.5t6 87.5l-24 85 q-11 39 -32.5 56.5t-60.5 17.5q-35 0 -54.5 -16.5t-34.5 -61.5l-23 -68q-11 -34 -26.5 -49t-49.5 -21l-74 -14q-196 -36 -282.5 -125.5t-86.5 -238.5zM447 957q0 67 32.5 124t87.5 91.5t125 34.5q68 0 123 -34.5t87.5 -92t32.5 -123.5q0 -69 -32.5 -124.5t-87.5 -89.5 t-123 -34q-70 0 -125 34t-87.5 89.5t-32.5 124.5z" />
<glyph unicode="&#xc0;" horiz-adv-x="1613" d="M29 70q0 23 10.5 38.5t35.5 30.5l21 14q34 20 53 50t41 105l263 847q18 60 13 87.5t-42 44.5q-29 14 -40.5 32.5t-11.5 44.5q0 33 21.5 51.5t66.5 18.5h658q45 0 66.5 -18.5t21.5 -51.5q0 -28 -12.5 -46t-36.5 -29q-26 -12 -30.5 -33t10.5 -66l281 -892q22 -69 39.5 -101 t45.5 -46q36 -18 48.5 -36t12.5 -45q0 -32 -21.5 -51t-66.5 -19h-541q-46 0 -67 19t-21 51q0 26 13 41.5t40 27.5l33 16q27 12 22.5 33t-18.5 68l-301 998l43 30l-294 -949q-16 -52 -16.5 -84.5t19 -54.5t62.5 -44l28 -15q24 -12 38 -26.5t14 -40.5q0 -32 -21 -51t-66 -19 h-327q-44 0 -65.5 19t-21.5 51zM364 458l2 152h598l1 -152h-601zM531 1755q-12 53 20.5 105.5t98.5 64.5q73 14 126 -25.5t95 -114.5l100 -182q12 -19 16.5 -38t-8.5 -35q-13 -14 -36 -16t-45 5l-187 69q-78 28 -123 65.5t-57 101.5z" />
<glyph unicode="&#xc1;" horiz-adv-x="1613" d="M29 70q0 23 10.5 38.5t35.5 30.5l21 14q34 20 53 50t41 105l263 847q18 60 13 87.5t-42 44.5q-29 14 -40.5 32.5t-11.5 44.5q0 33 21.5 51.5t66.5 18.5h658q45 0 66.5 -18.5t21.5 -51.5q0 -28 -12.5 -46t-36.5 -29q-26 -12 -30.5 -33t10.5 -66l281 -892q22 -69 39.5 -101 t45.5 -46q36 -18 48.5 -36t12.5 -45q0 -32 -21.5 -51t-66.5 -19h-541q-46 0 -67 19t-21 51q0 26 13 41.5t40 27.5l33 16q27 12 22.5 33t-18.5 68l-301 998l43 30l-294 -949q-16 -52 -16.5 -84.5t19 -54.5t62.5 -44l28 -15q24 -12 38 -26.5t14 -40.5q0 -32 -21 -51t-66 -19 h-327q-44 0 -65.5 19t-21.5 51zM364 458l2 152h598l1 -152h-601zM733 1564.5q4 18.5 17 38.5l99 182q42 75 95.5 115t125.5 25q67 -12 99 -64.5t20 -105.5q-11 -65 -55.5 -102t-123.5 -65l-188 -69q-22 -7 -44.5 -5t-35.5 16q-13 16 -9 34.5z" />
<glyph unicode="&#xc2;" horiz-adv-x="1613" d="M29 70q0 23 10.5 38.5t35.5 30.5l21 14q34 20 53 50t41 105l263 847q18 60 13 87.5t-42 44.5q-29 14 -40.5 32.5t-11.5 44.5q0 33 21.5 51.5t66.5 18.5h658q45 0 66.5 -18.5t21.5 -51.5q0 -28 -12.5 -46t-36.5 -29q-26 -12 -30.5 -33t10.5 -66l281 -892q22 -69 39.5 -101 t45.5 -46q36 -18 48.5 -36t12.5 -45q0 -32 -21.5 -51t-66.5 -19h-541q-46 0 -67 19t-21 51q0 26 13 41.5t40 27.5l33 16q27 12 22.5 33t-18.5 68l-301 998l43 30l-294 -949q-16 -52 -16.5 -84.5t19 -54.5t62.5 -44l28 -15q24 -12 38 -26.5t14 -40.5q0 -32 -21 -51t-66 -19 h-327q-44 0 -65.5 19t-21.5 51zM364 458l2 152h598l1 -152h-601zM447 1561q2 -23 17 -35q38 -31 102 5l329 173h-197l329 -173q66 -36 103 -5q14 12 16.5 35t-23.5 49l-196 220q-33 33 -60.5 53t-69.5 20t-69.5 -20t-60.5 -53l-196 -220q-26 -26 -24 -49z" />
<glyph unicode="&#xc3;" horiz-adv-x="1613" d="M29 70q0 23 10.5 38.5t35.5 30.5l21 14q34 20 53 50t41 105l263 847q18 60 13 87.5t-42 44.5q-29 14 -40.5 32.5t-11.5 44.5q0 33 21.5 51.5t66.5 18.5h658q45 0 66.5 -18.5t21.5 -51.5q0 -28 -12.5 -46t-36.5 -29q-26 -12 -30.5 -33t10.5 -66l281 -892q22 -69 39.5 -101 t45.5 -46q36 -18 48.5 -36t12.5 -45q0 -32 -21.5 -51t-66.5 -19h-541q-46 0 -67 19t-21 51q0 26 13 41.5t40 27.5l33 16q27 12 22.5 33t-18.5 68l-301 998l43 30l-294 -949q-16 -52 -16.5 -84.5t19 -54.5t62.5 -44l28 -15q24 -12 38 -26.5t14 -40.5q0 -32 -21 -51t-66 -19 h-327q-44 0 -65.5 19t-21.5 51zM364 458l2 152h598l1 -152h-601zM485 1584q0 132 51.5 201.5t137.5 69.5q47 0 86 -16t72 -37t63 -37t57 -16q59 0 76 80q15 37 56 37q54 0 55 -73q0 -132 -51.5 -201.5t-137.5 -69.5q-46 0 -85.5 16t-72.5 37.5t-63 37t-57 15.5 q-56 0 -76 -80q-15 -37 -55 -36q-55 0 -56 72z" />
<glyph unicode="&#xc4;" horiz-adv-x="1613" d="M29 70q0 23 10.5 38.5t35.5 30.5l21 14q34 20 53 50t41 105l263 847q18 60 13 87.5t-42 44.5q-29 14 -40.5 32.5t-11.5 44.5q0 33 21.5 51.5t66.5 18.5h658q45 0 66.5 -18.5t21.5 -51.5q0 -28 -12.5 -46t-36.5 -29q-26 -12 -30.5 -33t10.5 -66l281 -892q22 -69 39.5 -101 t45.5 -46q36 -18 48.5 -36t12.5 -45q0 -32 -21.5 -51t-66.5 -19h-541q-46 0 -67 19t-21 51q0 26 13 41.5t40 27.5l33 16q27 12 22.5 33t-18.5 68l-301 998l43 30l-294 -949q-16 -52 -16.5 -84.5t19 -54.5t62.5 -44l28 -15q24 -12 38 -26.5t14 -40.5q0 -32 -21 -51t-66 -19 h-327q-44 0 -65.5 19t-21.5 51zM357 1688q0 84 53.5 131.5t143.5 47.5q91 0 143.5 -47.5t52.5 -131.5q0 -81 -52.5 -129t-143.5 -48q-90 0 -143.5 47t-53.5 130zM364 458l2 152h598l1 -152h-601zM830 1688q0 83 53.5 131t143.5 48q93 0 146 -47.5t53 -131.5q0 -81 -53 -129 t-146 -48q-90 0 -143.5 47t-53.5 130z" />
<glyph unicode="&#xc5;" horiz-adv-x="1613" d="M29 70q0 23 10.5 38.5t35.5 30.5l21 14q34 20 53 50t41 105l263 847q18 60 13 87.5t-42 44.5q-29 14 -40.5 32.5t-11.5 44.5q0 33 21.5 51.5t66.5 18.5h658q45 0 66.5 -18.5t21.5 -51.5q0 -28 -12.5 -46t-36.5 -29q-26 -12 -30.5 -33t10.5 -66l281 -892q22 -69 39.5 -101 t45.5 -46q36 -18 48.5 -36t12.5 -45q0 -32 -21.5 -51t-66.5 -19h-541q-46 0 -67 19t-21 51q0 26 13 41.5t40 27.5l33 16q27 12 22.5 33t-18.5 68l-301 998l43 30l-294 -949q-16 -52 -16.5 -84.5t19 -54.5t62.5 -44l28 -15q24 -12 38 -26.5t14 -40.5q0 -32 -21 -51t-66 -19 h-327q-44 0 -65.5 19t-21.5 51zM364 458l2 152h598l1 -152h-601zM553 1704q0 96 73 146.5t180 50.5q111 0 182.5 -52t71.5 -145t-71.5 -145.5t-182.5 -52.5q-108 0 -180.5 51t-72.5 147zM738 1704q0 -54 19.5 -82t50.5 -28q32 0 50.5 28.5t18.5 81.5q0 54 -18.5 81t-50.5 27 t-51 -27t-19 -81z" />
<glyph unicode="&#xc6;" horiz-adv-x="2134" d="M14 70q0 39 46 69l22 14q29 17 59 58t62 97l472 847q30 52 20.5 83.5t-49.5 48.5q-29 13 -41 32t-12 45q0 33 21.5 51.5t66.5 18.5h424l-67 -153h-93l-523 -946q-38 -68 -23.5 -114t61.5 -69l28 -15q24 -12 38.5 -27t14.5 -40q0 -32 -21 -51t-66 -19h-353q-45 0 -66 19 t-21 51zM463 536l1 152h560l1 -152h-562zM808 70q0 55 53 75l39 15q27 10 39.5 25.5t12.5 41.5v1207h716q47 0 78 9t58 18t63 9q46 0 69.5 -26t40.5 -84l87 -288q11 -37 0 -61.5t-43 -35.5q-37 -13 -66 0t-47 48q-44 81 -83 132.5t-78.5 80.5t-83 40t-97.5 11h-139v-1016 q0 -62 31.5 -93.5t89.5 -31.5h48q77 0 136 24.5t112 90.5t113 191q15 33 41 44.5t59 5.5q36 -7 52.5 -33.5t5.5 -65.5l-96 -329q-16 -56 -40 -83.5t-74 -27.5q-32 0 -58 9.5t-57.5 18.5t-78.5 9h-815q-45 0 -66.5 19t-21.5 51zM1247 656v144h270q63 0 90 25t49 97 q18 66 75 65q54 0 68 -60l80 -323q17 -73 -40 -92q-60 -22 -96 30q-33 47 -60 71.5t-60.5 33.5t-86.5 9h-289z" />
<glyph unicode="&#xc7;" horiz-adv-x="1478" d="M61 710q0 165 54.5 304t152.5 242.5t228.5 161t281.5 57.5q95 0 154 -16.5t95 -33.5t62 -17q30 0 48.5 16t38.5 31t51 15q26 0 42.5 -16t27.5 -55l106 -363q9 -32 -8 -57t-48 -33q-35 -8 -64 5t-44 48q-52 123 -114.5 191t-130.5 95.5t-139 27.5q-75 0 -133.5 -36 t-99.5 -103.5t-62.5 -163.5t-21.5 -215q0 -196 52 -326.5t144.5 -195.5t214.5 -65q106 0 195.5 54.5t147.5 161.5q17 33 38 43t45 5q24 -4 34 -19.5t10 -41.5q0 -81 -42.5 -161t-122 -146t-192.5 -105.5t-254 -39.5q-229 0 -396.5 96t-259 265t-91.5 390zM518 -356 q-1 23 13 37t33 14q17 2 31 -4.5t29 -15.5q24 -19 45.5 -28t47.5 -9q69 0 69 84q0 37 -20.5 56.5t-61.5 19.5h-27q-27 0 -34 16t4 39l84 161h104l-81 -157l-72 16q24 6 52.5 9t72.5 3q110 0 167 -44t57 -123q0 -85 -69.5 -135.5t-200.5 -50.5q-109 0 -172 34t-71 78z" />
<glyph unicode="&#xc8;" horiz-adv-x="1417" d="M91 70q0 55 53 75l39 15q27 10 40 26t13 41v979q0 26 -13 42t-40 26l-39 14q-53 21 -53 76q0 33 21.5 51.5t66.5 18.5h772q47 0 78 9t58 18t63 9q46 0 69.5 -26t41.5 -84l87 -288q11 -37 -0.5 -61.5t-42.5 -35.5q-37 -13 -66.5 0t-47.5 48q-44 81 -83 132.5t-78.5 80.5 t-83 40t-97.5 11h-138v-1016q0 -62 31 -93.5t89 -31.5h49q77 0 135.5 24.5t112 90.5t112.5 191q15 33 41.5 44.5t58.5 5.5q36 -7 52.5 -33.5t5.5 -65.5l-95 -329q-16 -56 -40.5 -83.5t-74.5 -27.5q-32 0 -58 9.5t-57.5 18.5t-78.5 9h-815q-45 0 -66.5 19t-21.5 51zM418 1755 q-12 53 20.5 105.5t98.5 64.5q73 14 126 -25.5t95 -114.5l100 -182q12 -19 16.5 -38t-8.5 -35q-13 -14 -36 -16t-45 5l-187 69q-78 28 -123 65.5t-57 101.5zM530 656v144h270q63 0 90.5 25t48.5 97q10 35 29.5 50t45.5 15q54 0 68 -60l80 -323q9 -38 -0.5 -60t-39.5 -32 q-29 -10 -54 -3t-42 33q-33 47 -60 71.5t-60.5 33.5t-86.5 9h-289z" />
<glyph unicode="&#xc9;" horiz-adv-x="1417" d="M91 70q0 55 53 75l39 15q27 10 40 26t13 41v979q0 26 -13 42t-40 26l-39 14q-53 21 -53 76q0 33 21.5 51.5t66.5 18.5h772q47 0 78 9t58 18t63 9q46 0 69.5 -26t41.5 -84l87 -288q11 -37 -0.5 -61.5t-42.5 -35.5q-37 -13 -66.5 0t-47.5 48q-44 81 -83 132.5t-78.5 80.5 t-83 40t-97.5 11h-138v-1016q0 -62 31 -93.5t89 -31.5h49q77 0 135.5 24.5t112 90.5t112.5 191q15 33 41.5 44.5t58.5 5.5q36 -7 52.5 -33.5t5.5 -65.5l-95 -329q-16 -56 -40.5 -83.5t-74.5 -27.5q-32 0 -58 9.5t-57.5 18.5t-78.5 9h-815q-45 0 -66.5 19t-21.5 51zM530 656 v144h270q63 0 90.5 25t48.5 97q10 35 29.5 50t45.5 15q54 0 68 -60l80 -323q9 -38 -0.5 -60t-39.5 -32q-29 -10 -54 -3t-42 33q-33 47 -60 71.5t-60.5 33.5t-86.5 9h-289zM620 1564.5q4 18.5 17 38.5l99 182q42 75 95.5 115t125.5 25q67 -12 99 -64.5t20 -105.5 q-11 -65 -55.5 -102t-123.5 -65l-188 -69q-22 -7 -44.5 -5t-35.5 16q-13 16 -9 34.5z" />
<glyph unicode="&#xca;" horiz-adv-x="1417" d="M91 70q0 55 53 75l39 15q27 10 40 26t13 41v979q0 26 -13 42t-40 26l-39 14q-53 21 -53 76q0 33 21.5 51.5t66.5 18.5h772q47 0 78 9t58 18t63 9q46 0 69.5 -26t41.5 -84l87 -288q11 -37 -0.5 -61.5t-42.5 -35.5q-37 -13 -66.5 0t-47.5 48q-44 81 -83 132.5t-78.5 80.5 t-83 40t-97.5 11h-138v-1016q0 -62 31 -93.5t89 -31.5h49q77 0 135.5 24.5t112 90.5t112.5 191q15 33 41.5 44.5t58.5 5.5q36 -7 52.5 -33.5t5.5 -65.5l-95 -329q-16 -56 -40.5 -83.5t-74.5 -27.5q-32 0 -58 9.5t-57.5 18.5t-78.5 9h-815q-45 0 -66.5 19t-21.5 51zM360 1561 q2 -23 17 -35q38 -31 102 5l329 173h-197l329 -173q66 -36 103 -5q14 12 16.5 35t-23.5 49l-196 220q-33 33 -60.5 53t-69.5 20t-69.5 -20t-60.5 -53l-196 -220q-26 -26 -24 -49zM530 656v144h270q63 0 90.5 25t48.5 97q10 35 29.5 50t45.5 15q54 0 68 -60l80 -323 q9 -38 -0.5 -60t-39.5 -32q-29 -10 -54 -3t-42 33q-33 47 -60 71.5t-60.5 33.5t-86.5 9h-289z" />
<glyph unicode="&#xcb;" horiz-adv-x="1417" d="M91 70q0 55 53 75l39 15q27 10 40 26t13 41v979q0 26 -13 42t-40 26l-39 14q-53 21 -53 76q0 33 21.5 51.5t66.5 18.5h772q47 0 78 9t58 18t63 9q46 0 69.5 -26t41.5 -84l87 -288q11 -37 -0.5 -61.5t-42.5 -35.5q-37 -13 -66.5 0t-47.5 48q-44 81 -83 132.5t-78.5 80.5 t-83 40t-97.5 11h-138v-1016q0 -62 31 -93.5t89 -31.5h49q77 0 135.5 24.5t112 90.5t112.5 191q15 33 41.5 44.5t58.5 5.5q36 -7 52.5 -33.5t5.5 -65.5l-95 -329q-16 -56 -40.5 -83.5t-74.5 -27.5q-32 0 -58 9.5t-57.5 18.5t-78.5 9h-815q-45 0 -66.5 19t-21.5 51zM275 1688 q0 84 53.5 131.5t143.5 47.5q91 0 143.5 -47.5t52.5 -131.5q0 -81 -52.5 -129t-143.5 -48q-90 0 -143.5 47t-53.5 130zM530 656v144h270q63 0 90.5 25t48.5 97q10 35 29.5 50t45.5 15q54 0 68 -60l80 -323q9 -38 -0.5 -60t-39.5 -32q-29 -10 -54 -3t-42 33q-33 47 -60 71.5 t-60.5 33.5t-86.5 9h-289zM748 1688q0 83 53.5 131t143.5 48q93 0 146 -47.5t53 -131.5q0 -81 -53 -129t-146 -48q-90 0 -143.5 47t-53.5 130z" />
<glyph unicode="&#xcc;" horiz-adv-x="946" d="M91 70q0 55 53 75l39 15q27 10 40 26t13 41v979q0 26 -13 42t-40 26l-39 14q-53 20 -53 76q0 33 21.5 51.5t66.5 18.5h588q45 0 66.5 -18.5t21.5 -51.5q0 -55 -53 -76l-39 -14q-26 -10 -39 -26t-13 -42v-979q0 -26 13 -41.5t39 -25.5l39 -15q53 -20 53 -75 q0 -32 -21.5 -51t-66.5 -19h-588q-45 0 -66.5 19t-21.5 51zM182 1755q-12 53 20.5 105.5t98.5 64.5q73 14 126 -25.5t95 -114.5l100 -182q12 -19 16.5 -38t-8.5 -35q-13 -14 -36 -16t-45 5l-187 69q-78 28 -123 65.5t-57 101.5z" />
<glyph unicode="&#xcd;" horiz-adv-x="946" d="M91 70q0 55 53 75l39 15q27 10 40 26t13 41v979q0 26 -13 42t-40 26l-39 14q-53 20 -53 76q0 33 21.5 51.5t66.5 18.5h588q45 0 66.5 -18.5t21.5 -51.5q0 -55 -53 -76l-39 -14q-26 -10 -39 -26t-13 -42v-979q0 -26 13 -41.5t39 -25.5l39 -15q53 -20 53 -75 q0 -32 -21.5 -51t-66.5 -19h-588q-45 0 -66.5 19t-21.5 51zM384 1564.5q4 18.5 17 38.5l99 182q42 75 95.5 115t125.5 25q67 -12 99 -64.5t20 -105.5q-11 -65 -55.5 -102t-123.5 -65l-188 -69q-22 -7 -44.5 -5t-35.5 16q-13 16 -9 34.5z" />
<glyph unicode="&#xce;" horiz-adv-x="946" d="M91 70q0 55 53 75l39 15q27 10 40 26t13 41v979q0 26 -13 42t-40 26l-39 14q-53 20 -53 76q0 33 21.5 51.5t66.5 18.5h588q45 0 66.5 -18.5t21.5 -51.5q0 -55 -53 -76l-39 -14q-26 -10 -39 -26t-13 -42v-979q0 -26 13 -41.5t39 -25.5l39 -15q53 -20 53 -75 q0 -32 -21.5 -51t-66.5 -19h-588q-45 0 -66.5 19t-21.5 51zM124 1561q2 -23 17 -35q38 -31 102 5l329 173h-197l329 -173q66 -36 103 -5q14 12 16.5 35t-23.5 49l-196 220q-33 33 -60.5 53t-69.5 20t-69.5 -20t-60.5 -53l-196 -220q-26 -26 -24 -49z" />
<glyph unicode="&#xcf;" horiz-adv-x="946" d="M39 1688q0 84 53.5 131.5t143.5 47.5q91 0 143.5 -47.5t52.5 -131.5q0 -81 -52.5 -129t-143.5 -48q-90 0 -143.5 47t-53.5 130zM91 70q0 55 53 75l39 15q27 10 40 26t13 41v979q0 26 -13 42t-40 26l-39 14q-53 20 -53 76q0 33 21.5 51.5t66.5 18.5h588q45 0 66.5 -18.5 t21.5 -51.5q0 -55 -53 -76l-39 -14q-26 -10 -39 -26t-13 -42v-979q0 -26 13 -41.5t39 -25.5l39 -15q53 -20 53 -75q0 -32 -21.5 -51t-66.5 -19h-588q-45 0 -66.5 19t-21.5 51zM512 1688q0 83 53.5 131t143.5 48q93 0 146 -47.5t53 -131.5q0 -81 -53 -129t-146 -48 q-90 0 -143.5 47t-53.5 130z" />
<glyph unicode="&#xd0;" horiz-adv-x="1713" d="M54 721q0 23 16 37t39 14h734q24 0 39.5 -14.5t15.5 -36.5q0 -26 -16 -39.5t-39 -13.5h-737q-23 0 -37.5 13.5t-14.5 39.5zM91 70q0 55 53 75l39 15q27 10 40 26t13 41v979q0 26 -13 42t-40 26l-39 14q-53 20 -53 76q0 33 21.5 51.5t66.5 18.5h636q188 0 342.5 -56.5 t265.5 -159.5t171 -243.5t60 -310.5q0 -191 -91.5 -341.5t-257 -236.5t-391.5 -86h-735q-45 0 -66.5 19t-21.5 51zM711 260q0 -59 30 -86.5t86 -27.5h27q87 0 157.5 53.5t112 168.5t41.5 301q0 146 -27 260.5t-79.5 194.5t-127.5 121.5t-170 41.5h-50v-1027z" />
<glyph unicode="&#xd1;" horiz-adv-x="1582" d="M70 70q0 53 59 78l23 11q46 22 65 49.5t19 86.5v764q0 39 -7.5 60t-33.5 56l-79 105q-23 32 -31.5 50t-8.5 37q0 32 21.5 49.5t56.5 17.5h345q41 0 67 -14t52 -52l663 -931l-61 -181v883q0 57 -16.5 84.5t-67.5 51.5l-22 10q-59 29 -59 79q0 33 21.5 51.5t65.5 18.5h318 q45 0 66.5 -18.5t21.5 -51.5q0 -52 -59 -79l-23 -10q-46 -20 -65 -48t-19 -88v-762q0 -41 7 -73t25 -57l64 -87q27 -35 31.5 -53t4.5 -37q0 -32 -21.5 -51t-56.5 -19h-400q-68 0 -67 54q0 18 -8 36.5t-42 66.5l-666 933l145 91v-887q0 -55 17 -83t67 -52l22 -11 q59 -26 59 -78q0 -32 -21 -50.5t-66 -19.5h-318q-45 1 -66.5 19.5t-21.5 50.5zM516 1584q0 132 51.5 201.5t137.5 69.5q47 0 86 -16t72 -37t63 -37t57 -16q59 0 76 80q15 37 56 37q54 0 55 -73q0 -132 -51.5 -201.5t-137.5 -69.5q-46 0 -85.5 16t-72.5 37.5t-63 37t-57 15.5 q-56 0 -76 -80q-15 -37 -55 -36q-55 0 -56 72z" />
<glyph unicode="&#xd2;" d="M62 726q0 157 52.5 293t151 238.5t238 160t314.5 57.5q179 0 321 -55t241.5 -156.5t152 -242t52.5 -313.5q0 -157 -52 -293t-150.5 -238.5t-238 -160t-315.5 -57.5q-178 0 -319.5 55t-241.5 156t-153 242t-53 314zM533 1755q-12 53 20.5 105.5t98.5 64.5q73 14 126 -25.5 t95 -114.5l100 -182q12 -19 16.5 -38t-8.5 -35q-13 -14 -36 -16t-45 5l-187 69q-78 28 -123 65.5t-57 101.5zM555 1007q0 -137 22 -269t60 -246.5t86 -201.5t101 -137t105 -50q56 0 93 37t56 109t19 178q0 137 -22 268.5t-60 246.5t-86 202t-101 136.5t-105 49.5 q-55 0 -92.5 -37t-56.5 -108.5t-19 -177.5z" />
<glyph unicode="&#xd3;" d="M62 726q0 157 52.5 293t151 238.5t238 160t314.5 57.5q179 0 321 -55t241.5 -156.5t152 -242t52.5 -313.5q0 -157 -52 -293t-150.5 -238.5t-238 -160t-315.5 -57.5q-178 0 -319.5 55t-241.5 156t-153 242t-53 314zM555 1007q0 -137 22 -269t60 -246.5t86 -201.5t101 -137 t105 -50q56 0 93 37t56 109t19 178q0 137 -22 268.5t-60 246.5t-86 202t-101 136.5t-105 49.5q-55 0 -92.5 -37t-56.5 -108.5t-19 -177.5zM735 1564.5q4 18.5 17 38.5l99 182q42 75 95.5 115t125.5 25q67 -12 99 -64.5t20 -105.5q-11 -65 -55.5 -102t-123.5 -65l-188 -69 q-22 -7 -44.5 -5t-35.5 16q-13 16 -9 34.5z" />
<glyph unicode="&#xd4;" d="M62 726q0 157 52.5 293t151 238.5t238 160t314.5 57.5q179 0 321 -55t241.5 -156.5t152 -242t52.5 -313.5q0 -157 -52 -293t-150.5 -238.5t-238 -160t-315.5 -57.5q-178 0 -319.5 55t-241.5 156t-153 242t-53 314zM474 1561q2 -23 17 -35q38 -31 102 5l329 173h-197 l329 -173q66 -36 103 -5q14 12 16.5 35t-23.5 49l-196 220q-33 33 -60.5 53t-69.5 20t-69.5 -20t-60.5 -53l-196 -220q-26 -26 -24 -49zM555 1007q0 -137 22 -269t60 -246.5t86 -201.5t101 -137t105 -50q56 0 93 37t56 109t19 178q0 137 -22 268.5t-60 246.5t-86 202 t-101 136.5t-105 49.5q-55 0 -92.5 -37t-56.5 -108.5t-19 -177.5z" />
<glyph unicode="&#xd5;" d="M62 726q0 157 52.5 293t151 238.5t238 160t314.5 57.5q179 0 321 -55t241.5 -156.5t152 -242t52.5 -313.5q0 -157 -52 -293t-150.5 -238.5t-238 -160t-315.5 -57.5q-178 0 -319.5 55t-241.5 156t-153 242t-53 314zM497 1584q0 132 51.5 201.5t137.5 69.5q47 0 86 -16 t72 -37t63 -37t57 -16q59 0 76 80q15 37 56 37q54 0 55 -73q0 -132 -51.5 -201.5t-137.5 -69.5q-46 0 -85.5 16t-72.5 37.5t-63 37t-57 15.5q-56 0 -76 -80q-15 -37 -55 -36q-55 0 -56 72zM555 1007q0 -137 22 -269t60 -246.5t86 -201.5t101 -137t105 -50q56 0 93 37t56 109 t19 178q0 137 -22 268.5t-60 246.5t-86 202t-101 136.5t-105 49.5q-55 0 -92.5 -37t-56.5 -108.5t-19 -177.5z" />
<glyph unicode="&#xd6;" d="M62 726q0 157 52.5 293t151 238.5t238 160t314.5 57.5q179 0 321 -55t241.5 -156.5t152 -242t52.5 -313.5q0 -157 -52 -293t-150.5 -238.5t-238 -160t-315.5 -57.5q-178 0 -319.5 55t-241.5 156t-153 242t-53 314zM390 1688q0 84 53.5 131.5t143.5 47.5q91 0 143.5 -47.5 t52.5 -131.5q0 -81 -52.5 -129t-143.5 -48q-90 0 -143.5 47t-53.5 130zM555 1007q0 -137 22 -269t60 -246.5t86 -201.5t101 -137t105 -50q56 0 93 37t56 109t19 178q0 137 -22 268.5t-60 246.5t-86 202t-101 136.5t-105 49.5q-55 0 -92.5 -37t-56.5 -108.5t-19 -177.5z M863 1688q0 83 53.5 131t143.5 48q93 0 146 -47.5t53 -131.5q0 -81 -53 -129t-146 -48q-90 0 -143.5 47t-53.5 130z" />
<glyph unicode="&#xd7;" horiz-adv-x="1143" d="M167.5 1034q0.5 30 30.5 56q59 55 123 0l636 -675q27 -25 27 -53.5t-30 -55.5t-66 -24.5t-61 24.5l-631 671q-29 27 -28.5 57zM195 305q-63 57 3 119l629 668q28 26 61 26t64 -28q33 -29 33.5 -55t-32.5 -57l-629 -669q-31 -27 -63.5 -30t-65.5 26z" />
<glyph unicode="&#xd8;" d="M62 726q0 157 52.5 293t151 238.5t238 160t314.5 57.5q179 0 321 -55t241.5 -156.5t152 -242t52.5 -313.5q0 -157 -52 -293t-150.5 -238.5t-238 -160t-315.5 -57.5q-178 0 -319.5 55t-241.5 156t-153 242t-53 314zM208 -49q-3 18 10 35l1098 1509q11 16 30 19t37 -10 q18 -12 22 -28.5t-7 -31.5l-1100 -1511q-13 -18 -32 -20.5t-37 10.5q-18 10 -21 28zM555 1007q0 -137 22 -269t60 -246.5t86 -201.5t101 -137t105 -50q56 0 93 37t56 109t19 178q0 137 -22 268.5t-60 246.5t-86 202t-101 136.5t-105 49.5q-55 0 -92.5 -37t-56.5 -108.5 t-19 -177.5z" />
<glyph unicode="&#xd9;" horiz-adv-x="1572" d="M65 1363q0 32 21.5 51.5t60.5 19.5h652q40 0 61.5 -19.5t21.5 -51.5t-18 -51t-57 -28l-42 -10q-26 -6 -37.5 -22t-13.5 -46l-35 -552q-4 -62 -5 -115t-1 -88q0 -173 68 -249t188 -76q96 0 165.5 37t107.5 105t38 162q0 73 -2.5 118.5t-5.5 86.5l-38 509q-4 57 -24 88.5 t-62 42.5l-30 8q-40 11 -56.5 29.5t-16.5 50.5t21.5 51.5t59.5 19.5h380q40 0 61.5 -19.5t21.5 -51.5t-18.5 -49.5t-55.5 -29.5l-29 -9q-58 -18 -76 -52t-14 -90l41 -493q5 -54 7.5 -106.5t2.5 -108.5q0 -132 -64 -237.5t-196 -167t-339 -61.5t-344 57t-206 161.5t-69 246.5 q0 17 1 43.5t4 72.5t8 120l36 545q2 30 -10 45.5t-49 23.5l-40 9q-75 17 -74 80zM630 1755q-12 53 20.5 105.5t98.5 64.5q73 14 126 -25.5t95 -114.5l100 -182q12 -19 16.5 -38t-8.5 -35q-13 -14 -36 -16t-45 5l-187 69q-78 28 -123 65.5t-57 101.5z" />
<glyph unicode="&#xda;" horiz-adv-x="1572" d="M65 1363q0 32 21.5 51.5t60.5 19.5h652q40 0 61.5 -19.5t21.5 -51.5t-18 -51t-57 -28l-42 -10q-26 -6 -37.5 -22t-13.5 -46l-35 -552q-4 -62 -5 -115t-1 -88q0 -173 68 -249t188 -76q96 0 165.5 37t107.5 105t38 162q0 73 -2.5 118.5t-5.5 86.5l-38 509q-4 57 -24 88.5 t-62 42.5l-30 8q-40 11 -56.5 29.5t-16.5 50.5t21.5 51.5t59.5 19.5h380q40 0 61.5 -19.5t21.5 -51.5t-18.5 -49.5t-55.5 -29.5l-29 -9q-58 -18 -76 -52t-14 -90l41 -493q5 -54 7.5 -106.5t2.5 -108.5q0 -132 -64 -237.5t-196 -167t-339 -61.5t-344 57t-206 161.5t-69 246.5 q0 17 1 43.5t4 72.5t8 120l36 545q2 30 -10 45.5t-49 23.5l-40 9q-75 17 -74 80zM832 1564.5q4 18.5 17 38.5l99 182q42 75 95.5 115t125.5 25q67 -12 99 -64.5t20 -105.5q-11 -65 -55.5 -102t-123.5 -65l-188 -69q-22 -7 -44.5 -5t-35.5 16q-13 16 -9 34.5z" />
<glyph unicode="&#xdb;" horiz-adv-x="1572" d="M65 1363q0 32 21.5 51.5t60.5 19.5h652q40 0 61.5 -19.5t21.5 -51.5t-18 -51t-57 -28l-42 -10q-26 -6 -37.5 -22t-13.5 -46l-35 -552q-4 -62 -5 -115t-1 -88q0 -173 68 -249t188 -76q96 0 165.5 37t107.5 105t38 162q0 73 -2.5 118.5t-5.5 86.5l-38 509q-4 57 -24 88.5 t-62 42.5l-30 8q-40 11 -56.5 29.5t-16.5 50.5t21.5 51.5t59.5 19.5h380q40 0 61.5 -19.5t21.5 -51.5t-18.5 -49.5t-55.5 -29.5l-29 -9q-58 -18 -76 -52t-14 -90l41 -493q5 -54 7.5 -106.5t2.5 -108.5q0 -132 -64 -237.5t-196 -167t-339 -61.5t-344 57t-206 161.5t-69 246.5 q0 17 1 43.5t4 72.5t8 120l36 545q2 30 -10 45.5t-49 23.5l-40 9q-75 17 -74 80zM572 1561q2 -23 17 -35q38 -31 102 5l329 173h-197l329 -173q66 -36 103 -5q14 12 16.5 35t-23.5 49l-196 220q-33 33 -60.5 53t-69.5 20t-69.5 -20t-60.5 -53l-196 -220q-26 -26 -24 -49z " />
<glyph unicode="&#xdc;" horiz-adv-x="1572" d="M65 1363q0 32 21.5 51.5t60.5 19.5h652q40 0 61.5 -19.5t21.5 -51.5t-18 -51t-57 -28l-42 -10q-26 -6 -37.5 -22t-13.5 -46l-35 -552q-4 -62 -5 -115t-1 -88q0 -173 68 -249t188 -76q96 0 165.5 37t107.5 105t38 162q0 73 -2.5 118.5t-5.5 86.5l-38 509q-4 57 -24 88.5 t-62 42.5l-30 8q-40 11 -56.5 29.5t-16.5 50.5t21.5 51.5t59.5 19.5h380q40 0 61.5 -19.5t21.5 -51.5t-18.5 -49.5t-55.5 -29.5l-29 -9q-58 -18 -76 -52t-14 -90l41 -493q5 -54 7.5 -106.5t2.5 -108.5q0 -132 -64 -237.5t-196 -167t-339 -61.5t-344 57t-206 161.5t-69 246.5 q0 17 1 43.5t4 72.5t8 120l36 545q2 30 -10 45.5t-49 23.5l-40 9q-75 17 -74 80zM487 1688q0 84 53.5 131.5t143.5 47.5q91 0 143.5 -47.5t52.5 -131.5q0 -81 -52.5 -129t-143.5 -48q-90 0 -143.5 47t-53.5 130zM960 1688q0 83 53.5 131t143.5 48q93 0 146 -47.5t53 -131.5 q0 -81 -53 -129t-146 -48q-90 0 -143.5 47t-53.5 130z" />
<glyph unicode="&#xdd;" horiz-adv-x="1456" d="M18 1364q0 33 21.5 51.5t66.5 18.5h581q45 0 66.5 -18.5t21.5 -51.5q0 -57 -53 -75l-27 -9q-32 -11 -37 -31.5t15 -65.5l269 -624l-157 -74l306 654q22 47 11.5 85t-60.5 58l-23 11q-18 8 -30.5 26t-12.5 45q0 33 21.5 51.5t66.5 18.5h294q45 0 66 -18.5t21 -51.5 q0 -25 -10.5 -40.5t-31.5 -28.5l-17 -9q-19 -10 -36.5 -27t-37.5 -48.5t-47 -90.5l-317 -679l-381 -52l-403 808q-20 42 -34.5 58t-38.5 26l-28 12q-23 10 -34 29t-11 42zM367 70q0 55 53 75l39 15q27 10 39.5 26t12.5 41v304h475v-304q0 -26 13.5 -41.5t38.5 -25.5l39 -15 q53 -20 53 -75q0 -32 -21.5 -51t-66.5 -19h-587q-45 0 -66.5 19t-21.5 51zM762 1564.5q4 18.5 17 38.5l99 182q42 75 95.5 115t125.5 25q67 -12 99 -64.5t20 -105.5q-11 -65 -55.5 -102t-123.5 -65l-188 -69q-22 -7 -44.5 -5t-35.5 16q-13 16 -9 34.5z" />
<glyph unicode="&#xde;" horiz-adv-x="1586" d="M91 70q0 50 53 75l40 15q24 9 38 23.5t14 43.5v979q0 30 -14 44.5t-38 23.5l-40 14q-53 26 -53 76q0 33 21.5 51.5t66.5 18.5h578q45 0 66.5 -17t21.5 -47q0 -27 -15 -42t-38 -33l-40 -21q-20 -12 -36 -25t-16 -43v-979q0 -30 15.5 -42.5t36.5 -24.5l40 -22 q24 -16 38.5 -32t14.5 -43q0 -29 -21.5 -46t-66.5 -17h-578q-45 0 -66.5 19t-21.5 51zM520 406l16 106q41 -26 77.5 -44.5t80.5 -29.5t106 -11q92 0 150.5 64t58.5 223q0 146 -66 229.5t-204 83.5h-219v125h412q175 0 309.5 -51.5t211.5 -148.5t77 -234q0 -134 -76.5 -226.5 t-216 -140t-331.5 -47.5q-93 0 -158 12t-117.5 34.5t-110.5 55.5z" />
<glyph unicode="&#xdf;" horiz-adv-x="1596" d="M45 895q0 -28 20.5 -46t53.5 -29l47 -17q19 -7 34 -18.5t15 -44.5v-531q0 -32 -14.5 -50.5t-34.5 -23.5l-37 -10q-57 -15 -57 -69q0 -25 20 -40.5t58 -15.5h391q50 0 71.5 26.5t21.5 70.5v882q0 198 60 302.5t173 104.5q79 0 125 -57t46 -158q0 -69 -15 -129t-58 -106.5 t-127 -77.5q-50 -23 -66.5 -43t-16.5 -45q0 -35 21.5 -52.5t70.5 -30.5q90 -18 156 -67.5t103 -125t37 -176.5q0 -93 -31 -130t-76 -37q-41 0 -71.5 25t-58.5 90l-36 70q-15 27 -35 45t-53 18q-30 0 -47.5 -21.5t-17.5 -53.5v-271q0 -32 20.5 -54.5t55.5 -22.5q20 0 42 10.5 t44 24.5t41.5 24t34.5 9q16 0 43 -19t72.5 -38t117.5 -19q103 0 186.5 49.5t132.5 140.5t49 216q0 136 -63 235t-186.5 152.5t-304.5 53.5l-19 -34q148 14 253 64t160.5 130.5t55.5 185.5q0 94 -56 173.5t-178 128t-321 48.5q-232 0 -382 -76t-222.5 -209.5t-72.5 -304.5 v-40l53 70h-150q-36 0 -57 -14.5t-21 -41.5z" />
<glyph unicode="&#xe0;" horiz-adv-x="1231" d="M56 218q0 140 127 221.5t357 81.5q60 0 105 -8t74 -24l-35 -89q-22 12 -40.5 17.5t-41.5 5.5q-50 0 -79 -33.5t-29 -95.5q0 -66 28.5 -100t75.5 -34q30 0 56 13.5t39 32.5l25 -82q-49 -73 -143 -113t-200 -40q-143 0 -231 71t-88 176zM93 723q0 68 61.5 135.5t185 112.5 t310.5 45q217 0 322.5 -79.5t105.5 -216.5v-490q0 -19 10 -32t30 -13q17 0 28 9.5t20 18.5q7 7 15 12t18 5q17 0 25 -12.5t8 -32.5q0 -45 -33 -94.5t-98 -84.5t-161 -35q-114 0 -186 48t-72 121v24l-33 1v661q0 39 -21 62.5t-57 23.5q-27 0 -46.5 -12.5t-19.5 -34.5v-111 q0 -86 -59 -133.5t-168 -47.5q-93 0 -139 39.5t-46 110.5zM327 1376q-8 56 28.5 108t110.5 60q80 11 131.5 -38t86.5 -137l74 -204q11 -20 14 -39t-13 -35q-14 -13 -39 -14.5t-46 7.5l-183 106q-76 39 -115.5 81.5t-48.5 104.5z" />
<glyph unicode="&#xe1;" horiz-adv-x="1231" d="M56 218q0 140 127 221.5t357 81.5q60 0 105 -8t74 -24l-35 -89q-22 12 -40.5 17.5t-41.5 5.5q-50 0 -79 -33.5t-29 -95.5q0 -66 28.5 -100t75.5 -34q30 0 56 13.5t39 32.5l25 -82q-49 -73 -143 -113t-200 -40q-143 0 -231 71t-88 176zM93 723q0 68 61.5 135.5t185 112.5 t310.5 45q217 0 322.5 -79.5t105.5 -216.5v-490q0 -19 10 -32t30 -13q17 0 28 9.5t20 18.5q7 7 15 12t18 5q17 0 25 -12.5t8 -32.5q0 -45 -33 -94.5t-98 -84.5t-161 -35q-114 0 -186 48t-72 121v24l-33 1v661q0 39 -21 62.5t-57 23.5q-27 0 -46.5 -12.5t-19.5 -34.5v-111 q0 -86 -59 -133.5t-168 -47.5q-93 0 -139 39.5t-46 110.5zM529.5 1126q2.5 19 14.5 39l72 204q36 88 87.5 137t132.5 38q73 -8 109 -59.5t28 -108.5q-8 -62 -47.5 -104.5t-116.5 -81.5l-181 -106q-23 -9 -47 -8t-38 15q-16 16 -13.5 35z" />
<glyph unicode="&#xe2;" horiz-adv-x="1231" d="M56 218q0 140 127 221.5t357 81.5q60 0 105 -8t74 -24l-35 -89q-22 12 -40.5 17.5t-41.5 5.5q-50 0 -79 -33.5t-29 -95.5q0 -66 28.5 -100t75.5 -34q30 0 56 13.5t39 32.5l25 -82q-49 -73 -143 -113t-200 -40q-143 0 -231 71t-88 176zM93 723q0 68 61.5 135.5t185 112.5 t310.5 45q217 0 322.5 -79.5t105.5 -216.5v-490q0 -19 10 -32t30 -13q17 0 28 9.5t20 18.5q7 7 15 12t18 5q17 0 25 -12.5t8 -32.5q0 -45 -33 -94.5t-98 -84.5t-161 -35q-114 0 -186 48t-72 121v24l-33 1v661q0 39 -21 62.5t-57 23.5q-27 0 -46.5 -12.5t-19.5 -34.5v-111 q0 -86 -59 -133.5t-168 -47.5q-93 0 -139 39.5t-46 110.5zM261.5 1119q0.5 -22 16.5 -36q18 -14 47 -14.5t58 20.5l337 233h-201l337 -233q30 -20 58.5 -20t46.5 14q15 13 15.5 36t-22.5 50l-202 266q-31 36 -60 55t-72 19t-73 -19.5t-60 -54.5l-202 -266q-24 -28 -23.5 -50 z" />
<glyph unicode="&#xe3;" horiz-adv-x="1231" d="M56 218q0 140 127 221.5t357 81.5q60 0 105 -8t74 -24l-35 -89q-22 12 -40.5 17.5t-41.5 5.5q-50 0 -79 -33.5t-29 -95.5q0 -66 28.5 -100t75.5 -34q30 0 56 13.5t39 32.5l25 -82q-49 -73 -143 -113t-200 -40q-143 0 -231 71t-88 176zM93 723q0 68 61.5 135.5t185 112.5 t310.5 45q217 0 322.5 -79.5t105.5 -216.5v-490q0 -19 10 -32t30 -13q17 0 28 9.5t20 18.5q7 7 15 12t18 5q17 0 25 -12.5t8 -32.5q0 -45 -33 -94.5t-98 -84.5t-161 -35q-114 0 -186 48t-72 121v24l-33 1v661q0 39 -21 62.5t-57 23.5q-27 0 -46.5 -12.5t-19.5 -34.5v-111 q0 -86 -59 -133.5t-168 -47.5q-93 0 -139 39.5t-46 110.5zM283 1153q0 144 53 219.5t141 75.5q48 0 88 -20t74.5 -46t64.5 -46t59 -20q33 0 50 24.5t27 74.5q15 37 58 37q56 0 56 -74q0 -144 -52.5 -220t-140.5 -76q-47 0 -87.5 20t-75 47t-64.5 46.5t-59 19.5 q-32 0 -49.5 -24t-28.5 -75q-15 -38 -56 -38q-57 0 -58 75z" />
<glyph unicode="&#xe4;" horiz-adv-x="1231" d="M56 218q0 140 127 221.5t357 81.5q60 0 105 -8t74 -24l-35 -89q-22 12 -40.5 17.5t-41.5 5.5q-50 0 -79 -33.5t-29 -95.5q0 -66 28.5 -100t75.5 -34q30 0 56 13.5t39 32.5l25 -82q-49 -73 -143 -113t-200 -40q-143 0 -231 71t-88 176zM93 723q0 68 61.5 135.5t185 112.5 t310.5 45q217 0 322.5 -79.5t105.5 -216.5v-490q0 -19 10 -32t30 -13q17 0 28 9.5t20 18.5q7 7 15 12t18 5q17 0 25 -12.5t8 -32.5q0 -45 -33 -94.5t-98 -84.5t-161 -35q-114 0 -186 48t-72 121v24l-33 1v661q0 39 -21 62.5t-57 23.5q-27 0 -46.5 -12.5t-19.5 -34.5v-111 q0 -86 -59 -133.5t-168 -47.5q-93 0 -139 39.5t-46 110.5zM179 1253q0 86 54 135.5t145 49.5q92 0 145.5 -49.5t53.5 -135.5q0 -83 -53.5 -132t-145.5 -49q-91 0 -145 48.5t-54 132.5zM659 1253q0 85 54 135t145 50q94 0 147.5 -49.5t53.5 -135.5q0 -83 -53.5 -132 t-147.5 -49q-91 0 -145 48.5t-54 132.5z" />
<glyph unicode="&#xe5;" horiz-adv-x="1231" d="M56 218q0 140 127 221.5t357 81.5q60 0 105 -8t74 -24l-35 -89q-22 12 -40.5 17.5t-41.5 5.5q-50 0 -79 -33.5t-29 -95.5q0 -66 28.5 -100t75.5 -34q30 0 56 13.5t39 32.5l25 -82q-49 -73 -143 -113t-200 -40q-143 0 -231 71t-88 176zM93 723q0 68 61.5 135.5t185 112.5 t310.5 45q217 0 322.5 -79.5t105.5 -216.5v-490q0 -19 10 -32t30 -13q17 0 28 9.5t20 18.5q7 7 15 12t18 5q17 0 25 -12.5t8 -32.5q0 -45 -33 -94.5t-98 -84.5t-161 -35q-114 0 -186 48t-72 121v24l-33 1v661q0 39 -21 62.5t-57 23.5q-27 0 -46.5 -12.5t-19.5 -34.5v-111 q0 -86 -59 -133.5t-168 -47.5q-93 0 -139 39.5t-46 110.5zM351 1283q0 104 78 159q77 55 189 55q117 0 193 -56t76 -158q0 -101 -76 -158t-193 -57q-113 0 -189 55q-77 55 -78 160zM534 1283q0 -59 24 -90q25 -31 63 -31q39 0 61 32q23 32 24 89q0 60 -24 91q-22 30 -61 30 q-38 0 -63 -30t-24 -91z" />
<glyph unicode="&#xe6;" horiz-adv-x="1757" d="M63 228q0 136 127 215.5t358 79.5q57 0 99 -8.5t69 -22.5l-35 -82q-23 13 -44 17.5t-47 4.5q-45 0 -72.5 -35.5t-27.5 -100.5q0 -72 30.5 -110t78.5 -38q44 0 79.5 23.5t55.5 53.5l73 -82q-47 -76 -155.5 -123t-247.5 -47q-164 0 -252.5 71t-88.5 184zM106 729 q0 65 57.5 131t170 110t276.5 44q109 0 193.5 -33t143.5 -102l-73 -8q69 68 158 106t195 38q151 0 257.5 -55.5t164 -148t57.5 -205.5q0 -59 -39 -91.5t-112 -32.5h-580v92h253q57 0 57 54q0 131 -34 187.5t-79 56.5q-35 0 -63 -24t-44 -79t-16 -151q0 -193 84 -283.5 t226 -90.5q79 0 143.5 34t100.5 95q41 32 60 28q14 -1 26.5 -11t12.5 -35q0 -102 -61 -189t-170.5 -140t-257.5 -53q-184 0 -309.5 62t-190 171t-64.5 249v366q0 39 -20.5 62t-55.5 23q-30 0 -50 -16.5t-20 -42.5v-82q0 -82 -59 -132t-164 -50q-84 0 -129 37t-45 109z" />
<glyph unicode="&#xe7;" horiz-adv-x="1141" d="M51 466q0 159 70 283.5t199 196.5t304 72q140 0 242 -42.5t157 -114.5t55 -160q0 -78 -58.5 -132t-157.5 -54q-95 0 -142.5 50.5t-47.5 129.5v33q0 67 -28 105t-73 38q-36 0 -67 -26.5t-50.5 -81t-19.5 -138.5q0 -119 40.5 -199t111 -120.5t160.5 -40.5q66 0 119 16 t105 62q30 27 45 36t29 9q20 0 30 -20.5t10 -50.5q0 -91 -60.5 -170t-169.5 -127.5t-252 -48.5q-157 0 -281 62t-197 173t-73 260zM324 -356q-1 23 13 37t33 14q17 2 31 -4.5t29 -15.5q24 -19 45.5 -28t47.5 -9q69 0 69 84q0 37 -20.5 56.5t-61.5 19.5h-27q-27 0 -34 16 t4 39l84 161h104l-81 -157l-72 16q24 6 52.5 9t72.5 3q110 0 167 -44t57 -123q0 -85 -69.5 -135.5t-200.5 -50.5q-109 0 -172 34t-71 78z" />
<glyph unicode="&#xe8;" horiz-adv-x="1146" d="M50 466q0 167 66.5 291t194 192.5t307.5 68.5q159 0 265.5 -51.5t160 -140t53.5 -203.5q0 -72 -39 -111.5t-112 -39.5h-607v107h273q56 0 57 53q0 129 -30 184t-79 55q-36 0 -64.5 -26.5t-45.5 -81t-17 -138.5q0 -186 84 -273t229 -87q68 0 123.5 15.5t108.5 62.5 q30 27 45 36t30 9q20 0 30 -20.5t10 -50.5q0 -91 -62 -170t-172 -127.5t-257 -48.5q-157 0 -281.5 62t-197.5 173t-73 260zM301 1376q-8 56 28.5 108t110.5 60q80 11 131.5 -38t86.5 -137l74 -204q11 -20 14 -39t-13 -35q-14 -13 -39 -14.5t-46 7.5l-183 106 q-76 39 -115.5 81.5t-48.5 104.5z" />
<glyph unicode="&#xe9;" horiz-adv-x="1146" d="M50 466q0 167 66.5 291t194 192.5t307.5 68.5q159 0 265.5 -51.5t160 -140t53.5 -203.5q0 -72 -39 -111.5t-112 -39.5h-607v107h273q56 0 57 53q0 129 -30 184t-79 55q-36 0 -64.5 -26.5t-45.5 -81t-17 -138.5q0 -186 84 -273t229 -87q68 0 123.5 15.5t108.5 62.5 q30 27 45 36t30 9q20 0 30 -20.5t10 -50.5q0 -91 -62 -170t-172 -127.5t-257 -48.5q-157 0 -281.5 62t-197.5 173t-73 260zM502.5 1126q2.5 19 14.5 39l72 204q36 88 87.5 137t132.5 38q73 -8 109 -59.5t28 -108.5q-8 -62 -47.5 -104.5t-116.5 -81.5l-181 -106 q-23 -9 -47 -8t-38 15q-16 16 -13.5 35z" />
<glyph unicode="&#xea;" horiz-adv-x="1146" d="M50 466q0 167 66.5 291t194 192.5t307.5 68.5q159 0 265.5 -51.5t160 -140t53.5 -203.5q0 -72 -39 -111.5t-112 -39.5h-607v107h273q56 0 57 53q0 129 -30 184t-79 55q-36 0 -64.5 -26.5t-45.5 -81t-17 -138.5q0 -186 84 -273t229 -87q68 0 123.5 15.5t108.5 62.5 q30 27 45 36t30 9q20 0 30 -20.5t10 -50.5q0 -91 -62 -170t-172 -127.5t-257 -48.5q-157 0 -281.5 62t-197.5 173t-73 260zM234.5 1119q0.5 -22 16.5 -36q18 -14 47 -14.5t58 20.5l337 233h-201l337 -233q30 -20 58.5 -20t46.5 14q15 13 15.5 36t-22.5 50l-202 266 q-31 36 -60 55t-72 19t-73 -19.5t-60 -54.5l-202 -266q-24 -28 -23.5 -50z" />
<glyph unicode="&#xeb;" horiz-adv-x="1146" d="M50 466q0 167 66.5 291t194 192.5t307.5 68.5q159 0 265.5 -51.5t160 -140t53.5 -203.5q0 -72 -39 -111.5t-112 -39.5h-607v107h273q56 0 57 53q0 129 -30 184t-79 55q-36 0 -64.5 -26.5t-45.5 -81t-17 -138.5q0 -186 84 -273t229 -87q68 0 123.5 15.5t108.5 62.5 q30 27 45 36t30 9q20 0 30 -20.5t10 -50.5q0 -91 -62 -170t-172 -127.5t-257 -48.5q-157 0 -281.5 62t-197.5 173t-73 260zM152 1253q0 86 54 135.5t145 49.5q92 0 145.5 -49.5t53.5 -135.5q0 -83 -53.5 -132t-145.5 -49q-91 0 -145 48.5t-54 132.5zM632 1253q0 85 54 135 t145 50q94 0 147.5 -49.5t53.5 -135.5q0 -83 -53.5 -132t-147.5 -49q-91 0 -145 48.5t-54 132.5z" />
<glyph unicode="&#xec;" horiz-adv-x="706" d="M55 828q0 24 15.5 39t48.5 27l271 94q43 14 68.5 21t56.5 7q30 0 48.5 -18.5t18.5 -47.5v-735q0 -40 7 -56.5t21 -25.5l21 -10q20 -10 31 -25.5t11 -37.5q0 -29 -20 -44.5t-55 -15.5h-461q-35 0 -55 16t-20 44q0 22 11 37.5t30 25.5l23 10q14 9 21 25.5t7 56.5v488 q0 33 -9.5 46t-25.5 20l-23 5q-19 8 -30 20.5t-11 33.5zM68 1376q-8 56 28.5 108t110.5 60q80 11 131.5 -38t86.5 -137l74 -204q11 -20 14 -39t-13 -35q-14 -13 -39 -14.5t-46 7.5l-183 106q-76 39 -115.5 81.5t-48.5 104.5z" />
<glyph unicode="&#xed;" horiz-adv-x="706" d="M55 828q0 24 15.5 39t48.5 27l271 94q43 14 68.5 21t56.5 7q30 0 48.5 -18.5t18.5 -47.5v-735q0 -40 7 -56.5t21 -25.5l21 -10q20 -10 31 -25.5t11 -37.5q0 -29 -20 -44.5t-55 -15.5h-461q-35 0 -55 16t-20 44q0 22 11 37.5t30 25.5l23 10q14 9 21 25.5t7 56.5v488 q0 33 -9.5 46t-25.5 20l-23 5q-19 8 -30 20.5t-11 33.5zM270.5 1126q2.5 19 14.5 39l72 204q36 88 87.5 137t132.5 38q73 -8 109 -59.5t28 -108.5q-8 -62 -47.5 -104.5t-116.5 -81.5l-181 -106q-23 -9 -47 -8t-38 15q-16 16 -13.5 35z" />
<glyph unicode="&#xee;" horiz-adv-x="706" d="M23.5 1119q0.5 -22 15.5 -36q16 -14 42 -14.5t52 20.5l303 233h-181l304 -233q27 -20 52.5 -20t41.5 14q14 13 14.5 36t-20.5 50l-182 266q-28 36 -54 55t-65 19q-38 0 -65 -19.5t-54 -54.5l-182 -266q-22 -28 -21.5 -50zM55 828q0 24 15.5 39t48.5 27l271 94 q43 14 68.5 21t56.5 7q30 0 48.5 -18.5t18.5 -47.5v-735q0 -40 7 -56.5t21 -25.5l21 -10q20 -10 31 -25.5t11 -37.5q0 -29 -20 -44.5t-55 -15.5h-461q-35 0 -55 16t-20 44q0 22 11 37.5t30 25.5l23 10q14 9 21 25.5t7 56.5v488q0 33 -9.5 46t-25.5 20l-23 5q-19 8 -30 20.5 t-11 33.5z" />
<glyph unicode="&#xef;" horiz-adv-x="706" d="M5 1252q0 86 43.5 135.5t116.5 49.5t116 -49.5t43 -135.5q0 -83 -43 -132t-116 -49t-116.5 48.5t-43.5 132.5zM55 828q0 24 15.5 39t48.5 27l271 94q43 14 68.5 21t56.5 7q30 0 48.5 -18.5t18.5 -47.5v-735q0 -40 7 -56.5t21 -25.5l21 -10q20 -10 31 -25.5t11 -37.5 q0 -29 -20 -44.5t-55 -15.5h-461q-35 0 -55 16t-20 44q0 22 11 37.5t30 25.5l23 10q14 9 21 25.5t7 56.5v488q0 33 -9.5 46t-25.5 20l-23 5q-19 8 -30 20.5t-11 33.5zM389 1252q0 85 43.5 135t116.5 50q75 0 117.5 -49.5t42.5 -135.5q0 -83 -42.5 -132t-117.5 -49 q-73 0 -116.5 48.5t-43.5 132.5z" />
<glyph unicode="&#xf0;" horiz-adv-x="1286" d="M53 536q0 132 59.5 242t165 176.5t241.5 66.5q85 0 150 -27t105 -78.5t47 -123.5l-36 -17q-13 119 -64.5 240t-130.5 217.5t-174 141.5q-54 27 -76.5 51.5t-22.5 54.5q0 33 33.5 56.5t107.5 14.5q152 -17 291.5 -97t249 -206.5t173 -288t63.5 -341.5q0 -212 -74.5 -356.5 t-208.5 -219t-314 -74.5q-185 0 -316.5 72t-200 200t-68.5 296zM258.5 1184.5q7.5 24.5 40.5 40.5l668 310q39 17 64 7t37 -37q31 -65 -42 -97l-668 -310q-33 -15 -57.5 -4.5t-36.5 36.5q-13 30 -5.5 54.5zM504 643q0 -124 31 -228t77 -166.5t90 -62.5q34 0 56.5 22.5t34 68 t11.5 112.5q0 126 -31.5 219.5t-78 146t-93.5 52.5q-33 0 -54.5 -20.5t-32 -57t-10.5 -86.5z" />
<glyph unicode="&#xf1;" horiz-adv-x="1405" d="M55 823q0 25 13.5 39.5t50.5 28.5l227 88q52 20 84.5 29.5t63.5 9.5q46 0 70 -26t24 -66v-711q0 -41 6 -57.5t21 -24.5l21 -11q34 -19 34 -56q0 -66 -79 -66h-454q-41 0 -59.5 16.5t-18.5 44.5q0 20 10.5 36t33.5 26l23 10q15 7 21.5 24t6.5 58v481q0 33 -9 47t-26 19 l-23 7q-22 7 -31.5 20.5t-9.5 33.5zM388 1153q0 144 53 219.5t141 75.5q48 0 88 -20t74.5 -46t64.5 -46t59 -20q33 0 50 24.5t27 74.5q15 37 58 37q56 0 56 -74q0 -144 -52.5 -220t-140.5 -76q-47 0 -87.5 20t-75 47t-64.5 46.5t-59 19.5q-32 0 -49.5 -24t-28.5 -75 q-15 -38 -56 -38q-57 0 -58 75zM489 741l31 29q144 134 246.5 191t189.5 57q133 0 208.5 -91t88.5 -237l46 -475q4 -41 8.5 -58t19.5 -24l23 -10q24 -10 34 -25.5t10 -36.5q0 -29 -18.5 -45t-59.5 -16h-459q-79 0 -79 66q0 37 34 56l21 11q15 8 23 24.5t4 57.5l-39 414 q-6 66 -31 98.5t-77 32.5q-32 0 -65.5 -14t-60.5 -38l-36 -32z" />
<glyph unicode="&#xf2;" horiz-adv-x="1276" d="M51 499q0 148 76 265.5t209.5 185.5t309.5 68q174 0 304 -66t202.5 -185t72.5 -277q0 -145 -76 -262.5t-209.5 -187t-309.5 -69.5q-174 0 -304 67t-202.5 186t-72.5 275zM347 1376q-8 56 28.5 108t110.5 60q80 11 131.5 -38t86.5 -137l74 -204q11 -20 14 -39t-13 -35 q-14 -13 -39 -14.5t-46 7.5l-183 106q-76 39 -115.5 81.5t-48.5 104.5zM477.5 684.5q2.5 -85.5 30.5 -218.5q27 -126 60.5 -206.5t72 -114.5t80.5 -25q39 9 59.5 54t18.5 131t-31 218q-27 127 -60 207t-72 115t-81 24q-39 -9 -59.5 -54t-18 -130.5z" />
<glyph unicode="&#xf3;" horiz-adv-x="1276" d="M51 499q0 148 76 265.5t209.5 185.5t309.5 68q174 0 304 -66t202.5 -185t72.5 -277q0 -145 -76 -262.5t-209.5 -187t-309.5 -69.5q-174 0 -304 67t-202.5 186t-72.5 275zM477.5 684.5q2.5 -85.5 30.5 -218.5q27 -126 60.5 -206.5t72 -114.5t80.5 -25q39 9 59.5 54 t18.5 131t-31 218q-27 127 -60 207t-72 115t-81 24q-39 -9 -59.5 -54t-18 -130.5zM548.5 1126q2.5 19 14.5 39l72 204q36 88 87.5 137t132.5 38q73 -8 109 -59.5t28 -108.5q-8 -62 -47.5 -104.5t-116.5 -81.5l-181 -106q-23 -9 -47 -8t-38 15q-16 16 -13.5 35z" />
<glyph unicode="&#xf4;" horiz-adv-x="1276" d="M51 499q0 148 76 265.5t209.5 185.5t309.5 68q174 0 304 -66t202.5 -185t72.5 -277q0 -145 -76 -262.5t-209.5 -187t-309.5 -69.5q-174 0 -304 67t-202.5 186t-72.5 275zM280.5 1119q0.5 -22 16.5 -36q18 -14 47 -14.5t58 20.5l337 233h-201l337 -233q30 -20 58.5 -20 t46.5 14q15 13 15.5 36t-22.5 50l-202 266q-31 36 -60 55t-72 19t-73 -19.5t-60 -54.5l-202 -266q-24 -28 -23.5 -50zM477.5 684.5q2.5 -85.5 30.5 -218.5q27 -126 60.5 -206.5t72 -114.5t80.5 -25q39 9 59.5 54t18.5 131t-31 218q-27 127 -60 207t-72 115t-81 24 q-39 -9 -59.5 -54t-18 -130.5z" />
<glyph unicode="&#xf5;" horiz-adv-x="1276" d="M51 499q0 148 76 265.5t209.5 185.5t309.5 68q174 0 304 -66t202.5 -185t72.5 -277q0 -145 -76 -262.5t-209.5 -187t-309.5 -69.5q-174 0 -304 67t-202.5 186t-72.5 275zM303 1153q0 144 53 219.5t141 75.5q48 0 88 -20t74.5 -46t64.5 -46t59 -20q33 0 50 24.5t27 74.5 q15 37 58 37q56 0 56 -74q0 -144 -52.5 -220t-140.5 -76q-47 0 -87.5 20t-75 47t-64.5 46.5t-59 19.5q-32 0 -49.5 -24t-28.5 -75q-15 -38 -56 -38q-57 0 -58 75zM477.5 684.5q2.5 -85.5 30.5 -218.5q27 -126 60.5 -206.5t72 -114.5t80.5 -25q39 9 59.5 54t18.5 131t-31 218 q-27 127 -60 207t-72 115t-81 24q-39 -9 -59.5 -54t-18 -130.5z" />
<glyph unicode="&#xf6;" horiz-adv-x="1276" d="M51 499q0 148 76 265.5t209.5 185.5t309.5 68q174 0 304 -66t202.5 -185t72.5 -277q0 -145 -76 -262.5t-209.5 -187t-309.5 -69.5q-174 0 -304 67t-202.5 186t-72.5 275zM198 1253q0 86 54 135.5t145 49.5q92 0 145.5 -49.5t53.5 -135.5q0 -83 -53.5 -132t-145.5 -49 q-91 0 -145 48.5t-54 132.5zM477.5 684.5q2.5 -85.5 30.5 -218.5q27 -126 60.5 -206.5t72 -114.5t80.5 -25q39 9 59.5 54t18.5 131t-31 218q-27 127 -60 207t-72 115t-81 24q-39 -9 -59.5 -54t-18 -130.5zM678 1253q0 85 54 135t145 50q94 0 147.5 -49.5t53.5 -135.5 q0 -83 -53.5 -132t-147.5 -49q-91 0 -145 48.5t-54 132.5z" />
<glyph unicode="&#xf7;" horiz-adv-x="1174" d="M115 698q0 38 22.5 60t51.5 22h812q30 0 51.5 -22t21.5 -60t-21.5 -59t-51.5 -21h-813q-29 0 -51 21t-22 59zM444 284q0 38 19.5 69t53 49.5t73.5 18.5q43 0 76 -18.5t52.5 -49.5t19.5 -69q0 -37 -19.5 -68.5t-52.5 -50.5t-76 -19q-40 0 -73.5 19t-53 51t-19.5 68z M444 1125q0 38 19.5 69t53 49.5t73.5 18.5q43 0 76 -18.5t52.5 -49.5t19.5 -69q0 -37 -19.5 -68.5t-52.5 -50.5t-76 -19q-40 0 -73.5 19t-53 51t-19.5 68z" />
<glyph unicode="&#xf8;" horiz-adv-x="1256" d="M51 499q0 148 76 265.5t209.5 185.5t309.5 68q174 0 304 -66t202.5 -185t72.5 -277q0 -145 -76 -262.5t-209.5 -187t-309.5 -69.5q-174 0 -304 67t-202.5 186t-72.5 275zM220.5 -62q-6.5 18 4.5 35l192 299l24 12l332 509l-1 20l168 259q11 17 29 22.5t38 -4.5t27 -26 t-4 -34l-189 -291l-17 -1l-323 -497l-2 -25l-185 -286q-25 -37 -68 -18q-19 8 -25.5 26zM477.5 684.5q2.5 -85.5 30.5 -218.5q27 -126 60.5 -206.5t72 -114.5t80.5 -25q39 9 59.5 54t18.5 131t-31 218q-27 127 -60 207t-72 115t-81 24q-39 -9 -59.5 -54t-18 -130.5z" />
<glyph unicode="&#xf9;" horiz-adv-x="1382" d="M35 823q0 25 13 39.5t50 28.5l228 88q55 22 86.5 30.5t56.5 8.5q49 0 73.5 -26t24.5 -66v-566q0 -66 30.5 -98.5t84.5 -32.5q34 0 71 13.5t65 39.5l36 31l61 -65l-30 -29q-144 -138 -251 -193t-196 -55q-136 0 -220.5 91.5t-84.5 236.5v397q0 33 -8.5 47t-26.5 19l-22 7 q-22 7 -31.5 20.5t-9.5 33.5zM391 1376q-8 56 28.5 108t110.5 60q80 11 131.5 -38t86.5 -137l74 -204q11 -20 14 -39t-13 -35q-14 -13 -39 -14.5t-46 7.5l-183 106q-76 39 -115.5 81.5t-48.5 104.5zM696 823q0 25 13.5 39.5t50.5 28.5l227 88q52 20 84.5 29.5t63.5 9.5 q46 0 70 -26t24 -66v-711q0 -41 6 -58t21 -24l23 -10q24 -10 34 -25.5t10 -36.5q0 -29 -18.5 -45t-59.5 -16h-251q-73 0 -128.5 62.5t-55.5 147.5v13h-15v473q0 33 -9 47t-26 19l-23 7q-22 7 -31.5 20.5t-9.5 33.5z" />
<glyph unicode="&#xfa;" horiz-adv-x="1382" d="M35 823q0 25 13 39.5t50 28.5l228 88q55 22 86.5 30.5t56.5 8.5q49 0 73.5 -26t24.5 -66v-566q0 -66 30.5 -98.5t84.5 -32.5q34 0 71 13.5t65 39.5l36 31l61 -65l-30 -29q-144 -138 -251 -193t-196 -55q-136 0 -220.5 91.5t-84.5 236.5v397q0 33 -8.5 47t-26.5 19l-22 7 q-22 7 -31.5 20.5t-9.5 33.5zM593.5 1126q2.5 19 14.5 39l72 204q36 88 87.5 137t132.5 38q73 -8 109 -59.5t28 -108.5q-8 -62 -47.5 -104.5t-116.5 -81.5l-181 -106q-23 -9 -47 -8t-38 15q-16 16 -13.5 35zM696 823q0 25 13.5 39.5t50.5 28.5l227 88q52 20 84.5 29.5 t63.5 9.5q46 0 70 -26t24 -66v-711q0 -41 6 -58t21 -24l23 -10q24 -10 34 -25.5t10 -36.5q0 -29 -18.5 -45t-59.5 -16h-251q-73 0 -128.5 62.5t-55.5 147.5v13h-15v473q0 33 -9 47t-26 19l-23 7q-22 7 -31.5 20.5t-9.5 33.5z" />
<glyph unicode="&#xfb;" horiz-adv-x="1382" d="M35 823q0 25 13 39.5t50 28.5l228 88q55 22 86.5 30.5t56.5 8.5q49 0 73.5 -26t24.5 -66v-566q0 -66 30.5 -98.5t84.5 -32.5q34 0 71 13.5t65 39.5l36 31l61 -65l-30 -29q-144 -138 -251 -193t-196 -55q-136 0 -220.5 91.5t-84.5 236.5v397q0 33 -8.5 47t-26.5 19l-22 7 q-22 7 -31.5 20.5t-9.5 33.5zM324.5 1119q0.5 -22 16.5 -36q18 -14 47 -14.5t58 20.5l337 233h-201l337 -233q30 -20 58.5 -20t46.5 14q15 13 15.5 36t-22.5 50l-202 266q-31 36 -60 55t-72 19t-73 -19.5t-60 -54.5l-202 -266q-24 -28 -23.5 -50zM696 823q0 25 13.5 39.5 t50.5 28.5l227 88q52 20 84.5 29.5t63.5 9.5q46 0 70 -26t24 -66v-711q0 -41 6 -58t21 -24l23 -10q24 -10 34 -25.5t10 -36.5q0 -29 -18.5 -45t-59.5 -16h-251q-73 0 -128.5 62.5t-55.5 147.5v13h-15v473q0 33 -9 47t-26 19l-23 7q-22 7 -31.5 20.5t-9.5 33.5z" />
<glyph unicode="&#xfc;" horiz-adv-x="1382" d="M35 823q0 25 13 39.5t50 28.5l228 88q55 22 86.5 30.5t56.5 8.5q49 0 73.5 -26t24.5 -66v-566q0 -66 30.5 -98.5t84.5 -32.5q34 0 71 13.5t65 39.5l36 31l61 -65l-30 -29q-144 -138 -251 -193t-196 -55q-136 0 -220.5 91.5t-84.5 236.5v397q0 33 -8.5 47t-26.5 19l-22 7 q-22 7 -31.5 20.5t-9.5 33.5zM242 1253q0 86 54 135.5t145 49.5q92 0 145.5 -49.5t53.5 -135.5q0 -83 -53.5 -132t-145.5 -49q-91 0 -145 48.5t-54 132.5zM696 823q0 25 13.5 39.5t50.5 28.5l227 88q52 20 84.5 29.5t63.5 9.5q46 0 70 -26t24 -66v-711q0 -41 6 -58t21 -24 l23 -10q24 -10 34 -25.5t10 -36.5q0 -29 -18.5 -45t-59.5 -16h-251q-73 0 -128.5 62.5t-55.5 147.5v13h-15v473q0 33 -9 47t-26 19l-23 7q-22 7 -31.5 20.5t-9.5 33.5zM722 1253q0 85 54 135t145 50q94 0 147.5 -49.5t53.5 -135.5q0 -83 -53.5 -132t-147.5 -49 q-91 0 -145 48.5t-54 132.5z" />
<glyph unicode="&#xfd;" horiz-adv-x="1243" d="M-1 926q0 29 20 45t55 16h551q34 0 53.5 -16.5t19.5 -44.5q0 -23 -11.5 -36.5t-38.5 -22.5l-27 -8q-41 -12 -48.5 -39.5t21.5 -94.5l231 -524l-237 -384l-470 968q-17 37 -34.5 52t-45.5 28q-20 10 -29.5 24t-9.5 37zM18 -198q0 86 44 136t118 50q73 0 111 -41t67 -110 l22 -49q14 -34 33 -53.5t40 -19.5q19 0 36 12t41.5 54t63.5 131l29 65l55 104l250 624q27 66 19.5 100t-49.5 47l-34 11q-26 8 -38.5 24t-12.5 39q0 29 20 45t54 16h288q35 0 54.5 -16.5t19.5 -44.5q0 -18 -10.5 -33t-35.5 -29q-38 -19 -64.5 -49t-53.5 -96l-312 -757 q-73 -176 -131.5 -271t-127.5 -131.5t-171 -36.5q-148 0 -236.5 79.5t-88.5 199.5zM631.5 1126q2.5 19 14.5 39l72 204q36 88 87.5 137t132.5 38q73 -8 109 -59.5t28 -108.5q-8 -62 -47.5 -104.5t-116.5 -81.5l-181 -106q-23 -9 -47 -8t-38 15q-16 16 -13.5 35z" />
<glyph unicode="&#xfe;" horiz-adv-x="1315" d="M24 1398q0 42 64 64l270 96q43 14 69.5 20t55.5 6q30 0 48.5 -17.5t18.5 -46.5v-1795q0 -41 6.5 -57.5t22.5 -24.5l20 -11q20 -11 31 -26t11 -35q0 -29 -19.5 -45t-55.5 -16h-461q-35 0 -54.5 16t-19.5 45q0 20 11 35t31 26l21 11q14 8 21.5 24.5t7.5 57.5v1548 q0 33 -10 45t-25 19l-22 6q-18 8 -30 20.5t-12 34.5zM408 158l93 93q33 -65 71.5 -90t85.5 -25q50 0 88 35t59.5 111.5t21.5 201.5q0 122 -22 196.5t-59.5 108t-87.5 33.5q-51 0 -94 -30.5t-78 -97.5l-58 60q82 124 182.5 192.5t230.5 68.5q124 0 220 -60.5t151 -169.5 t55 -257q0 -166 -67 -290.5t-183.5 -194.5t-264.5 -70q-119 0 -202.5 46t-141.5 139z" />
<glyph unicode="&#xff;" horiz-adv-x="1243" d="M-1 926q0 29 20 45t55 16h551q34 0 53.5 -16.5t19.5 -44.5q0 -23 -11.5 -36.5t-38.5 -22.5l-27 -8q-41 -12 -48.5 -39.5t21.5 -94.5l231 -524l-237 -384l-470 968q-17 37 -34.5 52t-45.5 28q-20 10 -29.5 24t-9.5 37zM18 -198q0 86 44 136t118 50q73 0 111 -41t67 -110 l22 -49q14 -34 33 -53.5t40 -19.5q19 0 36 12t41.5 54t63.5 131l29 65l55 104l250 624q27 66 19.5 100t-49.5 47l-34 11q-26 8 -38.5 24t-12.5 39q0 29 20 45t54 16h288q35 0 54.5 -16.5t19.5 -44.5q0 -18 -10.5 -33t-35.5 -29q-38 -19 -64.5 -49t-53.5 -96l-312 -757 q-73 -176 -131.5 -271t-127.5 -131.5t-171 -36.5q-148 0 -236.5 79.5t-88.5 199.5zM281 1253q0 86 54 135.5t145 49.5q92 0 145.5 -49.5t53.5 -135.5q0 -83 -53.5 -132t-145.5 -49q-91 0 -145 48.5t-54 132.5zM761 1253q0 85 54 135t145 50q94 0 147.5 -49.5t53.5 -135.5 q0 -83 -53.5 -132t-147.5 -49q-91 0 -145 48.5t-54 132.5z" />
<glyph unicode="&#x152;" horiz-adv-x="2195" d="M62 697q0 225 103 390t290 256t439 91h836q47 0 77.5 9t57.5 18t63 9q46 0 69.5 -26t41.5 -84l87 -288q11 -37 0 -61.5t-43 -35.5q-37 -13 -66 0t-48 48q-44 81 -83 132.5t-78.5 80.5t-83 40t-97.5 11h-138v-1016q0 -62 31 -93.5t90 -31.5h48q77 0 135.5 24.5t112 90.5 t112.5 191q15 33 41.5 44.5t59.5 5.5q36 -7 52 -33.5t5 -65.5l-95 -329q-16 -56 -40.5 -83.5t-74.5 -27.5q-32 0 -58 9.5t-57 18.5t-78 9h-875q-269 0 -455.5 80t-283.5 235.5t-97 381.5zM616 721q0 -207 47 -333.5t122 -183.5t161 -57h68v1140h-70q-97 0 -171 -63.5 t-115.5 -189t-41.5 -313.5zM1309 656v144h269q43 0 68 10t41 36.5t30 75.5q18 66 75 65q54 0 69 -60l79 -323q17 -73 -39 -92q-60 -22 -97 30q-33 47 -60 71.5t-60 33.5t-87 9h-288z" />
<glyph unicode="&#x153;" horiz-adv-x="1888" d="M51 499q0 145 73 262t200 185.5t289 68.5q143 0 244.5 -55.5t144.5 -135.5l42 -641q-42 -62 -106 -109.5t-145 -74t-176 -26.5q-168 0 -295.5 66t-199 184.5t-71.5 275.5zM482.5 680q0.5 -86 27.5 -213q28 -126 60.5 -205t69 -112.5t72.5 -25.5q35 7 53 54.5t17 134 t-27 209.5q-27 126 -60 205t-69.5 112.5t-72.5 25.5q-33 -7 -52 -53t-18.5 -132zM863 478q0 159 59 280t172 189t275 68q146 0 250.5 -55.5t161 -148t56.5 -205.5q0 -59 -39 -91.5t-110 -32.5h-611v92h283q56 0 56 54q0 131 -35 187.5t-78 56.5q-33 0 -61.5 -24t-45 -79 t-16.5 -151q0 -193 84 -283.5t226 -90.5q79 0 144 34t101 95q41 31 59 28q14 -1 26.5 -11t12.5 -35q0 -102 -60 -189t-168 -140t-252 -53q-146 0 -257 64t-172 178t-61 263z" />
<glyph unicode="&#x178;" horiz-adv-x="1456" d="M18 1364q0 33 21.5 51.5t66.5 18.5h581q45 0 66.5 -18.5t21.5 -51.5q0 -57 -53 -75l-27 -9q-32 -11 -37 -31.5t15 -65.5l269 -624l-157 -74l306 654q22 47 11.5 85t-60.5 58l-23 11q-18 8 -30.5 26t-12.5 45q0 33 21.5 51.5t66.5 18.5h294q45 0 66 -18.5t21 -51.5 q0 -25 -10.5 -40.5t-31.5 -28.5l-17 -9q-19 -10 -36.5 -27t-37.5 -48.5t-47 -90.5l-317 -679l-381 -52l-403 808q-20 42 -34.5 58t-38.5 26l-28 12q-23 10 -34 29t-11 42zM367 70q0 55 53 75l39 15q27 10 39.5 26t12.5 41v304h475v-304q0 -26 13.5 -41.5t38.5 -25.5l39 -15 q53 -20 53 -75q0 -32 -21.5 -51t-66.5 -19h-587q-45 0 -66.5 19t-21.5 51zM417 1688q0 84 53.5 131.5t143.5 47.5q91 0 143.5 -47.5t52.5 -131.5q0 -81 -52.5 -129t-143.5 -48q-90 0 -143.5 47t-53.5 130zM890 1688q0 83 53.5 131t143.5 48q93 0 146 -47.5t53 -131.5 q0 -81 -53 -129t-146 -48q-90 0 -143.5 47t-53.5 130z" />
<glyph unicode="&#x2c6;" horiz-adv-x="843" d="M58.5 1119q0.5 -22 16.5 -36q18 -14 47 -14.5t58 20.5l337 233h-201l337 -233q30 -20 58.5 -20t46.5 14q15 13 15.5 36t-22.5 50l-202 266q-31 36 -60 55t-72 19t-73 -19.5t-60 -54.5l-202 -266q-24 -28 -23.5 -50z" />
<glyph unicode="&#x2dc;" horiz-adv-x="825" d="M58 1153q0 144 53 219.5t141 75.5q48 0 88 -20t74.5 -46t64.5 -46t59 -20q33 0 50 24.5t27 74.5q15 37 58 37q56 0 56 -74q0 -144 -52.5 -220t-140.5 -76q-47 0 -87.5 20t-75 47t-64.5 46.5t-59 19.5q-32 0 -49.5 -24t-28.5 -75q-15 -38 -56 -38q-57 0 -58 75z" />
<glyph unicode="&#x2000;" horiz-adv-x="964" />
<glyph unicode="&#x2001;" horiz-adv-x="1929" />
<glyph unicode="&#x2002;" horiz-adv-x="964" />
<glyph unicode="&#x2003;" horiz-adv-x="1929" />
<glyph unicode="&#x2004;" horiz-adv-x="643" />
<glyph unicode="&#x2005;" horiz-adv-x="482" />
<glyph unicode="&#x2006;" horiz-adv-x="321" />
<glyph unicode="&#x2007;" horiz-adv-x="321" />
<glyph unicode="&#x2008;" horiz-adv-x="241" />
<glyph unicode="&#x2009;" horiz-adv-x="385" />
<glyph unicode="&#x200a;" horiz-adv-x="107" />
<glyph unicode="&#x2010;" horiz-adv-x="823" d="M61 529l32 88q17 50 41.5 68t63.5 18h502q100 0 62 -106l-32 -88q-17 -50 -41 -68t-63 -18h-503q-100 0 -62 106z" />
<glyph unicode="&#x2011;" horiz-adv-x="823" d="M61 529l32 88q17 50 41.5 68t63.5 18h502q100 0 62 -106l-32 -88q-17 -50 -41 -68t-63 -18h-503q-100 0 -62 106z" />
<glyph unicode="&#x2012;" horiz-adv-x="823" d="M61 529l32 88q17 50 41.5 68t63.5 18h502q100 0 62 -106l-32 -88q-17 -50 -41 -68t-63 -18h-503q-100 0 -62 106z" />
<glyph unicode="&#x2013;" horiz-adv-x="1174" d="M52 561q0 42 18.5 66t56.5 24h921q39 0 56.5 -24t17.5 -66t-18 -67t-56 -25h-921q-38 0 -56.5 25t-18.5 67z" />
<glyph unicode="&#x2014;" horiz-adv-x="1832" d="M52 561q0 42 18.5 66t56.5 24h1578q39 0 57 -24t18 -66q0 -43 -18 -67.5t-57 -24.5h-1578q-38 0 -56.5 24.5t-18.5 67.5z" />
<glyph unicode="&#x2018;" horiz-adv-x="593" d="M31 1096q0 125 44 226t127 171t197 99q48 12 75 3.5t34 -34.5q7 -24 -8 -46t-60 -38q-75 -27 -123.5 -66t-72 -81t-23.5 -79q0 -18 11.5 -29.5t39.5 -11.5h37q113 0 171 -50.5t58 -138.5q0 -97 -71.5 -158t-170.5 -61q-117 0 -191 75.5t-74 218.5z" />
<glyph unicode="&#x2019;" horiz-adv-x="593" d="M56 1376q0 97 71.5 158t170.5 61q117 0 191 -75t74 -218q0 -125 -44 -226.5t-126.5 -171t-197.5 -99.5q-48 -12 -74.5 -3t-34.5 35q-7 24 8.5 45.5t59.5 38.5q75 27 123.5 65.5t72 81t23.5 78.5q0 18 -11.5 29.5t-39.5 11.5h-37q-113 0 -171 51t-58 138z" />
<glyph unicode="&#x201a;" horiz-adv-x="593" d="M56 191q0 97 71.5 158.5t170.5 61.5q117 0 191 -75.5t74 -218.5q0 -125 -44 -226.5t-126.5 -171t-197.5 -99.5q-48 -12 -74.5 -3t-34.5 35q-7 24 8.5 45.5t59.5 38.5q75 27 123.5 65.5t72 81t23.5 78.5q0 18 -11.5 29.5t-39.5 11.5h-37q-113 0 -171 51t-58 138z" />
<glyph unicode="&#x201c;" horiz-adv-x="1183" d="M31 1097q0 125 44 226t127 171t197 99q48 12 75 3.5t34 -34.5q7 -24 -8 -46t-60 -38q-75 -27 -123.5 -66t-72 -81t-23.5 -79q0 -18 11.5 -29.5t39.5 -11.5h37q113 0 171 -50.5t58 -138.5q0 -97 -71.5 -158t-170.5 -61q-117 0 -191 75.5t-74 218.5zM621 1097q0 125 44 226 t126.5 171t197.5 99q48 12 75 3.5t34 -34.5q7 -24 -8 -46t-60 -38q-75 -27 -123.5 -66t-72 -81t-23.5 -79q0 -18 11.5 -29.5t39.5 -11.5h37q113 0 170.5 -50.5t57.5 -138.5q0 -97 -71 -158t-170 -61q-117 0 -191 75.5t-74 218.5z" />
<glyph unicode="&#x201d;" horiz-adv-x="1183" d="M56 1376q0 97 71.5 158t170.5 61q117 0 191 -75t74 -218q0 -125 -44 -226.5t-126.5 -171t-197.5 -99.5q-48 -12 -74.5 -3t-34.5 35q-7 24 8.5 45.5t59.5 38.5q75 27 123.5 65.5t72 81t23.5 78.5q0 18 -11.5 29.5t-39.5 11.5h-37q-113 0 -171 51t-58 138zM646 1376 q0 97 71 158t171 61q117 0 191 -75t74 -218q0 -125 -44 -226.5t-126.5 -171t-198.5 -99.5q-48 -12 -74 -3t-34 35q-7 24 8 45.5t59 38.5q75 27 123.5 65.5t72.5 81t24 78.5q0 18 -11.5 29.5t-40.5 11.5h-37q-113 0 -170.5 51t-57.5 138z" />
<glyph unicode="&#x201e;" horiz-adv-x="1183" d="M56 186q0 97 71.5 158.5t170.5 61.5q117 0 191 -75.5t74 -218.5q0 -125 -44 -226.5t-126.5 -171t-197.5 -99.5q-48 -12 -74.5 -3t-34.5 35q-7 24 8.5 45.5t59.5 38.5q75 27 123.5 65.5t72 81t23.5 78.5q0 18 -11.5 29.5t-39.5 11.5h-37q-113 0 -171 51t-58 138zM646 186 q0 97 71 158.5t171 61.5q117 0 191 -75.5t74 -218.5q0 -125 -44 -226.5t-126.5 -171t-198.5 -99.5q-48 -12 -74 -3t-34 35q-7 24 8 45.5t59 38.5q75 27 123.5 65.5t72.5 81t24 78.5q0 18 -11.5 29.5t-40.5 11.5h-37q-113 0 -170.5 51t-57.5 138z" />
<glyph unicode="&#x2022;" horiz-adv-x="1007" d="M138 528q0 103 49 186.5t131 134.5t184 51q106 0 188 -51t131 -134.5t49 -186.5q0 -101 -49 -186.5t-131 -137.5t-188 -52q-102 0 -184 52t-131 138t-49 186z" />
<glyph unicode="&#x2026;" horiz-adv-x="2143" d="M133 219q0 69 32.5 124.5t87.5 89.5t123 34q70 0 125 -34t87.5 -89.5t32.5 -124.5q0 -67 -32.5 -124t-87.5 -91.5t-125 -34.5q-68 0 -123 34.5t-87.5 92t-32.5 123.5zM829 219q0 69 32.5 124.5t87.5 89.5t123 34q70 0 125 -34t87.5 -89.5t32.5 -124.5q0 -67 -32.5 -124 t-87.5 -91.5t-125 -34.5q-68 0 -123 34.5t-87.5 92t-32.5 123.5zM1523 219q0 69 32.5 124.5t87.5 89.5t123 34q70 0 125 -34t87.5 -89.5t32.5 -124.5q0 -67 -32.5 -124t-87.5 -91.5t-125 -34.5q-68 0 -123 34.5t-87.5 92t-32.5 123.5z" />
<glyph unicode="&#x202f;" horiz-adv-x="385" />
<glyph unicode="&#x2039;" horiz-adv-x="759" d="M82 506q0 31 20.5 65.5t58.5 65.5q58 47 117.5 94t115.5 90.5t104 80t83 62.5q27 19 45 21t32 -9t12.5 -31t-15.5 -46q-28 -52 -63.5 -115.5t-82 -145.5t-110.5 -192v119q63 -109 110 -191t83 -145t63 -116q13 -26 15.5 -46t-12.5 -31q-14 -11 -32.5 -9t-44.5 21 q-35 26 -83 62t-104 79.5t-115.5 91t-117.5 94.5q-38 31 -58.5 65.5t-20.5 65.5z" />
<glyph unicode="&#x203a;" horiz-adv-x="759" d="M89.5 67q1.5 20 15.5 46q28 52 63.5 115.5t82 145.5t110.5 192v-119q-63 109 -110 191t-83 145t-63 116q-13 26 -15.5 46t12.5 31q14 11 32.5 9t44.5 -21q35 -26 83 -62t104 -79.5t115.5 -91t117.5 -94.5q38 -31 58.5 -65.5t20.5 -65.5t-20.5 -65.5t-58.5 -65.5 q-58 -47 -117.5 -94t-115.5 -90.5t-104 -80t-83 -62.5q-27 -19 -45 -21t-32 9t-12.5 31z" />
<glyph unicode="&#x205f;" horiz-adv-x="482" />
<glyph unicode="&#x20ac;" horiz-adv-x="1516" d="M42 822q0 20 12.5 32.5t29.5 12.5h1044q20 0 33.5 -12t13.5 -33q0 -44 -47 -44h-1044q-42 0 -42 44zM45 607q0 19 13 31.5t31 12.5h971q22 0 34.5 -12t12.5 -32q0 -44 -47 -44h-973q-42 0 -42 44zM198 702q0 219 91.5 392.5t268.5 273t433 99.5q82 0 152.5 -14t127.5 -37 t96 -49q42 -20 63 -50.5t10 -62.5l-58 -220q-9 -32 -22.5 -52.5t-41.5 -19.5q-38 0 -54.5 18.5t-25.5 52.5q-9 100 -43 169.5t-87 106t-122 36.5q-61 0 -114 -38.5t-93 -115t-62.5 -190t-22.5 -264.5q0 -198 37.5 -323t109.5 -184.5t176 -59.5q108 0 186.5 69t117.5 179 q15 27 26.5 42t24 21.5t29.5 6.5q30 0 45 -19t10 -55q-9 -78 -48.5 -157.5t-110 -145t-175 -105.5t-242.5 -40q-209 0 -362 90t-236.5 255.5t-83.5 390.5z" />
<glyph unicode="&#x2122;" horiz-adv-x="2238" d="M33 1172l39 204q11 41 30 58.5t57 17.5q29 0 58.5 -9.5t79.5 -9.5h388q51 0 80.5 9.5t55.5 9.5q39 0 58 -17.5t31 -58.5l38 -204q14 -61 -44 -71q-24 -4 -42.5 3t-32.5 32q-31 76 -55.5 116t-49.5 55t-53 15h-9v-632q0 -18 7 -26.5t19 -15.5l17 -10q36 -18 35 -54 q0 -52 -65 -53h-369q-66 0 -65 53q0 34 35 54l16 10q12 7 19.5 15.5t7.5 26.5v632h-9q-27 0 -50.5 -16t-49 -56.5t-57.5 -112.5q-13 -26 -32 -33t-44 -3q-26 5 -38.5 24t-5.5 47zM922 585q0 23 10.5 35t30.5 22l9 5q17 10 30.5 24.5t14.5 45.5l36 525q2 37 -4.5 54t-20.5 24 l-20 10q-17 7 -27.5 20t-10.5 33q0 51 66 52h273q51 0 78 -22.5t50 -74.5l171 -485l-119 -7l166 490q26 56 53.5 77.5t79.5 21.5h271q34 0 50.5 -14t16.5 -38q0 -20 -10.5 -32.5t-25.5 -20.5l-20 -11q-13 -7 -21.5 -17t-7.5 -29l35 -576q2 -23 7 -31.5t18 -16.5l21 -10 q33 -14 32 -51q0 -55 -65 -56h-377q-66 0 -65 53q0 36 39 54l20 10q12 8 19.5 17.5t5.5 31.5l-37 623l95 6l-242 -690q-25 -55 -46 -71.5t-55 -16.5q-35 0 -59 15t-53 77l-236 657l84 15l-43 -597q-2 -29 11 -44.5t38 -27.5l14 -11q23 -15 23 -46q0 -26 -15 -40.5t-51 -14.5 h-172q-35 0 -50 14.5t-15 38.5z" />
<glyph unicode="&#x25fc;" horiz-adv-x="988" d="M0 0v988h988v-988h-988z" />
</font>
</defs>
</svg>
